G04 #@! TF.GenerationSoftware,KiCad,Pcbnew,5.1.5*
G04 #@! TF.CreationDate,2020-01-23T15:17:14+01:00*
G04 #@! TF.ProjectId,HM-LC-Dim1PWM-Linear,484d2d4c-432d-4446-996d-3150574d2d4c,rev?*
G04 #@! TF.SameCoordinates,Original*
G04 #@! TF.FileFunction,Soldermask,Top*
G04 #@! TF.FilePolarity,Negative*
%FSLAX46Y46*%
G04 Gerber Fmt 4.6, Leading zero omitted, Abs format (unit mm)*
G04 Created by KiCad (PCBNEW 5.1.5) date 2020-01-23 15:17:14*
%MOMM*%
%LPD*%
G04 APERTURE LIST*
%ADD10C,0.100000*%
G04 APERTURE END LIST*
D10*
G36*
X150635562Y-137380181D02*
G01*
X150670481Y-137390774D01*
X150702663Y-137407976D01*
X150730873Y-137431127D01*
X150754024Y-137459337D01*
X150771226Y-137491519D01*
X150781819Y-137526438D01*
X150786000Y-137568895D01*
X150786000Y-138710105D01*
X150781819Y-138752562D01*
X150771226Y-138787481D01*
X150754024Y-138819663D01*
X150730873Y-138847873D01*
X150702663Y-138871024D01*
X150670481Y-138888226D01*
X150635562Y-138898819D01*
X150593105Y-138903000D01*
X149126895Y-138903000D01*
X149084438Y-138898819D01*
X149049519Y-138888226D01*
X149017337Y-138871024D01*
X148989127Y-138847873D01*
X148965976Y-138819663D01*
X148948774Y-138787481D01*
X148938181Y-138752562D01*
X148934000Y-138710105D01*
X148934000Y-137568895D01*
X148938181Y-137526438D01*
X148948774Y-137491519D01*
X148965976Y-137459337D01*
X148989127Y-137431127D01*
X149017337Y-137407976D01*
X149049519Y-137390774D01*
X149084438Y-137380181D01*
X149126895Y-137376000D01*
X150593105Y-137376000D01*
X150635562Y-137380181D01*
G37*
G36*
X156206391Y-132627916D02*
G01*
X156679560Y-132823909D01*
X156679562Y-132823910D01*
X157105403Y-133108448D01*
X157467552Y-133470597D01*
X157694585Y-133810375D01*
X157752091Y-133896440D01*
X157948084Y-134369609D01*
X158048000Y-134871921D01*
X158048000Y-135384079D01*
X157948084Y-135886391D01*
X157752091Y-136359560D01*
X157752090Y-136359562D01*
X157467552Y-136785403D01*
X157105403Y-137147552D01*
X156679562Y-137432090D01*
X156679561Y-137432091D01*
X156679560Y-137432091D01*
X156206391Y-137628084D01*
X155704079Y-137728000D01*
X155191921Y-137728000D01*
X154689609Y-137628084D01*
X154216440Y-137432091D01*
X154216439Y-137432091D01*
X154216438Y-137432090D01*
X153790597Y-137147552D01*
X153428448Y-136785403D01*
X153143910Y-136359562D01*
X153143909Y-136359560D01*
X152947916Y-135886391D01*
X152848000Y-135384079D01*
X152848000Y-134871921D01*
X152947916Y-134369609D01*
X153143909Y-133896440D01*
X153201416Y-133810375D01*
X153428448Y-133470597D01*
X153790597Y-133108448D01*
X154216438Y-132823910D01*
X154216440Y-132823909D01*
X154689609Y-132627916D01*
X155191921Y-132528000D01*
X155704079Y-132528000D01*
X156206391Y-132627916D01*
G37*
G36*
X145921000Y-137503000D02*
G01*
X143639000Y-137503000D01*
X143639000Y-135801000D01*
X145921000Y-135801000D01*
X145921000Y-137503000D01*
G37*
G36*
X136741000Y-137503000D02*
G01*
X134459000Y-137503000D01*
X134459000Y-135801000D01*
X136741000Y-135801000D01*
X136741000Y-137503000D01*
G37*
G36*
X150635562Y-134405181D02*
G01*
X150670481Y-134415774D01*
X150702663Y-134432976D01*
X150730873Y-134456127D01*
X150754024Y-134484337D01*
X150771226Y-134516519D01*
X150781819Y-134551438D01*
X150786000Y-134593895D01*
X150786000Y-135735105D01*
X150781819Y-135777562D01*
X150771226Y-135812481D01*
X150754024Y-135844663D01*
X150730873Y-135872873D01*
X150702663Y-135896024D01*
X150670481Y-135913226D01*
X150635562Y-135923819D01*
X150593105Y-135928000D01*
X149126895Y-135928000D01*
X149084438Y-135923819D01*
X149049519Y-135913226D01*
X149017337Y-135896024D01*
X148989127Y-135872873D01*
X148965976Y-135844663D01*
X148948774Y-135812481D01*
X148938181Y-135777562D01*
X148934000Y-135735105D01*
X148934000Y-134593895D01*
X148938181Y-134551438D01*
X148948774Y-134516519D01*
X148965976Y-134484337D01*
X148989127Y-134456127D01*
X149017337Y-134432976D01*
X149049519Y-134415774D01*
X149084438Y-134405181D01*
X149126895Y-134401000D01*
X150593105Y-134401000D01*
X150635562Y-134405181D01*
G37*
G36*
X162348627Y-133099037D02*
G01*
X162518466Y-133150557D01*
X162674991Y-133234222D01*
X162710729Y-133263552D01*
X162812186Y-133346814D01*
X162895448Y-133448271D01*
X162924778Y-133484009D01*
X163008443Y-133640534D01*
X163059963Y-133810374D01*
X163073000Y-133942743D01*
X163073000Y-134281258D01*
X163059963Y-134413627D01*
X163008443Y-134583466D01*
X162924778Y-134739991D01*
X162895448Y-134775729D01*
X162812186Y-134877186D01*
X162674989Y-134989779D01*
X162518467Y-135073442D01*
X162518465Y-135073443D01*
X162348626Y-135124963D01*
X162172000Y-135142359D01*
X161995373Y-135124963D01*
X161825534Y-135073443D01*
X161669009Y-134989778D01*
X161626750Y-134955097D01*
X161531814Y-134877186D01*
X161419221Y-134739989D01*
X161335558Y-134583467D01*
X161335557Y-134583465D01*
X161284037Y-134413626D01*
X161271000Y-134281257D01*
X161271000Y-133942742D01*
X161284037Y-133810373D01*
X161335557Y-133640534D01*
X161419222Y-133484009D01*
X161531815Y-133346815D01*
X161669010Y-133234222D01*
X161825535Y-133150557D01*
X161995374Y-133099037D01*
X162172000Y-133081641D01*
X162348627Y-133099037D01*
G37*
G36*
X164848627Y-133099037D02*
G01*
X165018466Y-133150557D01*
X165174991Y-133234222D01*
X165210729Y-133263552D01*
X165312186Y-133346814D01*
X165395448Y-133448271D01*
X165424778Y-133484009D01*
X165508443Y-133640534D01*
X165559963Y-133810374D01*
X165573000Y-133942743D01*
X165573000Y-134281258D01*
X165559963Y-134413627D01*
X165508443Y-134583466D01*
X165424778Y-134739991D01*
X165395448Y-134775729D01*
X165312186Y-134877186D01*
X165174989Y-134989779D01*
X165018467Y-135073442D01*
X165018465Y-135073443D01*
X164848626Y-135124963D01*
X164672000Y-135142359D01*
X164495373Y-135124963D01*
X164325534Y-135073443D01*
X164169009Y-134989778D01*
X164126750Y-134955097D01*
X164031814Y-134877186D01*
X163919221Y-134739989D01*
X163835558Y-134583467D01*
X163835557Y-134583465D01*
X163784037Y-134413626D01*
X163771000Y-134281257D01*
X163771000Y-133942742D01*
X163784037Y-133810373D01*
X163835557Y-133640534D01*
X163919222Y-133484009D01*
X164031815Y-133346815D01*
X164169010Y-133234222D01*
X164325535Y-133150557D01*
X164495374Y-133099037D01*
X164672000Y-133081641D01*
X164848627Y-133099037D01*
G37*
G36*
X167348627Y-133099037D02*
G01*
X167518466Y-133150557D01*
X167674991Y-133234222D01*
X167710729Y-133263552D01*
X167812186Y-133346814D01*
X167895448Y-133448271D01*
X167924778Y-133484009D01*
X168008443Y-133640534D01*
X168059963Y-133810374D01*
X168073000Y-133942743D01*
X168073000Y-134281258D01*
X168059963Y-134413627D01*
X168008443Y-134583466D01*
X167924778Y-134739991D01*
X167895448Y-134775729D01*
X167812186Y-134877186D01*
X167674989Y-134989779D01*
X167518467Y-135073442D01*
X167518465Y-135073443D01*
X167348626Y-135124963D01*
X167172000Y-135142359D01*
X166995373Y-135124963D01*
X166825534Y-135073443D01*
X166669009Y-134989778D01*
X166626750Y-134955097D01*
X166531814Y-134877186D01*
X166419221Y-134739989D01*
X166335558Y-134583467D01*
X166335557Y-134583465D01*
X166284037Y-134413626D01*
X166271000Y-134281257D01*
X166271000Y-133942742D01*
X166284037Y-133810373D01*
X166335557Y-133640534D01*
X166419222Y-133484009D01*
X166531815Y-133346815D01*
X166669010Y-133234222D01*
X166825535Y-133150557D01*
X166995374Y-133099037D01*
X167172000Y-133081641D01*
X167348627Y-133099037D01*
G37*
G36*
X170430600Y-133089989D02*
G01*
X170463652Y-133100015D01*
X170494103Y-133116292D01*
X170520799Y-133138201D01*
X170542708Y-133164897D01*
X170558985Y-133195348D01*
X170569011Y-133228400D01*
X170573000Y-133268903D01*
X170573000Y-134955097D01*
X170569011Y-134995600D01*
X170558985Y-135028652D01*
X170542708Y-135059103D01*
X170520799Y-135085799D01*
X170494103Y-135107708D01*
X170463652Y-135123985D01*
X170430600Y-135134011D01*
X170390097Y-135138000D01*
X168953903Y-135138000D01*
X168913400Y-135134011D01*
X168880348Y-135123985D01*
X168849897Y-135107708D01*
X168823201Y-135085799D01*
X168801292Y-135059103D01*
X168785015Y-135028652D01*
X168774989Y-134995600D01*
X168771000Y-134955097D01*
X168771000Y-133268903D01*
X168774989Y-133228400D01*
X168785015Y-133195348D01*
X168801292Y-133164897D01*
X168823201Y-133138201D01*
X168849897Y-133116292D01*
X168880348Y-133100015D01*
X168913400Y-133089989D01*
X168953903Y-133086000D01*
X170390097Y-133086000D01*
X170430600Y-133089989D01*
G37*
G36*
X150616228Y-131261703D02*
G01*
X150771100Y-131325853D01*
X150910481Y-131418985D01*
X151029015Y-131537519D01*
X151122147Y-131676900D01*
X151186297Y-131831772D01*
X151219000Y-131996184D01*
X151219000Y-132163816D01*
X151186297Y-132328228D01*
X151122147Y-132483100D01*
X151029015Y-132622481D01*
X150910481Y-132741015D01*
X150771100Y-132834147D01*
X150616228Y-132898297D01*
X150451816Y-132931000D01*
X150284184Y-132931000D01*
X150119772Y-132898297D01*
X149964900Y-132834147D01*
X149825519Y-132741015D01*
X149706985Y-132622481D01*
X149613853Y-132483100D01*
X149549703Y-132328228D01*
X149517000Y-132163816D01*
X149517000Y-131996184D01*
X149549703Y-131831772D01*
X149613853Y-131676900D01*
X149706985Y-131537519D01*
X149825519Y-131418985D01*
X149964900Y-131325853D01*
X150119772Y-131261703D01*
X150284184Y-131229000D01*
X150451816Y-131229000D01*
X150616228Y-131261703D01*
G37*
G36*
X142996228Y-131261703D02*
G01*
X143151100Y-131325853D01*
X143290481Y-131418985D01*
X143409015Y-131537519D01*
X143502147Y-131676900D01*
X143566297Y-131831772D01*
X143599000Y-131996184D01*
X143599000Y-132163816D01*
X143566297Y-132328228D01*
X143502147Y-132483100D01*
X143409015Y-132622481D01*
X143290481Y-132741015D01*
X143151100Y-132834147D01*
X142996228Y-132898297D01*
X142831816Y-132931000D01*
X142664184Y-132931000D01*
X142499772Y-132898297D01*
X142344900Y-132834147D01*
X142205519Y-132741015D01*
X142086985Y-132622481D01*
X141993853Y-132483100D01*
X141929703Y-132328228D01*
X141897000Y-132163816D01*
X141897000Y-131996184D01*
X141929703Y-131831772D01*
X141993853Y-131676900D01*
X142086985Y-131537519D01*
X142205519Y-131418985D01*
X142344900Y-131325853D01*
X142499772Y-131261703D01*
X142664184Y-131229000D01*
X142831816Y-131229000D01*
X142996228Y-131261703D01*
G37*
G36*
X139156674Y-130825465D02*
G01*
X139194367Y-130836899D01*
X139229103Y-130855466D01*
X139259548Y-130880452D01*
X139284534Y-130910897D01*
X139303101Y-130945633D01*
X139314535Y-130983326D01*
X139319000Y-131028661D01*
X139319000Y-132115339D01*
X139314535Y-132160674D01*
X139303101Y-132198367D01*
X139284534Y-132233103D01*
X139259548Y-132263548D01*
X139229103Y-132288534D01*
X139194367Y-132307101D01*
X139156674Y-132318535D01*
X139111339Y-132323000D01*
X138274661Y-132323000D01*
X138229326Y-132318535D01*
X138191633Y-132307101D01*
X138156897Y-132288534D01*
X138126452Y-132263548D01*
X138101466Y-132233103D01*
X138082899Y-132198367D01*
X138071465Y-132160674D01*
X138067000Y-132115339D01*
X138067000Y-131028661D01*
X138071465Y-130983326D01*
X138082899Y-130945633D01*
X138101466Y-130910897D01*
X138126452Y-130880452D01*
X138156897Y-130855466D01*
X138191633Y-130836899D01*
X138229326Y-130825465D01*
X138274661Y-130821000D01*
X139111339Y-130821000D01*
X139156674Y-130825465D01*
G37*
G36*
X137106674Y-130825465D02*
G01*
X137144367Y-130836899D01*
X137179103Y-130855466D01*
X137209548Y-130880452D01*
X137234534Y-130910897D01*
X137253101Y-130945633D01*
X137264535Y-130983326D01*
X137269000Y-131028661D01*
X137269000Y-132115339D01*
X137264535Y-132160674D01*
X137253101Y-132198367D01*
X137234534Y-132233103D01*
X137209548Y-132263548D01*
X137179103Y-132288534D01*
X137144367Y-132307101D01*
X137106674Y-132318535D01*
X137061339Y-132323000D01*
X136224661Y-132323000D01*
X136179326Y-132318535D01*
X136141633Y-132307101D01*
X136106897Y-132288534D01*
X136076452Y-132263548D01*
X136051466Y-132233103D01*
X136032899Y-132198367D01*
X136021465Y-132160674D01*
X136017000Y-132115339D01*
X136017000Y-131028661D01*
X136021465Y-130983326D01*
X136032899Y-130945633D01*
X136051466Y-130910897D01*
X136076452Y-130880452D01*
X136106897Y-130855466D01*
X136141633Y-130836899D01*
X136179326Y-130825465D01*
X136224661Y-130821000D01*
X137061339Y-130821000D01*
X137106674Y-130825465D01*
G37*
G36*
X150616228Y-128721703D02*
G01*
X150771100Y-128785853D01*
X150910481Y-128878985D01*
X151029015Y-128997519D01*
X151122147Y-129136900D01*
X151186297Y-129291772D01*
X151219000Y-129456184D01*
X151219000Y-129623816D01*
X151186297Y-129788228D01*
X151122147Y-129943100D01*
X151029015Y-130082481D01*
X150910481Y-130201015D01*
X150771100Y-130294147D01*
X150616228Y-130358297D01*
X150451816Y-130391000D01*
X150284184Y-130391000D01*
X150119772Y-130358297D01*
X149964900Y-130294147D01*
X149825519Y-130201015D01*
X149706985Y-130082481D01*
X149613853Y-129943100D01*
X149549703Y-129788228D01*
X149517000Y-129623816D01*
X149517000Y-129456184D01*
X149549703Y-129291772D01*
X149613853Y-129136900D01*
X149706985Y-128997519D01*
X149825519Y-128878985D01*
X149964900Y-128785853D01*
X150119772Y-128721703D01*
X150284184Y-128689000D01*
X150451816Y-128689000D01*
X150616228Y-128721703D01*
G37*
G36*
X143599000Y-130391000D02*
G01*
X141897000Y-130391000D01*
X141897000Y-128689000D01*
X143599000Y-128689000D01*
X143599000Y-130391000D01*
G37*
G36*
X137106674Y-128285465D02*
G01*
X137144367Y-128296899D01*
X137179103Y-128315466D01*
X137209548Y-128340452D01*
X137234534Y-128370897D01*
X137253101Y-128405633D01*
X137264535Y-128443326D01*
X137269000Y-128488661D01*
X137269000Y-129575339D01*
X137264535Y-129620674D01*
X137253101Y-129658367D01*
X137234534Y-129693103D01*
X137209548Y-129723548D01*
X137179103Y-129748534D01*
X137144367Y-129767101D01*
X137106674Y-129778535D01*
X137061339Y-129783000D01*
X136224661Y-129783000D01*
X136179326Y-129778535D01*
X136141633Y-129767101D01*
X136106897Y-129748534D01*
X136076452Y-129723548D01*
X136051466Y-129693103D01*
X136032899Y-129658367D01*
X136021465Y-129620674D01*
X136017000Y-129575339D01*
X136017000Y-128488661D01*
X136021465Y-128443326D01*
X136032899Y-128405633D01*
X136051466Y-128370897D01*
X136076452Y-128340452D01*
X136106897Y-128315466D01*
X136141633Y-128296899D01*
X136179326Y-128285465D01*
X136224661Y-128281000D01*
X137061339Y-128281000D01*
X137106674Y-128285465D01*
G37*
G36*
X139156674Y-128285465D02*
G01*
X139194367Y-128296899D01*
X139229103Y-128315466D01*
X139259548Y-128340452D01*
X139284534Y-128370897D01*
X139303101Y-128405633D01*
X139314535Y-128443326D01*
X139319000Y-128488661D01*
X139319000Y-129575339D01*
X139314535Y-129620674D01*
X139303101Y-129658367D01*
X139284534Y-129693103D01*
X139259548Y-129723548D01*
X139229103Y-129748534D01*
X139194367Y-129767101D01*
X139156674Y-129778535D01*
X139111339Y-129783000D01*
X138274661Y-129783000D01*
X138229326Y-129778535D01*
X138191633Y-129767101D01*
X138156897Y-129748534D01*
X138126452Y-129723548D01*
X138101466Y-129693103D01*
X138082899Y-129658367D01*
X138071465Y-129620674D01*
X138067000Y-129575339D01*
X138067000Y-128488661D01*
X138071465Y-128443326D01*
X138082899Y-128405633D01*
X138101466Y-128370897D01*
X138126452Y-128340452D01*
X138156897Y-128315466D01*
X138191633Y-128296899D01*
X138229326Y-128285465D01*
X138274661Y-128281000D01*
X139111339Y-128281000D01*
X139156674Y-128285465D01*
G37*
G36*
X154385674Y-128292465D02*
G01*
X154423367Y-128303899D01*
X154458103Y-128322466D01*
X154488548Y-128347452D01*
X154513534Y-128377897D01*
X154532101Y-128412633D01*
X154543535Y-128450326D01*
X154548000Y-128495661D01*
X154548000Y-129332339D01*
X154543535Y-129377674D01*
X154532101Y-129415367D01*
X154513534Y-129450103D01*
X154488548Y-129480548D01*
X154458103Y-129505534D01*
X154423367Y-129524101D01*
X154385674Y-129535535D01*
X154340339Y-129540000D01*
X153253661Y-129540000D01*
X153208326Y-129535535D01*
X153170633Y-129524101D01*
X153135897Y-129505534D01*
X153105452Y-129480548D01*
X153080466Y-129450103D01*
X153061899Y-129415367D01*
X153050465Y-129377674D01*
X153046000Y-129332339D01*
X153046000Y-128495661D01*
X153050465Y-128450326D01*
X153061899Y-128412633D01*
X153080466Y-128377897D01*
X153105452Y-128347452D01*
X153135897Y-128322466D01*
X153170633Y-128303899D01*
X153208326Y-128292465D01*
X153253661Y-128288000D01*
X154340339Y-128288000D01*
X154385674Y-128292465D01*
G37*
G36*
X157773000Y-126560000D02*
G01*
X157608660Y-126560000D01*
X157584274Y-126562402D01*
X157560825Y-126569515D01*
X157539214Y-126581066D01*
X157520272Y-126596611D01*
X157504727Y-126615553D01*
X157493176Y-126637164D01*
X157486063Y-126660613D01*
X157483661Y-126684999D01*
X157486063Y-126709385D01*
X157493176Y-126732834D01*
X157504727Y-126754445D01*
X157520272Y-126773387D01*
X157529345Y-126781609D01*
X157606264Y-126844736D01*
X157678244Y-126932443D01*
X157712429Y-126996399D01*
X157731728Y-127032505D01*
X157731729Y-127032508D01*
X157764666Y-127141084D01*
X157775787Y-127254000D01*
X157764666Y-127366916D01*
X157741242Y-127444131D01*
X157731728Y-127475495D01*
X157712429Y-127511601D01*
X157678244Y-127575557D01*
X157606264Y-127663264D01*
X157518557Y-127735244D01*
X157437141Y-127778761D01*
X157416766Y-127792375D01*
X157399439Y-127809702D01*
X157385826Y-127830076D01*
X157376448Y-127852715D01*
X157371668Y-127876748D01*
X157371668Y-127901252D01*
X157376448Y-127925285D01*
X157385826Y-127947924D01*
X157399440Y-127968299D01*
X157416767Y-127985626D01*
X157437141Y-127999239D01*
X157518557Y-128042756D01*
X157606264Y-128114736D01*
X157678244Y-128202443D01*
X157712429Y-128266399D01*
X157731728Y-128302505D01*
X157731729Y-128302508D01*
X157764666Y-128411084D01*
X157775787Y-128524000D01*
X157764666Y-128636916D01*
X157731729Y-128745492D01*
X157731728Y-128745495D01*
X157712429Y-128781601D01*
X157678244Y-128845557D01*
X157606264Y-128933264D01*
X157518557Y-129005244D01*
X157454601Y-129039429D01*
X157418495Y-129058728D01*
X157418492Y-129058729D01*
X157309916Y-129091666D01*
X157225298Y-129100000D01*
X156718702Y-129100000D01*
X156634084Y-129091666D01*
X156525508Y-129058729D01*
X156525505Y-129058728D01*
X156489399Y-129039429D01*
X156425443Y-129005244D01*
X156337736Y-128933264D01*
X156265756Y-128845557D01*
X156231571Y-128781601D01*
X156212272Y-128745495D01*
X156212271Y-128745492D01*
X156179334Y-128636916D01*
X156168213Y-128524000D01*
X156179334Y-128411084D01*
X156212271Y-128302508D01*
X156212272Y-128302505D01*
X156231571Y-128266399D01*
X156265756Y-128202443D01*
X156337736Y-128114736D01*
X156425443Y-128042756D01*
X156506859Y-127999239D01*
X156527234Y-127985625D01*
X156544561Y-127968298D01*
X156558174Y-127947924D01*
X156567552Y-127925285D01*
X156572332Y-127901252D01*
X156572332Y-127876748D01*
X156567552Y-127852715D01*
X156558174Y-127830076D01*
X156544560Y-127809701D01*
X156527233Y-127792374D01*
X156506859Y-127778761D01*
X156425443Y-127735244D01*
X156337736Y-127663264D01*
X156265756Y-127575557D01*
X156231571Y-127511601D01*
X156212272Y-127475495D01*
X156202758Y-127444131D01*
X156179334Y-127366916D01*
X156168213Y-127254000D01*
X156179334Y-127141084D01*
X156212271Y-127032508D01*
X156212272Y-127032505D01*
X156231571Y-126996399D01*
X156265756Y-126932443D01*
X156337736Y-126844736D01*
X156414646Y-126781617D01*
X156431965Y-126764298D01*
X156445579Y-126743923D01*
X156454957Y-126721284D01*
X156459737Y-126697251D01*
X156459737Y-126672747D01*
X156454957Y-126648714D01*
X156445579Y-126626075D01*
X156431966Y-126605701D01*
X156414639Y-126588374D01*
X156394264Y-126574760D01*
X156371625Y-126565382D01*
X156347592Y-126560602D01*
X156335340Y-126560000D01*
X156171000Y-126560000D01*
X156171000Y-125408000D01*
X157773000Y-125408000D01*
X157773000Y-126560000D01*
G37*
G36*
X154385674Y-126242465D02*
G01*
X154423367Y-126253899D01*
X154458103Y-126272466D01*
X154488548Y-126297452D01*
X154513534Y-126327897D01*
X154532101Y-126362633D01*
X154543535Y-126400326D01*
X154548000Y-126445661D01*
X154548000Y-127282339D01*
X154543535Y-127327674D01*
X154532101Y-127365367D01*
X154513534Y-127400103D01*
X154488548Y-127430548D01*
X154458103Y-127455534D01*
X154423367Y-127474101D01*
X154385674Y-127485535D01*
X154340339Y-127490000D01*
X153253661Y-127490000D01*
X153208326Y-127485535D01*
X153170633Y-127474101D01*
X153135897Y-127455534D01*
X153105452Y-127430548D01*
X153080466Y-127400103D01*
X153061899Y-127365367D01*
X153050465Y-127327674D01*
X153046000Y-127282339D01*
X153046000Y-126445661D01*
X153050465Y-126400326D01*
X153061899Y-126362633D01*
X153080466Y-126327897D01*
X153105452Y-126297452D01*
X153135897Y-126272466D01*
X153170633Y-126253899D01*
X153208326Y-126242465D01*
X153253661Y-126238000D01*
X154340339Y-126238000D01*
X154385674Y-126242465D01*
G37*
G36*
X134886778Y-123580547D02*
G01*
X135053224Y-123649491D01*
X135203022Y-123749583D01*
X135330417Y-123876978D01*
X135430509Y-124026776D01*
X135499453Y-124193222D01*
X135534600Y-124369918D01*
X135534600Y-124550082D01*
X135499453Y-124726778D01*
X135430509Y-124893224D01*
X135330417Y-125043022D01*
X135203022Y-125170417D01*
X135053224Y-125270509D01*
X134886778Y-125339453D01*
X134710082Y-125374600D01*
X134529918Y-125374600D01*
X134353222Y-125339453D01*
X134186776Y-125270509D01*
X134036978Y-125170417D01*
X133909583Y-125043022D01*
X133809491Y-124893224D01*
X133740547Y-124726778D01*
X133705400Y-124550082D01*
X133705400Y-124369918D01*
X133740547Y-124193222D01*
X133809491Y-124026776D01*
X133909583Y-123876978D01*
X134036978Y-123749583D01*
X134186776Y-123649491D01*
X134353222Y-123580547D01*
X134529918Y-123545400D01*
X134710082Y-123545400D01*
X134886778Y-123580547D01*
G37*
G36*
X150126778Y-123580547D02*
G01*
X150293224Y-123649491D01*
X150443022Y-123749583D01*
X150570417Y-123876978D01*
X150670509Y-124026776D01*
X150739453Y-124193222D01*
X150774600Y-124369918D01*
X150774600Y-124550082D01*
X150739453Y-124726778D01*
X150670509Y-124893224D01*
X150570417Y-125043022D01*
X150443022Y-125170417D01*
X150293224Y-125270509D01*
X150126778Y-125339453D01*
X149950082Y-125374600D01*
X149769918Y-125374600D01*
X149593222Y-125339453D01*
X149426776Y-125270509D01*
X149276978Y-125170417D01*
X149149583Y-125043022D01*
X149049491Y-124893224D01*
X148980547Y-124726778D01*
X148945400Y-124550082D01*
X148945400Y-124369918D01*
X148980547Y-124193222D01*
X149049491Y-124026776D01*
X149149583Y-123876978D01*
X149276978Y-123749583D01*
X149426776Y-123649491D01*
X149593222Y-123580547D01*
X149769918Y-123545400D01*
X149950082Y-123545400D01*
X150126778Y-123580547D01*
G37*
G36*
X154512674Y-123348465D02*
G01*
X154550367Y-123359899D01*
X154585103Y-123378466D01*
X154615548Y-123403452D01*
X154640534Y-123433897D01*
X154659101Y-123468633D01*
X154670535Y-123506326D01*
X154675000Y-123551661D01*
X154675000Y-124388339D01*
X154670535Y-124433674D01*
X154659101Y-124471367D01*
X154640534Y-124506103D01*
X154615548Y-124536548D01*
X154585103Y-124561534D01*
X154550367Y-124580101D01*
X154512674Y-124591535D01*
X154467339Y-124596000D01*
X153380661Y-124596000D01*
X153335326Y-124591535D01*
X153297633Y-124580101D01*
X153262897Y-124561534D01*
X153232452Y-124536548D01*
X153207466Y-124506103D01*
X153188899Y-124471367D01*
X153177465Y-124433674D01*
X153173000Y-124388339D01*
X153173000Y-123551661D01*
X153177465Y-123506326D01*
X153188899Y-123468633D01*
X153207466Y-123433897D01*
X153232452Y-123403452D01*
X153262897Y-123378466D01*
X153297633Y-123359899D01*
X153335326Y-123348465D01*
X153380661Y-123344000D01*
X154467339Y-123344000D01*
X154512674Y-123348465D01*
G37*
G36*
X170306793Y-120685625D02*
G01*
X170464903Y-120717075D01*
X170692571Y-120811378D01*
X170897466Y-120948285D01*
X171071715Y-121122534D01*
X171208622Y-121327429D01*
X171208623Y-121327431D01*
X171302925Y-121555097D01*
X171351000Y-121796786D01*
X171351000Y-122043214D01*
X171302925Y-122284903D01*
X171227796Y-122466282D01*
X171208622Y-122512571D01*
X171071715Y-122717466D01*
X170897466Y-122891715D01*
X170692571Y-123028622D01*
X170692570Y-123028623D01*
X170692569Y-123028623D01*
X170464903Y-123122925D01*
X170223214Y-123171000D01*
X169976786Y-123171000D01*
X169735097Y-123122925D01*
X169507431Y-123028623D01*
X169507430Y-123028623D01*
X169507429Y-123028622D01*
X169302534Y-122891715D01*
X169128285Y-122717466D01*
X168991378Y-122512571D01*
X168972205Y-122466282D01*
X168897075Y-122284903D01*
X168849000Y-122043214D01*
X168849000Y-121796786D01*
X168897075Y-121555097D01*
X168991377Y-121327431D01*
X168991378Y-121327429D01*
X169128285Y-121122534D01*
X169302534Y-120948285D01*
X169507429Y-120811378D01*
X169735097Y-120717075D01*
X169893207Y-120685625D01*
X169976786Y-120669000D01*
X170223214Y-120669000D01*
X170306793Y-120685625D01*
G37*
G36*
X166351000Y-123171000D02*
G01*
X163849000Y-123171000D01*
X163849000Y-120669000D01*
X166351000Y-120669000D01*
X166351000Y-123171000D01*
G37*
G36*
X157773000Y-120464000D02*
G01*
X157608660Y-120464000D01*
X157584274Y-120466402D01*
X157560825Y-120473515D01*
X157539214Y-120485066D01*
X157520272Y-120500611D01*
X157504727Y-120519553D01*
X157493176Y-120541164D01*
X157486063Y-120564613D01*
X157483661Y-120588999D01*
X157486063Y-120613385D01*
X157493176Y-120636834D01*
X157504727Y-120658445D01*
X157520272Y-120677387D01*
X157529345Y-120685609D01*
X157606264Y-120748736D01*
X157678244Y-120836443D01*
X157712429Y-120900399D01*
X157731728Y-120936505D01*
X157731729Y-120936508D01*
X157764666Y-121045084D01*
X157775787Y-121158000D01*
X157764666Y-121270916D01*
X157731729Y-121379492D01*
X157731728Y-121379495D01*
X157729375Y-121383897D01*
X157678244Y-121479557D01*
X157606264Y-121567264D01*
X157518557Y-121639244D01*
X157437141Y-121682761D01*
X157416766Y-121696375D01*
X157399439Y-121713702D01*
X157385826Y-121734076D01*
X157376448Y-121756715D01*
X157371668Y-121780748D01*
X157371668Y-121805252D01*
X157376448Y-121829285D01*
X157385826Y-121851924D01*
X157399440Y-121872299D01*
X157416767Y-121889626D01*
X157437141Y-121903239D01*
X157518557Y-121946756D01*
X157606264Y-122018736D01*
X157678244Y-122106443D01*
X157712429Y-122170399D01*
X157731728Y-122206505D01*
X157731729Y-122206508D01*
X157764666Y-122315084D01*
X157775787Y-122428000D01*
X157764666Y-122540916D01*
X157737515Y-122630417D01*
X157731728Y-122649495D01*
X157712429Y-122685601D01*
X157678244Y-122749557D01*
X157606264Y-122837264D01*
X157518557Y-122909244D01*
X157454601Y-122943429D01*
X157418495Y-122962728D01*
X157418492Y-122962729D01*
X157309916Y-122995666D01*
X157225298Y-123004000D01*
X156718702Y-123004000D01*
X156634084Y-122995666D01*
X156525508Y-122962729D01*
X156525505Y-122962728D01*
X156489399Y-122943429D01*
X156425443Y-122909244D01*
X156337736Y-122837264D01*
X156265756Y-122749557D01*
X156231571Y-122685601D01*
X156212272Y-122649495D01*
X156206485Y-122630417D01*
X156179334Y-122540916D01*
X156168213Y-122428000D01*
X156179334Y-122315084D01*
X156212271Y-122206508D01*
X156212272Y-122206505D01*
X156231571Y-122170399D01*
X156265756Y-122106443D01*
X156337736Y-122018736D01*
X156425443Y-121946756D01*
X156506859Y-121903239D01*
X156527234Y-121889625D01*
X156544561Y-121872298D01*
X156558174Y-121851924D01*
X156567552Y-121829285D01*
X156572332Y-121805252D01*
X156572332Y-121780748D01*
X156567552Y-121756715D01*
X156558174Y-121734076D01*
X156544560Y-121713701D01*
X156527233Y-121696374D01*
X156506859Y-121682761D01*
X156425443Y-121639244D01*
X156337736Y-121567264D01*
X156265756Y-121479557D01*
X156214625Y-121383897D01*
X156212272Y-121379495D01*
X156212271Y-121379492D01*
X156179334Y-121270916D01*
X156168213Y-121158000D01*
X156179334Y-121045084D01*
X156212271Y-120936508D01*
X156212272Y-120936505D01*
X156231571Y-120900399D01*
X156265756Y-120836443D01*
X156337736Y-120748736D01*
X156414646Y-120685617D01*
X156431965Y-120668298D01*
X156445579Y-120647923D01*
X156454957Y-120625284D01*
X156459737Y-120601251D01*
X156459737Y-120576747D01*
X156454957Y-120552714D01*
X156445579Y-120530075D01*
X156431966Y-120509701D01*
X156414639Y-120492374D01*
X156394264Y-120478760D01*
X156371625Y-120469382D01*
X156347592Y-120464602D01*
X156335340Y-120464000D01*
X156171000Y-120464000D01*
X156171000Y-119312000D01*
X157773000Y-119312000D01*
X157773000Y-120464000D01*
G37*
G36*
X150126778Y-121040547D02*
G01*
X150293224Y-121109491D01*
X150443022Y-121209583D01*
X150570417Y-121336978D01*
X150670509Y-121486776D01*
X150739453Y-121653222D01*
X150774600Y-121829918D01*
X150774600Y-122010082D01*
X150739453Y-122186778D01*
X150670509Y-122353224D01*
X150570417Y-122503022D01*
X150443022Y-122630417D01*
X150293224Y-122730509D01*
X150126778Y-122799453D01*
X149950082Y-122834600D01*
X149769918Y-122834600D01*
X149593222Y-122799453D01*
X149426776Y-122730509D01*
X149276978Y-122630417D01*
X149149583Y-122503022D01*
X149049491Y-122353224D01*
X148980547Y-122186778D01*
X148945400Y-122010082D01*
X148945400Y-121829918D01*
X148980547Y-121653222D01*
X149049491Y-121486776D01*
X149149583Y-121336978D01*
X149276978Y-121209583D01*
X149426776Y-121109491D01*
X149593222Y-121040547D01*
X149769918Y-121005400D01*
X149950082Y-121005400D01*
X150126778Y-121040547D01*
G37*
G36*
X134886778Y-121040547D02*
G01*
X135053224Y-121109491D01*
X135203022Y-121209583D01*
X135330417Y-121336978D01*
X135430509Y-121486776D01*
X135499453Y-121653222D01*
X135534600Y-121829918D01*
X135534600Y-122010082D01*
X135499453Y-122186778D01*
X135430509Y-122353224D01*
X135330417Y-122503022D01*
X135203022Y-122630417D01*
X135053224Y-122730509D01*
X134886778Y-122799453D01*
X134710082Y-122834600D01*
X134529918Y-122834600D01*
X134353222Y-122799453D01*
X134186776Y-122730509D01*
X134036978Y-122630417D01*
X133909583Y-122503022D01*
X133809491Y-122353224D01*
X133740547Y-122186778D01*
X133705400Y-122010082D01*
X133705400Y-121829918D01*
X133740547Y-121653222D01*
X133809491Y-121486776D01*
X133909583Y-121336978D01*
X134036978Y-121209583D01*
X134186776Y-121109491D01*
X134353222Y-121040547D01*
X134529918Y-121005400D01*
X134710082Y-121005400D01*
X134886778Y-121040547D01*
G37*
G36*
X154512674Y-121298465D02*
G01*
X154550367Y-121309899D01*
X154585103Y-121328466D01*
X154615548Y-121353452D01*
X154640534Y-121383897D01*
X154659101Y-121418633D01*
X154670535Y-121456326D01*
X154675000Y-121501661D01*
X154675000Y-122338339D01*
X154670535Y-122383674D01*
X154659101Y-122421367D01*
X154640534Y-122456103D01*
X154615548Y-122486548D01*
X154585103Y-122511534D01*
X154550367Y-122530101D01*
X154512674Y-122541535D01*
X154467339Y-122546000D01*
X153380661Y-122546000D01*
X153335326Y-122541535D01*
X153297633Y-122530101D01*
X153262897Y-122511534D01*
X153232452Y-122486548D01*
X153207466Y-122456103D01*
X153188899Y-122421367D01*
X153177465Y-122383674D01*
X153173000Y-122338339D01*
X153173000Y-121501661D01*
X153177465Y-121456326D01*
X153188899Y-121418633D01*
X153207466Y-121383897D01*
X153232452Y-121353452D01*
X153262897Y-121328466D01*
X153297633Y-121309899D01*
X153335326Y-121298465D01*
X153380661Y-121294000D01*
X154467339Y-121294000D01*
X154512674Y-121298465D01*
G37*
G36*
X150126778Y-118500547D02*
G01*
X150293224Y-118569491D01*
X150443022Y-118669583D01*
X150570417Y-118796978D01*
X150670509Y-118946776D01*
X150739453Y-119113222D01*
X150774600Y-119289918D01*
X150774600Y-119470082D01*
X150739453Y-119646778D01*
X150670509Y-119813224D01*
X150570417Y-119963022D01*
X150443022Y-120090417D01*
X150293224Y-120190509D01*
X150126778Y-120259453D01*
X149950082Y-120294600D01*
X149769918Y-120294600D01*
X149593222Y-120259453D01*
X149426776Y-120190509D01*
X149276978Y-120090417D01*
X149149583Y-119963022D01*
X149049491Y-119813224D01*
X148980547Y-119646778D01*
X148945400Y-119470082D01*
X148945400Y-119289918D01*
X148980547Y-119113222D01*
X149049491Y-118946776D01*
X149149583Y-118796978D01*
X149276978Y-118669583D01*
X149426776Y-118569491D01*
X149593222Y-118500547D01*
X149769918Y-118465400D01*
X149950082Y-118465400D01*
X150126778Y-118500547D01*
G37*
G36*
X134886778Y-118500547D02*
G01*
X135053224Y-118569491D01*
X135203022Y-118669583D01*
X135330417Y-118796978D01*
X135430509Y-118946776D01*
X135499453Y-119113222D01*
X135534600Y-119289918D01*
X135534600Y-119470082D01*
X135499453Y-119646778D01*
X135430509Y-119813224D01*
X135330417Y-119963022D01*
X135203022Y-120090417D01*
X135053224Y-120190509D01*
X134886778Y-120259453D01*
X134710082Y-120294600D01*
X134529918Y-120294600D01*
X134353222Y-120259453D01*
X134186776Y-120190509D01*
X134036978Y-120090417D01*
X133909583Y-119963022D01*
X133809491Y-119813224D01*
X133740547Y-119646778D01*
X133705400Y-119470082D01*
X133705400Y-119289918D01*
X133740547Y-119113222D01*
X133809491Y-118946776D01*
X133909583Y-118796978D01*
X134036978Y-118669583D01*
X134186776Y-118569491D01*
X134353222Y-118500547D01*
X134529918Y-118465400D01*
X134710082Y-118465400D01*
X134886778Y-118500547D01*
G37*
G36*
X150126778Y-115960547D02*
G01*
X150293224Y-116029491D01*
X150443022Y-116129583D01*
X150570417Y-116256978D01*
X150670509Y-116406776D01*
X150739453Y-116573222D01*
X150774600Y-116749918D01*
X150774600Y-116930082D01*
X150739453Y-117106778D01*
X150670509Y-117273224D01*
X150570417Y-117423022D01*
X150443022Y-117550417D01*
X150293224Y-117650509D01*
X150126778Y-117719453D01*
X149950082Y-117754600D01*
X149769918Y-117754600D01*
X149593222Y-117719453D01*
X149426776Y-117650509D01*
X149276978Y-117550417D01*
X149149583Y-117423022D01*
X149049491Y-117273224D01*
X148980547Y-117106778D01*
X148945400Y-116930082D01*
X148945400Y-116749918D01*
X148980547Y-116573222D01*
X149049491Y-116406776D01*
X149149583Y-116256978D01*
X149276978Y-116129583D01*
X149426776Y-116029491D01*
X149593222Y-115960547D01*
X149769918Y-115925400D01*
X149950082Y-115925400D01*
X150126778Y-115960547D01*
G37*
G36*
X134886778Y-115960547D02*
G01*
X135053224Y-116029491D01*
X135203022Y-116129583D01*
X135330417Y-116256978D01*
X135430509Y-116406776D01*
X135499453Y-116573222D01*
X135534600Y-116749918D01*
X135534600Y-116930082D01*
X135499453Y-117106778D01*
X135430509Y-117273224D01*
X135330417Y-117423022D01*
X135203022Y-117550417D01*
X135053224Y-117650509D01*
X134886778Y-117719453D01*
X134710082Y-117754600D01*
X134529918Y-117754600D01*
X134353222Y-117719453D01*
X134186776Y-117650509D01*
X134036978Y-117550417D01*
X133909583Y-117423022D01*
X133809491Y-117273224D01*
X133740547Y-117106778D01*
X133705400Y-116930082D01*
X133705400Y-116749918D01*
X133740547Y-116573222D01*
X133809491Y-116406776D01*
X133909583Y-116256978D01*
X134036978Y-116129583D01*
X134186776Y-116029491D01*
X134353222Y-115960547D01*
X134529918Y-115925400D01*
X134710082Y-115925400D01*
X134886778Y-115960547D01*
G37*
G36*
X159984674Y-114061465D02*
G01*
X160022367Y-114072899D01*
X160057103Y-114091466D01*
X160087548Y-114116452D01*
X160112534Y-114146897D01*
X160131101Y-114181633D01*
X160142535Y-114219326D01*
X160147000Y-114264661D01*
X160147000Y-115351339D01*
X160142535Y-115396674D01*
X160131101Y-115434367D01*
X160112534Y-115469103D01*
X160087548Y-115499548D01*
X160057103Y-115524534D01*
X160022367Y-115543101D01*
X159984674Y-115554535D01*
X159939339Y-115559000D01*
X159102661Y-115559000D01*
X159057326Y-115554535D01*
X159019633Y-115543101D01*
X158984897Y-115524534D01*
X158954452Y-115499548D01*
X158929466Y-115469103D01*
X158910899Y-115434367D01*
X158899465Y-115396674D01*
X158895000Y-115351339D01*
X158895000Y-114264661D01*
X158899465Y-114219326D01*
X158910899Y-114181633D01*
X158929466Y-114146897D01*
X158954452Y-114116452D01*
X158984897Y-114091466D01*
X159019633Y-114072899D01*
X159057326Y-114061465D01*
X159102661Y-114057000D01*
X159939339Y-114057000D01*
X159984674Y-114061465D01*
G37*
G36*
X157934674Y-114061465D02*
G01*
X157972367Y-114072899D01*
X158007103Y-114091466D01*
X158037548Y-114116452D01*
X158062534Y-114146897D01*
X158081101Y-114181633D01*
X158092535Y-114219326D01*
X158097000Y-114264661D01*
X158097000Y-115351339D01*
X158092535Y-115396674D01*
X158081101Y-115434367D01*
X158062534Y-115469103D01*
X158037548Y-115499548D01*
X158007103Y-115524534D01*
X157972367Y-115543101D01*
X157934674Y-115554535D01*
X157889339Y-115559000D01*
X157052661Y-115559000D01*
X157007326Y-115554535D01*
X156969633Y-115543101D01*
X156934897Y-115524534D01*
X156904452Y-115499548D01*
X156879466Y-115469103D01*
X156860899Y-115434367D01*
X156849465Y-115396674D01*
X156845000Y-115351339D01*
X156845000Y-114264661D01*
X156849465Y-114219326D01*
X156860899Y-114181633D01*
X156879466Y-114146897D01*
X156904452Y-114116452D01*
X156934897Y-114091466D01*
X156969633Y-114072899D01*
X157007326Y-114061465D01*
X157052661Y-114057000D01*
X157889339Y-114057000D01*
X157934674Y-114061465D01*
G37*
G36*
X134886778Y-113420547D02*
G01*
X135053224Y-113489491D01*
X135203022Y-113589583D01*
X135330417Y-113716978D01*
X135430509Y-113866776D01*
X135499453Y-114033222D01*
X135534600Y-114209918D01*
X135534600Y-114390082D01*
X135499453Y-114566778D01*
X135430509Y-114733224D01*
X135330417Y-114883022D01*
X135203022Y-115010417D01*
X135053224Y-115110509D01*
X134886778Y-115179453D01*
X134710082Y-115214600D01*
X134529918Y-115214600D01*
X134353222Y-115179453D01*
X134186776Y-115110509D01*
X134036978Y-115010417D01*
X133909583Y-114883022D01*
X133809491Y-114733224D01*
X133740547Y-114566778D01*
X133705400Y-114390082D01*
X133705400Y-114209918D01*
X133740547Y-114033222D01*
X133809491Y-113866776D01*
X133909583Y-113716978D01*
X134036978Y-113589583D01*
X134186776Y-113489491D01*
X134353222Y-113420547D01*
X134529918Y-113385400D01*
X134710082Y-113385400D01*
X134886778Y-113420547D01*
G37*
G36*
X150126778Y-113420547D02*
G01*
X150293224Y-113489491D01*
X150443022Y-113589583D01*
X150570417Y-113716978D01*
X150670509Y-113866776D01*
X150739453Y-114033222D01*
X150774600Y-114209918D01*
X150774600Y-114390082D01*
X150739453Y-114566778D01*
X150670509Y-114733224D01*
X150570417Y-114883022D01*
X150443022Y-115010417D01*
X150293224Y-115110509D01*
X150126778Y-115179453D01*
X149950082Y-115214600D01*
X149769918Y-115214600D01*
X149593222Y-115179453D01*
X149426776Y-115110509D01*
X149276978Y-115010417D01*
X149149583Y-114883022D01*
X149049491Y-114733224D01*
X148980547Y-114566778D01*
X148945400Y-114390082D01*
X148945400Y-114209918D01*
X148980547Y-114033222D01*
X149049491Y-113866776D01*
X149149583Y-113716978D01*
X149276978Y-113589583D01*
X149426776Y-113489491D01*
X149593222Y-113420547D01*
X149769918Y-113385400D01*
X149950082Y-113385400D01*
X150126778Y-113420547D01*
G37*
G36*
X160300098Y-110084362D02*
G01*
X160421382Y-110134600D01*
X160424943Y-110136075D01*
X160537299Y-110211149D01*
X160632851Y-110306701D01*
X160650915Y-110333735D01*
X160707926Y-110419059D01*
X160759638Y-110543902D01*
X160786000Y-110676434D01*
X160786000Y-110811566D01*
X160759191Y-110946346D01*
X160753402Y-110965429D01*
X160751000Y-110989816D01*
X160751000Y-112795000D01*
X159449000Y-112795000D01*
X159449000Y-110989816D01*
X159446598Y-110965430D01*
X159440809Y-110946346D01*
X159414000Y-110811566D01*
X159414000Y-110676434D01*
X159440362Y-110543902D01*
X159492074Y-110419059D01*
X159549086Y-110333735D01*
X159567149Y-110306701D01*
X159662701Y-110211149D01*
X159775057Y-110136075D01*
X159778618Y-110134600D01*
X159899902Y-110084362D01*
X160032434Y-110058000D01*
X160167566Y-110058000D01*
X160300098Y-110084362D01*
G37*
G36*
X158300098Y-110084362D02*
G01*
X158421382Y-110134600D01*
X158424943Y-110136075D01*
X158537299Y-110211149D01*
X158632851Y-110306701D01*
X158650915Y-110333735D01*
X158707926Y-110419059D01*
X158759638Y-110543902D01*
X158786000Y-110676434D01*
X158786000Y-110811566D01*
X158759191Y-110946346D01*
X158753402Y-110965429D01*
X158751000Y-110989816D01*
X158751000Y-112795000D01*
X157449000Y-112795000D01*
X157449000Y-110989816D01*
X157446598Y-110965430D01*
X157440809Y-110946346D01*
X157414000Y-110811566D01*
X157414000Y-110676434D01*
X157440362Y-110543902D01*
X157492074Y-110419059D01*
X157549086Y-110333735D01*
X157567149Y-110306701D01*
X157662701Y-110211149D01*
X157775057Y-110136075D01*
X157778618Y-110134600D01*
X157899902Y-110084362D01*
X158032434Y-110058000D01*
X158167566Y-110058000D01*
X158300098Y-110084362D01*
G37*
G36*
X162300098Y-110084362D02*
G01*
X162421382Y-110134600D01*
X162424943Y-110136075D01*
X162537299Y-110211149D01*
X162632851Y-110306701D01*
X162650915Y-110333735D01*
X162707926Y-110419059D01*
X162759638Y-110543902D01*
X162786000Y-110676434D01*
X162786000Y-110811566D01*
X162759191Y-110946346D01*
X162753402Y-110965429D01*
X162751000Y-110989816D01*
X162751000Y-112795000D01*
X161449000Y-112795000D01*
X161449000Y-110989816D01*
X161446598Y-110965430D01*
X161440809Y-110946346D01*
X161414000Y-110811566D01*
X161414000Y-110676434D01*
X161440362Y-110543902D01*
X161492074Y-110419059D01*
X161549086Y-110333735D01*
X161567149Y-110306701D01*
X161662701Y-110211149D01*
X161775057Y-110136075D01*
X161778618Y-110134600D01*
X161899902Y-110084362D01*
X162032434Y-110058000D01*
X162167566Y-110058000D01*
X162300098Y-110084362D01*
G37*
G36*
X164300098Y-110084362D02*
G01*
X164421382Y-110134600D01*
X164424943Y-110136075D01*
X164537299Y-110211149D01*
X164632851Y-110306701D01*
X164650915Y-110333735D01*
X164707926Y-110419059D01*
X164759638Y-110543902D01*
X164786000Y-110676434D01*
X164786000Y-110811566D01*
X164759191Y-110946346D01*
X164753402Y-110965429D01*
X164751000Y-110989816D01*
X164751000Y-112795000D01*
X163449000Y-112795000D01*
X163449000Y-110989816D01*
X163446598Y-110965430D01*
X163440809Y-110946346D01*
X163414000Y-110811566D01*
X163414000Y-110676434D01*
X163440362Y-110543902D01*
X163492074Y-110419059D01*
X163549086Y-110333735D01*
X163567149Y-110306701D01*
X163662701Y-110211149D01*
X163775057Y-110136075D01*
X163778618Y-110134600D01*
X163899902Y-110084362D01*
X164032434Y-110058000D01*
X164167566Y-110058000D01*
X164300098Y-110084362D01*
G37*
G36*
X166300098Y-110084362D02*
G01*
X166421382Y-110134600D01*
X166424943Y-110136075D01*
X166537299Y-110211149D01*
X166632851Y-110306701D01*
X166650915Y-110333735D01*
X166707926Y-110419059D01*
X166759638Y-110543902D01*
X166786000Y-110676434D01*
X166786000Y-110811566D01*
X166759191Y-110946346D01*
X166753402Y-110965429D01*
X166751000Y-110989816D01*
X166751000Y-112795000D01*
X165449000Y-112795000D01*
X165449000Y-110989816D01*
X165446598Y-110965430D01*
X165440809Y-110946346D01*
X165414000Y-110811566D01*
X165414000Y-110676434D01*
X165440362Y-110543902D01*
X165492074Y-110419059D01*
X165549086Y-110333735D01*
X165567149Y-110306701D01*
X165662701Y-110211149D01*
X165775057Y-110136075D01*
X165778618Y-110134600D01*
X165899902Y-110084362D01*
X166032434Y-110058000D01*
X166167566Y-110058000D01*
X166300098Y-110084362D01*
G37*
G36*
X168300098Y-110084362D02*
G01*
X168421382Y-110134600D01*
X168424943Y-110136075D01*
X168537299Y-110211149D01*
X168632851Y-110306701D01*
X168650915Y-110333735D01*
X168707926Y-110419059D01*
X168759638Y-110543902D01*
X168786000Y-110676434D01*
X168786000Y-110811566D01*
X168759191Y-110946346D01*
X168753402Y-110965429D01*
X168751000Y-110989816D01*
X168751000Y-112795000D01*
X167449000Y-112795000D01*
X167449000Y-110989816D01*
X167446598Y-110965430D01*
X167440809Y-110946346D01*
X167414000Y-110811566D01*
X167414000Y-110676434D01*
X167440362Y-110543902D01*
X167492074Y-110419059D01*
X167549086Y-110333735D01*
X167567149Y-110306701D01*
X167662701Y-110211149D01*
X167775057Y-110136075D01*
X167778618Y-110134600D01*
X167899902Y-110084362D01*
X168032434Y-110058000D01*
X168167566Y-110058000D01*
X168300098Y-110084362D01*
G37*
G36*
X170300098Y-110084362D02*
G01*
X170421382Y-110134600D01*
X170424943Y-110136075D01*
X170537299Y-110211149D01*
X170632851Y-110306701D01*
X170650915Y-110333735D01*
X170707926Y-110419059D01*
X170759638Y-110543902D01*
X170786000Y-110676434D01*
X170786000Y-110811566D01*
X170759191Y-110946346D01*
X170753402Y-110965429D01*
X170751000Y-110989816D01*
X170751000Y-112795000D01*
X169449000Y-112795000D01*
X169449000Y-110989816D01*
X169446598Y-110965430D01*
X169440809Y-110946346D01*
X169414000Y-110811566D01*
X169414000Y-110676434D01*
X169440362Y-110543902D01*
X169492074Y-110419059D01*
X169549086Y-110333735D01*
X169567149Y-110306701D01*
X169662701Y-110211149D01*
X169775057Y-110136075D01*
X169778618Y-110134600D01*
X169899902Y-110084362D01*
X170032434Y-110058000D01*
X170167566Y-110058000D01*
X170300098Y-110084362D01*
G37*
G36*
X172300098Y-110084362D02*
G01*
X172421382Y-110134600D01*
X172424943Y-110136075D01*
X172537299Y-110211149D01*
X172632851Y-110306701D01*
X172650915Y-110333735D01*
X172707926Y-110419059D01*
X172759638Y-110543902D01*
X172786000Y-110676434D01*
X172786000Y-110811566D01*
X172759191Y-110946346D01*
X172753402Y-110965429D01*
X172751000Y-110989816D01*
X172751000Y-112795000D01*
X171449000Y-112795000D01*
X171449000Y-110989816D01*
X171446598Y-110965430D01*
X171440809Y-110946346D01*
X171414000Y-110811566D01*
X171414000Y-110676434D01*
X171440362Y-110543902D01*
X171492074Y-110419059D01*
X171549086Y-110333735D01*
X171567149Y-110306701D01*
X171662701Y-110211149D01*
X171775057Y-110136075D01*
X171778618Y-110134600D01*
X171899902Y-110084362D01*
X172032434Y-110058000D01*
X172167566Y-110058000D01*
X172300098Y-110084362D01*
G37*
G36*
X134886778Y-110880547D02*
G01*
X135053224Y-110949491D01*
X135203022Y-111049583D01*
X135330417Y-111176978D01*
X135430509Y-111326776D01*
X135499453Y-111493222D01*
X135534600Y-111669918D01*
X135534600Y-111850082D01*
X135499453Y-112026778D01*
X135430509Y-112193224D01*
X135330417Y-112343022D01*
X135203022Y-112470417D01*
X135053224Y-112570509D01*
X134886778Y-112639453D01*
X134710082Y-112674600D01*
X134529918Y-112674600D01*
X134353222Y-112639453D01*
X134186776Y-112570509D01*
X134036978Y-112470417D01*
X133909583Y-112343022D01*
X133809491Y-112193224D01*
X133740547Y-112026778D01*
X133705400Y-111850082D01*
X133705400Y-111669918D01*
X133740547Y-111493222D01*
X133809491Y-111326776D01*
X133909583Y-111176978D01*
X134036978Y-111049583D01*
X134186776Y-110949491D01*
X134353222Y-110880547D01*
X134529918Y-110845400D01*
X134710082Y-110845400D01*
X134886778Y-110880547D01*
G37*
G36*
X150126778Y-110880547D02*
G01*
X150293224Y-110949491D01*
X150443022Y-111049583D01*
X150570417Y-111176978D01*
X150670509Y-111326776D01*
X150739453Y-111493222D01*
X150774600Y-111669918D01*
X150774600Y-111850082D01*
X150739453Y-112026778D01*
X150670509Y-112193224D01*
X150570417Y-112343022D01*
X150443022Y-112470417D01*
X150293224Y-112570509D01*
X150126778Y-112639453D01*
X149950082Y-112674600D01*
X149769918Y-112674600D01*
X149593222Y-112639453D01*
X149426776Y-112570509D01*
X149276978Y-112470417D01*
X149149583Y-112343022D01*
X149049491Y-112193224D01*
X148980547Y-112026778D01*
X148945400Y-111850082D01*
X148945400Y-111669918D01*
X148980547Y-111493222D01*
X149049491Y-111326776D01*
X149149583Y-111176978D01*
X149276978Y-111049583D01*
X149426776Y-110949491D01*
X149593222Y-110880547D01*
X149769918Y-110845400D01*
X149950082Y-110845400D01*
X150126778Y-110880547D01*
G37*
G36*
X143714268Y-109129918D02*
G01*
X143729059Y-109132860D01*
X143865732Y-109189472D01*
X143988735Y-109271660D01*
X144093340Y-109376265D01*
X144093341Y-109376267D01*
X144175529Y-109499270D01*
X144232140Y-109635941D01*
X144261000Y-109781032D01*
X144261000Y-109928968D01*
X144232140Y-110074059D01*
X144206453Y-110136074D01*
X144175528Y-110210732D01*
X144093340Y-110333735D01*
X143988735Y-110438340D01*
X143865732Y-110520528D01*
X143865731Y-110520529D01*
X143865730Y-110520529D01*
X143729059Y-110577140D01*
X143583968Y-110606000D01*
X143436032Y-110606000D01*
X143290941Y-110577140D01*
X143154270Y-110520529D01*
X143154269Y-110520529D01*
X143154268Y-110520528D01*
X143031265Y-110438340D01*
X142926660Y-110333735D01*
X142844472Y-110210732D01*
X142813548Y-110136074D01*
X142787860Y-110074059D01*
X142759000Y-109928968D01*
X142759000Y-109781032D01*
X142787860Y-109635941D01*
X142844471Y-109499270D01*
X142926659Y-109376267D01*
X142926660Y-109376265D01*
X143031265Y-109271660D01*
X143154268Y-109189472D01*
X143290941Y-109132860D01*
X143305732Y-109129918D01*
X143436032Y-109104000D01*
X143583968Y-109104000D01*
X143714268Y-109129918D01*
G37*
G36*
X141174268Y-109129918D02*
G01*
X141189059Y-109132860D01*
X141325732Y-109189472D01*
X141448735Y-109271660D01*
X141553340Y-109376265D01*
X141553341Y-109376267D01*
X141635529Y-109499270D01*
X141692140Y-109635941D01*
X141721000Y-109781032D01*
X141721000Y-109928968D01*
X141692140Y-110074059D01*
X141666453Y-110136074D01*
X141635528Y-110210732D01*
X141553340Y-110333735D01*
X141448735Y-110438340D01*
X141325732Y-110520528D01*
X141325731Y-110520529D01*
X141325730Y-110520529D01*
X141189059Y-110577140D01*
X141043968Y-110606000D01*
X140896032Y-110606000D01*
X140750941Y-110577140D01*
X140614270Y-110520529D01*
X140614269Y-110520529D01*
X140614268Y-110520528D01*
X140491265Y-110438340D01*
X140386660Y-110333735D01*
X140304472Y-110210732D01*
X140273548Y-110136074D01*
X140247860Y-110074059D01*
X140219000Y-109928968D01*
X140219000Y-109781032D01*
X140247860Y-109635941D01*
X140304471Y-109499270D01*
X140386659Y-109376267D01*
X140386660Y-109376265D01*
X140491265Y-109271660D01*
X140614268Y-109189472D01*
X140750941Y-109132860D01*
X140765732Y-109129918D01*
X140896032Y-109104000D01*
X141043968Y-109104000D01*
X141174268Y-109129918D01*
G37*
G36*
X134886778Y-108340547D02*
G01*
X135053224Y-108409491D01*
X135203022Y-108509583D01*
X135330417Y-108636978D01*
X135430509Y-108786776D01*
X135499453Y-108953222D01*
X135534600Y-109129918D01*
X135534600Y-109310082D01*
X135499453Y-109486778D01*
X135430509Y-109653224D01*
X135330417Y-109803022D01*
X135203022Y-109930417D01*
X135053224Y-110030509D01*
X134886778Y-110099453D01*
X134710082Y-110134600D01*
X134529918Y-110134600D01*
X134353222Y-110099453D01*
X134186776Y-110030509D01*
X134036978Y-109930417D01*
X133909583Y-109803022D01*
X133809491Y-109653224D01*
X133740547Y-109486778D01*
X133705400Y-109310082D01*
X133705400Y-109129918D01*
X133740547Y-108953222D01*
X133809491Y-108786776D01*
X133909583Y-108636978D01*
X134036978Y-108509583D01*
X134186776Y-108409491D01*
X134353222Y-108340547D01*
X134529918Y-108305400D01*
X134710082Y-108305400D01*
X134886778Y-108340547D01*
G37*
G36*
X150126778Y-108340547D02*
G01*
X150293224Y-108409491D01*
X150443022Y-108509583D01*
X150570417Y-108636978D01*
X150670509Y-108786776D01*
X150739453Y-108953222D01*
X150774600Y-109129918D01*
X150774600Y-109310082D01*
X150739453Y-109486778D01*
X150670509Y-109653224D01*
X150570417Y-109803022D01*
X150443022Y-109930417D01*
X150293224Y-110030509D01*
X150126778Y-110099453D01*
X149950082Y-110134600D01*
X149769918Y-110134600D01*
X149593222Y-110099453D01*
X149426776Y-110030509D01*
X149276978Y-109930417D01*
X149149583Y-109803022D01*
X149049491Y-109653224D01*
X148980547Y-109486778D01*
X148945400Y-109310082D01*
X148945400Y-109129918D01*
X148980547Y-108953222D01*
X149049491Y-108786776D01*
X149149583Y-108636978D01*
X149276978Y-108509583D01*
X149426776Y-108409491D01*
X149593222Y-108340547D01*
X149769918Y-108305400D01*
X149950082Y-108305400D01*
X150126778Y-108340547D01*
G37*
G36*
X143714268Y-106589918D02*
G01*
X143729059Y-106592860D01*
X143865732Y-106649472D01*
X143988735Y-106731660D01*
X144093340Y-106836265D01*
X144093341Y-106836267D01*
X144175529Y-106959270D01*
X144232140Y-107095941D01*
X144261000Y-107241032D01*
X144261000Y-107388968D01*
X144232140Y-107534059D01*
X144175528Y-107670732D01*
X144093340Y-107793735D01*
X143988735Y-107898340D01*
X143865732Y-107980528D01*
X143865731Y-107980529D01*
X143865730Y-107980529D01*
X143729059Y-108037140D01*
X143583968Y-108066000D01*
X143436032Y-108066000D01*
X143290941Y-108037140D01*
X143154270Y-107980529D01*
X143154269Y-107980529D01*
X143154268Y-107980528D01*
X143031265Y-107898340D01*
X142926660Y-107793735D01*
X142844472Y-107670732D01*
X142787860Y-107534059D01*
X142759000Y-107388968D01*
X142759000Y-107241032D01*
X142787860Y-107095941D01*
X142844471Y-106959270D01*
X142926659Y-106836267D01*
X142926660Y-106836265D01*
X143031265Y-106731660D01*
X143154268Y-106649472D01*
X143290941Y-106592860D01*
X143305732Y-106589918D01*
X143436032Y-106564000D01*
X143583968Y-106564000D01*
X143714268Y-106589918D01*
G37*
G36*
X141174268Y-106589918D02*
G01*
X141189059Y-106592860D01*
X141325732Y-106649472D01*
X141448735Y-106731660D01*
X141553340Y-106836265D01*
X141553341Y-106836267D01*
X141635529Y-106959270D01*
X141692140Y-107095941D01*
X141721000Y-107241032D01*
X141721000Y-107388968D01*
X141692140Y-107534059D01*
X141635528Y-107670732D01*
X141553340Y-107793735D01*
X141448735Y-107898340D01*
X141325732Y-107980528D01*
X141325731Y-107980529D01*
X141325730Y-107980529D01*
X141189059Y-108037140D01*
X141043968Y-108066000D01*
X140896032Y-108066000D01*
X140750941Y-108037140D01*
X140614270Y-107980529D01*
X140614269Y-107980529D01*
X140614268Y-107980528D01*
X140491265Y-107898340D01*
X140386660Y-107793735D01*
X140304472Y-107670732D01*
X140247860Y-107534059D01*
X140219000Y-107388968D01*
X140219000Y-107241032D01*
X140247860Y-107095941D01*
X140304471Y-106959270D01*
X140386659Y-106836267D01*
X140386660Y-106836265D01*
X140491265Y-106731660D01*
X140614268Y-106649472D01*
X140750941Y-106592860D01*
X140765732Y-106589918D01*
X140896032Y-106564000D01*
X141043968Y-106564000D01*
X141174268Y-106589918D01*
G37*
G36*
X150126778Y-105800547D02*
G01*
X150293224Y-105869491D01*
X150443022Y-105969583D01*
X150570417Y-106096978D01*
X150670509Y-106246776D01*
X150739453Y-106413222D01*
X150774600Y-106589918D01*
X150774600Y-106770082D01*
X150739453Y-106946778D01*
X150670509Y-107113224D01*
X150570417Y-107263022D01*
X150443022Y-107390417D01*
X150293224Y-107490509D01*
X150126778Y-107559453D01*
X149950082Y-107594600D01*
X149769918Y-107594600D01*
X149593222Y-107559453D01*
X149426776Y-107490509D01*
X149276978Y-107390417D01*
X149149583Y-107263022D01*
X149049491Y-107113224D01*
X148980547Y-106946778D01*
X148945400Y-106770082D01*
X148945400Y-106589918D01*
X148980547Y-106413222D01*
X149049491Y-106246776D01*
X149149583Y-106096978D01*
X149276978Y-105969583D01*
X149426776Y-105869491D01*
X149593222Y-105800547D01*
X149769918Y-105765400D01*
X149950082Y-105765400D01*
X150126778Y-105800547D01*
G37*
G36*
X134886778Y-105800547D02*
G01*
X135053224Y-105869491D01*
X135203022Y-105969583D01*
X135330417Y-106096978D01*
X135430509Y-106246776D01*
X135499453Y-106413222D01*
X135534600Y-106589918D01*
X135534600Y-106770082D01*
X135499453Y-106946778D01*
X135430509Y-107113224D01*
X135330417Y-107263022D01*
X135203022Y-107390417D01*
X135053224Y-107490509D01*
X134886778Y-107559453D01*
X134710082Y-107594600D01*
X134529918Y-107594600D01*
X134353222Y-107559453D01*
X134186776Y-107490509D01*
X134036978Y-107390417D01*
X133909583Y-107263022D01*
X133809491Y-107113224D01*
X133740547Y-106946778D01*
X133705400Y-106770082D01*
X133705400Y-106589918D01*
X133740547Y-106413222D01*
X133809491Y-106246776D01*
X133909583Y-106096978D01*
X134036978Y-105969583D01*
X134186776Y-105869491D01*
X134353222Y-105800547D01*
X134529918Y-105765400D01*
X134710082Y-105765400D01*
X134886778Y-105800547D01*
G37*
G36*
X141174268Y-104049918D02*
G01*
X141189059Y-104052860D01*
X141325732Y-104109472D01*
X141448735Y-104191660D01*
X141553340Y-104296265D01*
X141553341Y-104296267D01*
X141635529Y-104419270D01*
X141692140Y-104555941D01*
X141721000Y-104701032D01*
X141721000Y-104848968D01*
X141692140Y-104994059D01*
X141635528Y-105130732D01*
X141553340Y-105253735D01*
X141448735Y-105358340D01*
X141325732Y-105440528D01*
X141325731Y-105440529D01*
X141325730Y-105440529D01*
X141189059Y-105497140D01*
X141043968Y-105526000D01*
X140896032Y-105526000D01*
X140750941Y-105497140D01*
X140614270Y-105440529D01*
X140614269Y-105440529D01*
X140614268Y-105440528D01*
X140491265Y-105358340D01*
X140386660Y-105253735D01*
X140304472Y-105130732D01*
X140247860Y-104994059D01*
X140219000Y-104848968D01*
X140219000Y-104701032D01*
X140247860Y-104555941D01*
X140304471Y-104419270D01*
X140386659Y-104296267D01*
X140386660Y-104296265D01*
X140491265Y-104191660D01*
X140614268Y-104109472D01*
X140750941Y-104052860D01*
X140765732Y-104049918D01*
X140896032Y-104024000D01*
X141043968Y-104024000D01*
X141174268Y-104049918D01*
G37*
G36*
X143714268Y-104049918D02*
G01*
X143729059Y-104052860D01*
X143865732Y-104109472D01*
X143988735Y-104191660D01*
X144093340Y-104296265D01*
X144093341Y-104296267D01*
X144175529Y-104419270D01*
X144232140Y-104555941D01*
X144261000Y-104701032D01*
X144261000Y-104848968D01*
X144232140Y-104994059D01*
X144175528Y-105130732D01*
X144093340Y-105253735D01*
X143988735Y-105358340D01*
X143865732Y-105440528D01*
X143865731Y-105440529D01*
X143865730Y-105440529D01*
X143729059Y-105497140D01*
X143583968Y-105526000D01*
X143436032Y-105526000D01*
X143290941Y-105497140D01*
X143154270Y-105440529D01*
X143154269Y-105440529D01*
X143154268Y-105440528D01*
X143031265Y-105358340D01*
X142926660Y-105253735D01*
X142844472Y-105130732D01*
X142787860Y-104994059D01*
X142759000Y-104848968D01*
X142759000Y-104701032D01*
X142787860Y-104555941D01*
X142844471Y-104419270D01*
X142926659Y-104296267D01*
X142926660Y-104296265D01*
X143031265Y-104191660D01*
X143154268Y-104109472D01*
X143290941Y-104052860D01*
X143305732Y-104049918D01*
X143436032Y-104024000D01*
X143583968Y-104024000D01*
X143714268Y-104049918D01*
G37*
G36*
X134886778Y-103260547D02*
G01*
X135053224Y-103329491D01*
X135203022Y-103429583D01*
X135330417Y-103556978D01*
X135430509Y-103706776D01*
X135499453Y-103873222D01*
X135534600Y-104049918D01*
X135534600Y-104230082D01*
X135499453Y-104406778D01*
X135430509Y-104573224D01*
X135330417Y-104723022D01*
X135203022Y-104850417D01*
X135053224Y-104950509D01*
X134886778Y-105019453D01*
X134710082Y-105054600D01*
X134529918Y-105054600D01*
X134353222Y-105019453D01*
X134186776Y-104950509D01*
X134036978Y-104850417D01*
X133909583Y-104723022D01*
X133809491Y-104573224D01*
X133740547Y-104406778D01*
X133705400Y-104230082D01*
X133705400Y-104049918D01*
X133740547Y-103873222D01*
X133809491Y-103706776D01*
X133909583Y-103556978D01*
X134036978Y-103429583D01*
X134186776Y-103329491D01*
X134353222Y-103260547D01*
X134529918Y-103225400D01*
X134710082Y-103225400D01*
X134886778Y-103260547D01*
G37*
G36*
X150774600Y-105054600D02*
G01*
X148945400Y-105054600D01*
X148945400Y-103225400D01*
X150774600Y-103225400D01*
X150774600Y-105054600D01*
G37*
G36*
X141174268Y-101509918D02*
G01*
X141189059Y-101512860D01*
X141325732Y-101569472D01*
X141448735Y-101651660D01*
X141553340Y-101756265D01*
X141553341Y-101756267D01*
X141635529Y-101879270D01*
X141692140Y-102015941D01*
X141721000Y-102161032D01*
X141721000Y-102308968D01*
X141692140Y-102454059D01*
X141635528Y-102590732D01*
X141553340Y-102713735D01*
X141448735Y-102818340D01*
X141325732Y-102900528D01*
X141325731Y-102900529D01*
X141325730Y-102900529D01*
X141189059Y-102957140D01*
X141043968Y-102986000D01*
X140896032Y-102986000D01*
X140750941Y-102957140D01*
X140614270Y-102900529D01*
X140614269Y-102900529D01*
X140614268Y-102900528D01*
X140491265Y-102818340D01*
X140386660Y-102713735D01*
X140304472Y-102590732D01*
X140247860Y-102454059D01*
X140219000Y-102308968D01*
X140219000Y-102161032D01*
X140247860Y-102015941D01*
X140304471Y-101879270D01*
X140386659Y-101756267D01*
X140386660Y-101756265D01*
X140491265Y-101651660D01*
X140614268Y-101569472D01*
X140750941Y-101512860D01*
X140765732Y-101509918D01*
X140896032Y-101484000D01*
X141043968Y-101484000D01*
X141174268Y-101509918D01*
G37*
G36*
X143714268Y-101509918D02*
G01*
X143729059Y-101512860D01*
X143865732Y-101569472D01*
X143988735Y-101651660D01*
X144093340Y-101756265D01*
X144093341Y-101756267D01*
X144175529Y-101879270D01*
X144232140Y-102015941D01*
X144261000Y-102161032D01*
X144261000Y-102308968D01*
X144232140Y-102454059D01*
X144175528Y-102590732D01*
X144093340Y-102713735D01*
X143988735Y-102818340D01*
X143865732Y-102900528D01*
X143865731Y-102900529D01*
X143865730Y-102900529D01*
X143729059Y-102957140D01*
X143583968Y-102986000D01*
X143436032Y-102986000D01*
X143290941Y-102957140D01*
X143154270Y-102900529D01*
X143154269Y-102900529D01*
X143154268Y-102900528D01*
X143031265Y-102818340D01*
X142926660Y-102713735D01*
X142844472Y-102590732D01*
X142787860Y-102454059D01*
X142759000Y-102308968D01*
X142759000Y-102161032D01*
X142787860Y-102015941D01*
X142844471Y-101879270D01*
X142926659Y-101756267D01*
X142926660Y-101756265D01*
X143031265Y-101651660D01*
X143154268Y-101569472D01*
X143290941Y-101512860D01*
X143305732Y-101509918D01*
X143436032Y-101484000D01*
X143583968Y-101484000D01*
X143714268Y-101509918D01*
G37*
G36*
X150126778Y-100720547D02*
G01*
X150293224Y-100789491D01*
X150443022Y-100889583D01*
X150570417Y-101016978D01*
X150670509Y-101166776D01*
X150739453Y-101333222D01*
X150774600Y-101509918D01*
X150774600Y-101690082D01*
X150739453Y-101866778D01*
X150670509Y-102033224D01*
X150570417Y-102183022D01*
X150443022Y-102310417D01*
X150293224Y-102410509D01*
X150126778Y-102479453D01*
X149950082Y-102514600D01*
X149769918Y-102514600D01*
X149593222Y-102479453D01*
X149426776Y-102410509D01*
X149276978Y-102310417D01*
X149149583Y-102183022D01*
X149049491Y-102033224D01*
X148980547Y-101866778D01*
X148945400Y-101690082D01*
X148945400Y-101509918D01*
X148980547Y-101333222D01*
X149049491Y-101166776D01*
X149149583Y-101016978D01*
X149276978Y-100889583D01*
X149426776Y-100789491D01*
X149593222Y-100720547D01*
X149769918Y-100685400D01*
X149950082Y-100685400D01*
X150126778Y-100720547D01*
G37*
G36*
X134886778Y-100720547D02*
G01*
X135053224Y-100789491D01*
X135203022Y-100889583D01*
X135330417Y-101016978D01*
X135430509Y-101166776D01*
X135499453Y-101333222D01*
X135534600Y-101509918D01*
X135534600Y-101690082D01*
X135499453Y-101866778D01*
X135430509Y-102033224D01*
X135330417Y-102183022D01*
X135203022Y-102310417D01*
X135053224Y-102410509D01*
X134886778Y-102479453D01*
X134710082Y-102514600D01*
X134529918Y-102514600D01*
X134353222Y-102479453D01*
X134186776Y-102410509D01*
X134036978Y-102310417D01*
X133909583Y-102183022D01*
X133809491Y-102033224D01*
X133740547Y-101866778D01*
X133705400Y-101690082D01*
X133705400Y-101509918D01*
X133740547Y-101333222D01*
X133809491Y-101166776D01*
X133909583Y-101016978D01*
X134036978Y-100889583D01*
X134186776Y-100789491D01*
X134353222Y-100720547D01*
X134529918Y-100685400D01*
X134710082Y-100685400D01*
X134886778Y-100720547D01*
G37*
G36*
X143714268Y-98969918D02*
G01*
X143729059Y-98972860D01*
X143865732Y-99029472D01*
X143988735Y-99111660D01*
X144093340Y-99216265D01*
X144093341Y-99216267D01*
X144175529Y-99339270D01*
X144232140Y-99475941D01*
X144261000Y-99621032D01*
X144261000Y-99768968D01*
X144232140Y-99914059D01*
X144175528Y-100050732D01*
X144093340Y-100173735D01*
X143988735Y-100278340D01*
X143865732Y-100360528D01*
X143865731Y-100360529D01*
X143865730Y-100360529D01*
X143729059Y-100417140D01*
X143583968Y-100446000D01*
X143436032Y-100446000D01*
X143290941Y-100417140D01*
X143154270Y-100360529D01*
X143154269Y-100360529D01*
X143154268Y-100360528D01*
X143031265Y-100278340D01*
X142926660Y-100173735D01*
X142844472Y-100050732D01*
X142787860Y-99914059D01*
X142759000Y-99768968D01*
X142759000Y-99621032D01*
X142787860Y-99475941D01*
X142844471Y-99339270D01*
X142926659Y-99216267D01*
X142926660Y-99216265D01*
X143031265Y-99111660D01*
X143154268Y-99029472D01*
X143290941Y-98972860D01*
X143305732Y-98969918D01*
X143436032Y-98944000D01*
X143583968Y-98944000D01*
X143714268Y-98969918D01*
G37*
G36*
X141174268Y-98969918D02*
G01*
X141189059Y-98972860D01*
X141325732Y-99029472D01*
X141448735Y-99111660D01*
X141553340Y-99216265D01*
X141553341Y-99216267D01*
X141635529Y-99339270D01*
X141692140Y-99475941D01*
X141721000Y-99621032D01*
X141721000Y-99768968D01*
X141692140Y-99914059D01*
X141635528Y-100050732D01*
X141553340Y-100173735D01*
X141448735Y-100278340D01*
X141325732Y-100360528D01*
X141325731Y-100360529D01*
X141325730Y-100360529D01*
X141189059Y-100417140D01*
X141043968Y-100446000D01*
X140896032Y-100446000D01*
X140750941Y-100417140D01*
X140614270Y-100360529D01*
X140614269Y-100360529D01*
X140614268Y-100360528D01*
X140491265Y-100278340D01*
X140386660Y-100173735D01*
X140304472Y-100050732D01*
X140247860Y-99914059D01*
X140219000Y-99768968D01*
X140219000Y-99621032D01*
X140247860Y-99475941D01*
X140304471Y-99339270D01*
X140386659Y-99216267D01*
X140386660Y-99216265D01*
X140491265Y-99111660D01*
X140614268Y-99029472D01*
X140750941Y-98972860D01*
X140765732Y-98969918D01*
X140896032Y-98944000D01*
X141043968Y-98944000D01*
X141174268Y-98969918D01*
G37*
G36*
X134886778Y-98180547D02*
G01*
X135053224Y-98249491D01*
X135203022Y-98349583D01*
X135330417Y-98476978D01*
X135430509Y-98626776D01*
X135499453Y-98793222D01*
X135534600Y-98969918D01*
X135534600Y-99150082D01*
X135499453Y-99326778D01*
X135430509Y-99493224D01*
X135330417Y-99643022D01*
X135203022Y-99770417D01*
X135053224Y-99870509D01*
X134886778Y-99939453D01*
X134710082Y-99974600D01*
X134529918Y-99974600D01*
X134353222Y-99939453D01*
X134186776Y-99870509D01*
X134036978Y-99770417D01*
X133909583Y-99643022D01*
X133809491Y-99493224D01*
X133740547Y-99326778D01*
X133705400Y-99150082D01*
X133705400Y-98969918D01*
X133740547Y-98793222D01*
X133809491Y-98626776D01*
X133909583Y-98476978D01*
X134036978Y-98349583D01*
X134186776Y-98249491D01*
X134353222Y-98180547D01*
X134529918Y-98145400D01*
X134710082Y-98145400D01*
X134886778Y-98180547D01*
G37*
G36*
X150126778Y-98180547D02*
G01*
X150293224Y-98249491D01*
X150443022Y-98349583D01*
X150570417Y-98476978D01*
X150670509Y-98626776D01*
X150739453Y-98793222D01*
X150774600Y-98969918D01*
X150774600Y-99150082D01*
X150739453Y-99326778D01*
X150670509Y-99493224D01*
X150570417Y-99643022D01*
X150443022Y-99770417D01*
X150293224Y-99870509D01*
X150126778Y-99939453D01*
X149950082Y-99974600D01*
X149769918Y-99974600D01*
X149593222Y-99939453D01*
X149426776Y-99870509D01*
X149276978Y-99770417D01*
X149149583Y-99643022D01*
X149049491Y-99493224D01*
X148980547Y-99326778D01*
X148945400Y-99150082D01*
X148945400Y-98969918D01*
X148980547Y-98793222D01*
X149049491Y-98626776D01*
X149149583Y-98476978D01*
X149276978Y-98349583D01*
X149426776Y-98249491D01*
X149593222Y-98180547D01*
X149769918Y-98145400D01*
X149950082Y-98145400D01*
X150126778Y-98180547D01*
G37*
G36*
X134886778Y-95640547D02*
G01*
X135053224Y-95709491D01*
X135203022Y-95809583D01*
X135330417Y-95936978D01*
X135430509Y-96086776D01*
X135499453Y-96253222D01*
X135534600Y-96429918D01*
X135534600Y-96610082D01*
X135499453Y-96786778D01*
X135430509Y-96953224D01*
X135330417Y-97103022D01*
X135203022Y-97230417D01*
X135053224Y-97330509D01*
X134886778Y-97399453D01*
X134710082Y-97434600D01*
X134529918Y-97434600D01*
X134353222Y-97399453D01*
X134186776Y-97330509D01*
X134036978Y-97230417D01*
X133909583Y-97103022D01*
X133809491Y-96953224D01*
X133740547Y-96786778D01*
X133705400Y-96610082D01*
X133705400Y-96429918D01*
X133740547Y-96253222D01*
X133809491Y-96086776D01*
X133909583Y-95936978D01*
X134036978Y-95809583D01*
X134186776Y-95709491D01*
X134353222Y-95640547D01*
X134529918Y-95605400D01*
X134710082Y-95605400D01*
X134886778Y-95640547D01*
G37*
G36*
X150774600Y-97434600D02*
G01*
X148945400Y-97434600D01*
X148945400Y-95605400D01*
X150774600Y-95605400D01*
X150774600Y-97434600D01*
G37*
G36*
X166612162Y-91582368D02*
G01*
X166921724Y-91710593D01*
X166921725Y-91710594D01*
X167200324Y-91896747D01*
X167437253Y-92133676D01*
X167561637Y-92319830D01*
X167623407Y-92412276D01*
X167751632Y-92721838D01*
X167817000Y-93050465D01*
X167817000Y-93385535D01*
X167751632Y-93714162D01*
X167623407Y-94023724D01*
X167623406Y-94023725D01*
X167437253Y-94302324D01*
X167200324Y-94539253D01*
X167014170Y-94663637D01*
X166921724Y-94725407D01*
X166612162Y-94853632D01*
X166283535Y-94919000D01*
X165948465Y-94919000D01*
X165619838Y-94853632D01*
X165310276Y-94725407D01*
X165217830Y-94663637D01*
X165031676Y-94539253D01*
X164794747Y-94302324D01*
X164608594Y-94023725D01*
X164608593Y-94023724D01*
X164480368Y-93714162D01*
X164415000Y-93385535D01*
X164415000Y-93050465D01*
X164480368Y-92721838D01*
X164608593Y-92412276D01*
X164670363Y-92319830D01*
X164794747Y-92133676D01*
X165031676Y-91896747D01*
X165310275Y-91710594D01*
X165310276Y-91710593D01*
X165619838Y-91582368D01*
X165948465Y-91517000D01*
X166283535Y-91517000D01*
X166612162Y-91582368D01*
G37*
M02*
