G04 #@! TF.GenerationSoftware,KiCad,Pcbnew,5.1.5*
G04 #@! TF.CreationDate,2020-01-24T16:15:15+01:00*
G04 #@! TF.ProjectId,HM-LC-Dim1PWM-Linear,484d2d4c-432d-4446-996d-3150574d2d4c,rev?*
G04 #@! TF.SameCoordinates,Original*
G04 #@! TF.FileFunction,Copper,L2,Bot*
G04 #@! TF.FilePolarity,Positive*
%FSLAX46Y46*%
G04 Gerber Fmt 4.6, Leading zero omitted, Abs format (unit mm)*
G04 Created by KiCad (PCBNEW 5.1.5) date 2020-01-24 16:15:15*
%MOMM*%
%LPD*%
G04 APERTURE LIST*
%ADD10O,1.270000X1.270000*%
%ADD11C,1.270000*%
%ADD12C,3.300000*%
%ADD13C,1.727200*%
%ADD14R,1.727200X1.727200*%
%ADD15C,1.400000*%
%ADD16R,2.400000X2.400000*%
%ADD17C,2.400000*%
%ADD18O,1.500000X1.050000*%
%ADD19R,1.500000X1.050000*%
%ADD20R,1.600000X1.600000*%
%ADD21O,1.600000X1.600000*%
%ADD22C,0.100000*%
%ADD23O,1.700000X1.950000*%
%ADD24C,0.800000*%
%ADD25C,0.250000*%
%ADD26C,0.254000*%
G04 APERTURE END LIST*
D10*
X158100000Y-110744000D03*
X160100000Y-110744000D03*
D11*
X162100000Y-110744000D03*
X164100000Y-110744000D03*
X166100000Y-110744000D03*
X168100000Y-110744000D03*
X170100000Y-110744000D03*
X172100000Y-110744000D03*
D12*
X166116000Y-93218000D03*
D13*
X134620000Y-124460000D03*
X134620000Y-121920000D03*
X134620000Y-116840000D03*
X134620000Y-119380000D03*
X134620000Y-109220000D03*
X134620000Y-106680000D03*
X134620000Y-111760000D03*
X134620000Y-114300000D03*
X134620000Y-104140000D03*
X134620000Y-101600000D03*
X134620000Y-96520000D03*
X134620000Y-99060000D03*
X149860000Y-99060000D03*
D14*
X149860000Y-96520000D03*
D13*
X149860000Y-101600000D03*
D14*
X149860000Y-104140000D03*
D13*
X149860000Y-114300000D03*
X149860000Y-111760000D03*
X149860000Y-106680000D03*
X149860000Y-109220000D03*
X149860000Y-119380000D03*
X149860000Y-116840000D03*
X149860000Y-121920000D03*
X149860000Y-124460000D03*
D15*
X140970000Y-109855000D03*
X143510000Y-109855000D03*
X140970000Y-107315000D03*
X143510000Y-107315000D03*
X140970000Y-104775000D03*
X143510000Y-104775000D03*
X143510000Y-102235000D03*
X140970000Y-102235000D03*
X140970000Y-99695000D03*
X143510000Y-99695000D03*
D16*
X165354000Y-121920000D03*
D17*
X170354000Y-121920000D03*
D18*
X156972000Y-127254000D03*
X156972000Y-128524000D03*
D19*
X156972000Y-125984000D03*
D20*
X142748000Y-129540000D03*
D21*
X150368000Y-132080000D03*
X142748000Y-132080000D03*
X150368000Y-129540000D03*
G04 #@! TA.AperFunction,ComponentPad*
D22*
G36*
X170296504Y-133138204D02*
G01*
X170320773Y-133141804D01*
X170344571Y-133147765D01*
X170367671Y-133156030D01*
X170389849Y-133166520D01*
X170410893Y-133179133D01*
X170430598Y-133193747D01*
X170448777Y-133210223D01*
X170465253Y-133228402D01*
X170479867Y-133248107D01*
X170492480Y-133269151D01*
X170502970Y-133291329D01*
X170511235Y-133314429D01*
X170517196Y-133338227D01*
X170520796Y-133362496D01*
X170522000Y-133387000D01*
X170522000Y-134837000D01*
X170520796Y-134861504D01*
X170517196Y-134885773D01*
X170511235Y-134909571D01*
X170502970Y-134932671D01*
X170492480Y-134954849D01*
X170479867Y-134975893D01*
X170465253Y-134995598D01*
X170448777Y-135013777D01*
X170430598Y-135030253D01*
X170410893Y-135044867D01*
X170389849Y-135057480D01*
X170367671Y-135067970D01*
X170344571Y-135076235D01*
X170320773Y-135082196D01*
X170296504Y-135085796D01*
X170272000Y-135087000D01*
X169072000Y-135087000D01*
X169047496Y-135085796D01*
X169023227Y-135082196D01*
X168999429Y-135076235D01*
X168976329Y-135067970D01*
X168954151Y-135057480D01*
X168933107Y-135044867D01*
X168913402Y-135030253D01*
X168895223Y-135013777D01*
X168878747Y-134995598D01*
X168864133Y-134975893D01*
X168851520Y-134954849D01*
X168841030Y-134932671D01*
X168832765Y-134909571D01*
X168826804Y-134885773D01*
X168823204Y-134861504D01*
X168822000Y-134837000D01*
X168822000Y-133387000D01*
X168823204Y-133362496D01*
X168826804Y-133338227D01*
X168832765Y-133314429D01*
X168841030Y-133291329D01*
X168851520Y-133269151D01*
X168864133Y-133248107D01*
X168878747Y-133228402D01*
X168895223Y-133210223D01*
X168913402Y-133193747D01*
X168933107Y-133179133D01*
X168954151Y-133166520D01*
X168976329Y-133156030D01*
X168999429Y-133147765D01*
X169023227Y-133141804D01*
X169047496Y-133138204D01*
X169072000Y-133137000D01*
X170272000Y-133137000D01*
X170296504Y-133138204D01*
G37*
G04 #@! TD.AperFunction*
D23*
X167172000Y-134112000D03*
X164672000Y-134112000D03*
X162172000Y-134112000D03*
D18*
X156972000Y-121158000D03*
X156972000Y-122428000D03*
D19*
X156972000Y-119888000D03*
D24*
X149860000Y-138176000D03*
X144780000Y-136652000D03*
D25*
X143510000Y-99695000D02*
X141605000Y-97790000D01*
X141605000Y-97790000D02*
X140335000Y-97790000D01*
X140335000Y-97790000D02*
X138430000Y-99695000D01*
X138430000Y-110490000D02*
X149860000Y-121920000D01*
X138430000Y-99695000D02*
X138430000Y-110490000D01*
X143510000Y-113030000D02*
X143510000Y-109855000D01*
X149860000Y-119380000D02*
X143510000Y-113030000D01*
X166100000Y-113300000D02*
X161544000Y-117856000D01*
X161544000Y-117856000D02*
X152908000Y-117856000D01*
X152908000Y-117856000D02*
X151384000Y-119380000D01*
X151384000Y-119380000D02*
X149860000Y-119380000D01*
X166100000Y-113300000D02*
X166100000Y-110744000D01*
X164100000Y-110490000D02*
X164100000Y-112760000D01*
X160020000Y-116840000D02*
X149860000Y-116840000D01*
X164100000Y-112760000D02*
X160020000Y-116840000D01*
X149860000Y-116840000D02*
X146685000Y-113665000D01*
X146685000Y-110490000D02*
X143510000Y-107315000D01*
X146685000Y-113665000D02*
X146685000Y-110490000D01*
X165100000Y-121920000D02*
X166550000Y-121920000D01*
X159550802Y-96520000D02*
X149860000Y-96520000D01*
X173990000Y-115750000D02*
X173990000Y-110959198D01*
X173990000Y-110959198D02*
X159550802Y-96520000D01*
X166550000Y-121920000D02*
X167820000Y-121920000D01*
X167820000Y-121920000D02*
X173990000Y-115750000D01*
X149510750Y-104140000D02*
X149860000Y-104140000D01*
X140970000Y-109220000D02*
X140970000Y-110209949D01*
X143510000Y-104775000D02*
X146685000Y-101600000D01*
X146685000Y-101600000D02*
X149860000Y-101600000D01*
X144780000Y-127000000D02*
X134620000Y-116840000D01*
X154686000Y-121158000D02*
X152908000Y-122936000D01*
X156972000Y-121158000D02*
X154686000Y-121158000D01*
X152908000Y-125984000D02*
X151892000Y-127000000D01*
X152908000Y-122936000D02*
X152908000Y-125984000D01*
X151892000Y-127000000D02*
X144780000Y-127000000D01*
D26*
G36*
X164091059Y-92135647D02*
G01*
X163918811Y-92551490D01*
X163831000Y-92992947D01*
X163831000Y-93443053D01*
X163918811Y-93884510D01*
X164091059Y-94300353D01*
X164341125Y-94674603D01*
X164659397Y-94992875D01*
X165033647Y-95242941D01*
X165449490Y-95415189D01*
X165890947Y-95503000D01*
X166341053Y-95503000D01*
X166782510Y-95415189D01*
X167198353Y-95242941D01*
X167572603Y-94992875D01*
X167890875Y-94674603D01*
X168140941Y-94300353D01*
X168313189Y-93884510D01*
X168401000Y-93443053D01*
X168401000Y-92992947D01*
X168313189Y-92551490D01*
X168140941Y-92135647D01*
X168117122Y-92100000D01*
X174600000Y-92100000D01*
X174600000Y-110504492D01*
X174530001Y-110419197D01*
X174501003Y-110395399D01*
X160114606Y-96009003D01*
X160090803Y-95979999D01*
X159975078Y-95885026D01*
X159843049Y-95814454D01*
X159699788Y-95770997D01*
X159588135Y-95760000D01*
X159588124Y-95760000D01*
X159550802Y-95756324D01*
X159513480Y-95760000D01*
X151361672Y-95760000D01*
X151361672Y-95656400D01*
X151349412Y-95531918D01*
X151313102Y-95412220D01*
X151254137Y-95301906D01*
X151174785Y-95205215D01*
X151078094Y-95125863D01*
X150967780Y-95066898D01*
X150848082Y-95030588D01*
X150723600Y-95018328D01*
X148996400Y-95018328D01*
X148871918Y-95030588D01*
X148752220Y-95066898D01*
X148641906Y-95125863D01*
X148545215Y-95205215D01*
X148465863Y-95301906D01*
X148406898Y-95412220D01*
X148370588Y-95531918D01*
X148358328Y-95656400D01*
X148358328Y-97383600D01*
X148370588Y-97508082D01*
X148406898Y-97627780D01*
X148465863Y-97738094D01*
X148545215Y-97834785D01*
X148641906Y-97914137D01*
X148752220Y-97973102D01*
X148871918Y-98009412D01*
X148996400Y-98021672D01*
X149001572Y-98021672D01*
X149001501Y-98021896D01*
X149860000Y-98880395D01*
X150718499Y-98021896D01*
X150718428Y-98021672D01*
X150723600Y-98021672D01*
X150848082Y-98009412D01*
X150967780Y-97973102D01*
X151078094Y-97914137D01*
X151174785Y-97834785D01*
X151254137Y-97738094D01*
X151313102Y-97627780D01*
X151349412Y-97508082D01*
X151361672Y-97383600D01*
X151361672Y-97280000D01*
X159236001Y-97280000D01*
X171552248Y-109596248D01*
X171498429Y-109618541D01*
X171290422Y-109757527D01*
X171113527Y-109934422D01*
X171100000Y-109954667D01*
X171086473Y-109934422D01*
X170909578Y-109757527D01*
X170701571Y-109618541D01*
X170470445Y-109522805D01*
X170225084Y-109474000D01*
X169974916Y-109474000D01*
X169729555Y-109522805D01*
X169498429Y-109618541D01*
X169290422Y-109757527D01*
X169113527Y-109934422D01*
X169100000Y-109954667D01*
X169086473Y-109934422D01*
X168909578Y-109757527D01*
X168701571Y-109618541D01*
X168470445Y-109522805D01*
X168225084Y-109474000D01*
X167974916Y-109474000D01*
X167729555Y-109522805D01*
X167498429Y-109618541D01*
X167290422Y-109757527D01*
X167113527Y-109934422D01*
X167100000Y-109954667D01*
X167086473Y-109934422D01*
X166909578Y-109757527D01*
X166701571Y-109618541D01*
X166470445Y-109522805D01*
X166225084Y-109474000D01*
X165974916Y-109474000D01*
X165729555Y-109522805D01*
X165498429Y-109618541D01*
X165290422Y-109757527D01*
X165113527Y-109934422D01*
X165100000Y-109954667D01*
X165086473Y-109934422D01*
X164909578Y-109757527D01*
X164701571Y-109618541D01*
X164470445Y-109522805D01*
X164225084Y-109474000D01*
X163974916Y-109474000D01*
X163729555Y-109522805D01*
X163498429Y-109618541D01*
X163290422Y-109757527D01*
X163113527Y-109934422D01*
X163100000Y-109954667D01*
X163086473Y-109934422D01*
X162909578Y-109757527D01*
X162701571Y-109618541D01*
X162470445Y-109522805D01*
X162225084Y-109474000D01*
X161974916Y-109474000D01*
X161729555Y-109522805D01*
X161498429Y-109618541D01*
X161290422Y-109757527D01*
X161113527Y-109934422D01*
X161094677Y-109962632D01*
X161051018Y-109902288D01*
X160868535Y-109732927D01*
X160656517Y-109602421D01*
X160423113Y-109515785D01*
X160227000Y-109639110D01*
X160227000Y-110617000D01*
X160247000Y-110617000D01*
X160247000Y-110871000D01*
X160227000Y-110871000D01*
X160227000Y-111848890D01*
X160423113Y-111972215D01*
X160656517Y-111885579D01*
X160868535Y-111755073D01*
X161051018Y-111585712D01*
X161094677Y-111525368D01*
X161113527Y-111553578D01*
X161290422Y-111730473D01*
X161498429Y-111869459D01*
X161729555Y-111965195D01*
X161974916Y-112014000D01*
X162225084Y-112014000D01*
X162470445Y-111965195D01*
X162701571Y-111869459D01*
X162909578Y-111730473D01*
X163086473Y-111553578D01*
X163100000Y-111533333D01*
X163113527Y-111553578D01*
X163290422Y-111730473D01*
X163340001Y-111763600D01*
X163340001Y-112445197D01*
X159705199Y-116080000D01*
X151154535Y-116080000D01*
X151024039Y-115884698D01*
X150815302Y-115675961D01*
X150656719Y-115570000D01*
X150815302Y-115464039D01*
X151024039Y-115255302D01*
X151188042Y-115009853D01*
X151301010Y-114737125D01*
X151358600Y-114447599D01*
X151358600Y-114152401D01*
X151301010Y-113862875D01*
X151188042Y-113590147D01*
X151024039Y-113344698D01*
X150815302Y-113135961D01*
X150656719Y-113030000D01*
X150815302Y-112924039D01*
X151024039Y-112715302D01*
X151188042Y-112469853D01*
X151301010Y-112197125D01*
X151358600Y-111907599D01*
X151358600Y-111612401D01*
X151301010Y-111322875D01*
X151188042Y-111050147D01*
X151024039Y-110804698D01*
X150838257Y-110618916D01*
X156830000Y-110618916D01*
X156830000Y-110869084D01*
X156878805Y-111114445D01*
X156974541Y-111345571D01*
X157113527Y-111553578D01*
X157290422Y-111730473D01*
X157498429Y-111869459D01*
X157729555Y-111965195D01*
X157974916Y-112014000D01*
X158225084Y-112014000D01*
X158470445Y-111965195D01*
X158701571Y-111869459D01*
X158909578Y-111730473D01*
X159086473Y-111553578D01*
X159105323Y-111525368D01*
X159148982Y-111585712D01*
X159331465Y-111755073D01*
X159543483Y-111885579D01*
X159776887Y-111972215D01*
X159973000Y-111848890D01*
X159973000Y-110871000D01*
X159953000Y-110871000D01*
X159953000Y-110617000D01*
X159973000Y-110617000D01*
X159973000Y-109639110D01*
X159776887Y-109515785D01*
X159543483Y-109602421D01*
X159331465Y-109732927D01*
X159148982Y-109902288D01*
X159105323Y-109962632D01*
X159086473Y-109934422D01*
X158909578Y-109757527D01*
X158701571Y-109618541D01*
X158470445Y-109522805D01*
X158225084Y-109474000D01*
X157974916Y-109474000D01*
X157729555Y-109522805D01*
X157498429Y-109618541D01*
X157290422Y-109757527D01*
X157113527Y-109934422D01*
X156974541Y-110142429D01*
X156878805Y-110373555D01*
X156830000Y-110618916D01*
X150838257Y-110618916D01*
X150815302Y-110595961D01*
X150656719Y-110490000D01*
X150815302Y-110384039D01*
X151024039Y-110175302D01*
X151188042Y-109929853D01*
X151301010Y-109657125D01*
X151358600Y-109367599D01*
X151358600Y-109072401D01*
X151301010Y-108782875D01*
X151188042Y-108510147D01*
X151024039Y-108264698D01*
X150815302Y-108055961D01*
X150656719Y-107950000D01*
X150815302Y-107844039D01*
X151024039Y-107635302D01*
X151188042Y-107389853D01*
X151301010Y-107117125D01*
X151358600Y-106827599D01*
X151358600Y-106532401D01*
X151301010Y-106242875D01*
X151188042Y-105970147D01*
X151024039Y-105724698D01*
X150909977Y-105610636D01*
X150967780Y-105593102D01*
X151078094Y-105534137D01*
X151174785Y-105454785D01*
X151254137Y-105358094D01*
X151313102Y-105247780D01*
X151349412Y-105128082D01*
X151361672Y-105003600D01*
X151361672Y-103276400D01*
X151349412Y-103151918D01*
X151313102Y-103032220D01*
X151254137Y-102921906D01*
X151174785Y-102825215D01*
X151078094Y-102745863D01*
X150967780Y-102686898D01*
X150909977Y-102669364D01*
X151024039Y-102555302D01*
X151188042Y-102309853D01*
X151301010Y-102037125D01*
X151358600Y-101747599D01*
X151358600Y-101452401D01*
X151301010Y-101162875D01*
X151188042Y-100890147D01*
X151024039Y-100644698D01*
X150815302Y-100435961D01*
X150647125Y-100323589D01*
X150718499Y-100098104D01*
X149860000Y-99239605D01*
X149001501Y-100098104D01*
X149072875Y-100323589D01*
X148904698Y-100435961D01*
X148695961Y-100644698D01*
X148565465Y-100840000D01*
X146722322Y-100840000D01*
X146684999Y-100836324D01*
X146647676Y-100840000D01*
X146647667Y-100840000D01*
X146536014Y-100850997D01*
X146406952Y-100890147D01*
X146392753Y-100894454D01*
X146260723Y-100965026D01*
X146186348Y-101026065D01*
X146144999Y-101059999D01*
X146121201Y-101088997D01*
X144845000Y-102365198D01*
X144845000Y-102103514D01*
X144793696Y-101845595D01*
X144693061Y-101602641D01*
X144546962Y-101383987D01*
X144361013Y-101198038D01*
X144142359Y-101051939D01*
X143932470Y-100965000D01*
X144142359Y-100878061D01*
X144361013Y-100731962D01*
X144546962Y-100546013D01*
X144693061Y-100327359D01*
X144793696Y-100084405D01*
X144845000Y-99826486D01*
X144845000Y-99563514D01*
X144793696Y-99305595D01*
X144720131Y-99127993D01*
X148355685Y-99127993D01*
X148397855Y-99420164D01*
X148496214Y-99698493D01*
X148571433Y-99839218D01*
X148821896Y-99918499D01*
X149680395Y-99060000D01*
X150039605Y-99060000D01*
X150898104Y-99918499D01*
X151148567Y-99839218D01*
X151275826Y-99572859D01*
X151348675Y-99286790D01*
X151364315Y-98992007D01*
X151322145Y-98699836D01*
X151223786Y-98421507D01*
X151148567Y-98280782D01*
X150898104Y-98201501D01*
X150039605Y-99060000D01*
X149680395Y-99060000D01*
X148821896Y-98201501D01*
X148571433Y-98280782D01*
X148444174Y-98547141D01*
X148371325Y-98833210D01*
X148355685Y-99127993D01*
X144720131Y-99127993D01*
X144693061Y-99062641D01*
X144546962Y-98843987D01*
X144361013Y-98658038D01*
X144142359Y-98511939D01*
X143899405Y-98411304D01*
X143641486Y-98360000D01*
X143378514Y-98360000D01*
X143271157Y-98381355D01*
X142168804Y-97279003D01*
X142145001Y-97249999D01*
X142029276Y-97155026D01*
X141897247Y-97084454D01*
X141753986Y-97040997D01*
X141642333Y-97030000D01*
X141642322Y-97030000D01*
X141605000Y-97026324D01*
X141567678Y-97030000D01*
X140372323Y-97030000D01*
X140335000Y-97026324D01*
X140297677Y-97030000D01*
X140297667Y-97030000D01*
X140186014Y-97040997D01*
X140042753Y-97084454D01*
X139910724Y-97155026D01*
X139794999Y-97249999D01*
X139771201Y-97278997D01*
X137919003Y-99131196D01*
X137889999Y-99154999D01*
X137846832Y-99207599D01*
X137795026Y-99270724D01*
X137776387Y-99305595D01*
X137724454Y-99402754D01*
X137680997Y-99546015D01*
X137670000Y-99657668D01*
X137670000Y-99657678D01*
X137666324Y-99695000D01*
X137670000Y-99732322D01*
X137670001Y-110452667D01*
X137666324Y-110490000D01*
X137670001Y-110527333D01*
X137670749Y-110534922D01*
X137680998Y-110638985D01*
X137724454Y-110782246D01*
X137795026Y-110914276D01*
X137866201Y-111001002D01*
X137890000Y-111030001D01*
X137918998Y-111053799D01*
X148407224Y-121542026D01*
X148361400Y-121772401D01*
X148361400Y-122067599D01*
X148418990Y-122357125D01*
X148531958Y-122629853D01*
X148695961Y-122875302D01*
X148904698Y-123084039D01*
X149063281Y-123190000D01*
X148904698Y-123295961D01*
X148695961Y-123504698D01*
X148531958Y-123750147D01*
X148418990Y-124022875D01*
X148361400Y-124312401D01*
X148361400Y-124607599D01*
X148418990Y-124897125D01*
X148531958Y-125169853D01*
X148695961Y-125415302D01*
X148904698Y-125624039D01*
X149150147Y-125788042D01*
X149422875Y-125901010D01*
X149712401Y-125958600D01*
X150007599Y-125958600D01*
X150297125Y-125901010D01*
X150569853Y-125788042D01*
X150815302Y-125624039D01*
X151024039Y-125415302D01*
X151188042Y-125169853D01*
X151301010Y-124897125D01*
X151358600Y-124607599D01*
X151358600Y-124312401D01*
X151301010Y-124022875D01*
X151188042Y-123750147D01*
X151024039Y-123504698D01*
X150815302Y-123295961D01*
X150656719Y-123190000D01*
X150815302Y-123084039D01*
X151024039Y-122875302D01*
X151188042Y-122629853D01*
X151301010Y-122357125D01*
X151358600Y-122067599D01*
X151358600Y-121772401D01*
X151301010Y-121482875D01*
X151188042Y-121210147D01*
X151024039Y-120964698D01*
X150815302Y-120755961D01*
X150656719Y-120650000D01*
X150815302Y-120544039D01*
X151024039Y-120335302D01*
X151154535Y-120140000D01*
X151346678Y-120140000D01*
X151384000Y-120143676D01*
X151421322Y-120140000D01*
X151421333Y-120140000D01*
X151532986Y-120129003D01*
X151676247Y-120085546D01*
X151808276Y-120014974D01*
X151924001Y-119920001D01*
X151947803Y-119890998D01*
X152475801Y-119363000D01*
X155583928Y-119363000D01*
X155587000Y-119602250D01*
X155745750Y-119761000D01*
X156845000Y-119761000D01*
X156845000Y-118886750D01*
X157099000Y-118886750D01*
X157099000Y-119761000D01*
X158198250Y-119761000D01*
X158357000Y-119602250D01*
X158360072Y-119363000D01*
X158347812Y-119238518D01*
X158311502Y-119118820D01*
X158252537Y-119008506D01*
X158173185Y-118911815D01*
X158076494Y-118832463D01*
X157966180Y-118773498D01*
X157846482Y-118737188D01*
X157722000Y-118724928D01*
X157257750Y-118728000D01*
X157099000Y-118886750D01*
X156845000Y-118886750D01*
X156686250Y-118728000D01*
X156222000Y-118724928D01*
X156097518Y-118737188D01*
X155977820Y-118773498D01*
X155867506Y-118832463D01*
X155770815Y-118911815D01*
X155691463Y-119008506D01*
X155632498Y-119118820D01*
X155596188Y-119238518D01*
X155583928Y-119363000D01*
X152475801Y-119363000D01*
X153222803Y-118616000D01*
X161506678Y-118616000D01*
X161544000Y-118619676D01*
X161581322Y-118616000D01*
X161581333Y-118616000D01*
X161692986Y-118605003D01*
X161836247Y-118561546D01*
X161968276Y-118490974D01*
X162084001Y-118396001D01*
X162107804Y-118366997D01*
X166611004Y-113863798D01*
X166640001Y-113840001D01*
X166690061Y-113779003D01*
X166734974Y-113724277D01*
X166805546Y-113592247D01*
X166812294Y-113570001D01*
X166849003Y-113448986D01*
X166860000Y-113337333D01*
X166860000Y-113337323D01*
X166863676Y-113300000D01*
X166860000Y-113262678D01*
X166860000Y-111763600D01*
X166909578Y-111730473D01*
X167086473Y-111553578D01*
X167100000Y-111533333D01*
X167113527Y-111553578D01*
X167290422Y-111730473D01*
X167498429Y-111869459D01*
X167729555Y-111965195D01*
X167974916Y-112014000D01*
X168225084Y-112014000D01*
X168470445Y-111965195D01*
X168701571Y-111869459D01*
X168909578Y-111730473D01*
X169086473Y-111553578D01*
X169100000Y-111533333D01*
X169113527Y-111553578D01*
X169290422Y-111730473D01*
X169498429Y-111869459D01*
X169729555Y-111965195D01*
X169974916Y-112014000D01*
X170225084Y-112014000D01*
X170470445Y-111965195D01*
X170701571Y-111869459D01*
X170909578Y-111730473D01*
X171086473Y-111553578D01*
X171100000Y-111533333D01*
X171113527Y-111553578D01*
X171290422Y-111730473D01*
X171498429Y-111869459D01*
X171729555Y-111965195D01*
X171974916Y-112014000D01*
X172225084Y-112014000D01*
X172470445Y-111965195D01*
X172701571Y-111869459D01*
X172909578Y-111730473D01*
X173086473Y-111553578D01*
X173225459Y-111345571D01*
X173230001Y-111334606D01*
X173230000Y-115435198D01*
X167505199Y-121160000D01*
X167192072Y-121160000D01*
X167192072Y-120720000D01*
X167179812Y-120595518D01*
X167143502Y-120475820D01*
X167084537Y-120365506D01*
X167005185Y-120268815D01*
X166908494Y-120189463D01*
X166798180Y-120130498D01*
X166678482Y-120094188D01*
X166554000Y-120081928D01*
X164154000Y-120081928D01*
X164029518Y-120094188D01*
X163909820Y-120130498D01*
X163799506Y-120189463D01*
X163702815Y-120268815D01*
X163623463Y-120365506D01*
X163564498Y-120475820D01*
X163528188Y-120595518D01*
X163515928Y-120720000D01*
X163515928Y-123120000D01*
X163528188Y-123244482D01*
X163564498Y-123364180D01*
X163623463Y-123474494D01*
X163702815Y-123571185D01*
X163799506Y-123650537D01*
X163909820Y-123709502D01*
X164029518Y-123745812D01*
X164154000Y-123758072D01*
X166554000Y-123758072D01*
X166678482Y-123745812D01*
X166798180Y-123709502D01*
X166908494Y-123650537D01*
X167005185Y-123571185D01*
X167084537Y-123474494D01*
X167143502Y-123364180D01*
X167179812Y-123244482D01*
X167184391Y-123197980D01*
X169255626Y-123197980D01*
X169375514Y-123482836D01*
X169699210Y-123643699D01*
X170048069Y-123738322D01*
X170408684Y-123763067D01*
X170767198Y-123716985D01*
X171109833Y-123601846D01*
X171332486Y-123482836D01*
X171452374Y-123197980D01*
X170354000Y-122099605D01*
X169255626Y-123197980D01*
X167184391Y-123197980D01*
X167192072Y-123120000D01*
X167192072Y-122680000D01*
X167782678Y-122680000D01*
X167820000Y-122683676D01*
X167857322Y-122680000D01*
X167857333Y-122680000D01*
X167968986Y-122669003D01*
X168112247Y-122625546D01*
X168244276Y-122554974D01*
X168360001Y-122460001D01*
X168383804Y-122430997D01*
X168548426Y-122266375D01*
X168557015Y-122333198D01*
X168672154Y-122675833D01*
X168791164Y-122898486D01*
X169076020Y-123018374D01*
X170174395Y-121920000D01*
X170533605Y-121920000D01*
X171631980Y-123018374D01*
X171916836Y-122898486D01*
X172077699Y-122574790D01*
X172172322Y-122225931D01*
X172197067Y-121865316D01*
X172150985Y-121506802D01*
X172035846Y-121164167D01*
X171916836Y-120941514D01*
X171631980Y-120821626D01*
X170533605Y-121920000D01*
X170174395Y-121920000D01*
X170160253Y-121905858D01*
X170339858Y-121726253D01*
X170354000Y-121740395D01*
X171452374Y-120642020D01*
X171332486Y-120357164D01*
X171008790Y-120196301D01*
X170701774Y-120113027D01*
X174501004Y-116313798D01*
X174530001Y-116290001D01*
X174600001Y-116204706D01*
X174600001Y-139548000D01*
X132740000Y-139548000D01*
X132740000Y-134711677D01*
X151221000Y-134711677D01*
X151221000Y-135544323D01*
X151383441Y-136360971D01*
X151702081Y-137130235D01*
X152164674Y-137822556D01*
X152753444Y-138411326D01*
X153445765Y-138873919D01*
X154215029Y-139192559D01*
X155031677Y-139355000D01*
X155864323Y-139355000D01*
X156680971Y-139192559D01*
X157450235Y-138873919D01*
X158142556Y-138411326D01*
X158731326Y-137822556D01*
X159193919Y-137130235D01*
X159512559Y-136360971D01*
X159675000Y-135544323D01*
X159675000Y-134711677D01*
X159516343Y-133914050D01*
X160687000Y-133914050D01*
X160687000Y-134309949D01*
X160708487Y-134528110D01*
X160793401Y-134808033D01*
X160931294Y-135066013D01*
X161116866Y-135292134D01*
X161342986Y-135477706D01*
X161600966Y-135615599D01*
X161880889Y-135700513D01*
X162172000Y-135729185D01*
X162463110Y-135700513D01*
X162743033Y-135615599D01*
X163001013Y-135477706D01*
X163227134Y-135292134D01*
X163412706Y-135066014D01*
X163422000Y-135048626D01*
X163431294Y-135066013D01*
X163616866Y-135292134D01*
X163842986Y-135477706D01*
X164100966Y-135615599D01*
X164380889Y-135700513D01*
X164672000Y-135729185D01*
X164963110Y-135700513D01*
X165243033Y-135615599D01*
X165501013Y-135477706D01*
X165727134Y-135292134D01*
X165912706Y-135066014D01*
X165926462Y-135040278D01*
X166082951Y-135246429D01*
X166300807Y-135439496D01*
X166552142Y-135586352D01*
X166815110Y-135678476D01*
X167045000Y-135557155D01*
X167045000Y-134239000D01*
X167025000Y-134239000D01*
X167025000Y-133985000D01*
X167045000Y-133985000D01*
X167045000Y-132666845D01*
X167299000Y-132666845D01*
X167299000Y-133985000D01*
X167319000Y-133985000D01*
X167319000Y-134239000D01*
X167299000Y-134239000D01*
X167299000Y-135557155D01*
X167528890Y-135678476D01*
X167791858Y-135586352D01*
X168043193Y-135439496D01*
X168261049Y-135246429D01*
X168277286Y-135225039D01*
X168333595Y-135330386D01*
X168444038Y-135464962D01*
X168578614Y-135575405D01*
X168732150Y-135657472D01*
X168898746Y-135708008D01*
X169072000Y-135725072D01*
X170272000Y-135725072D01*
X170445254Y-135708008D01*
X170611850Y-135657472D01*
X170765386Y-135575405D01*
X170899962Y-135464962D01*
X171010405Y-135330386D01*
X171092472Y-135176850D01*
X171143008Y-135010254D01*
X171160072Y-134837000D01*
X171160072Y-133387000D01*
X171143008Y-133213746D01*
X171092472Y-133047150D01*
X171010405Y-132893614D01*
X170899962Y-132759038D01*
X170765386Y-132648595D01*
X170611850Y-132566528D01*
X170445254Y-132515992D01*
X170272000Y-132498928D01*
X169072000Y-132498928D01*
X168898746Y-132515992D01*
X168732150Y-132566528D01*
X168578614Y-132648595D01*
X168444038Y-132759038D01*
X168333595Y-132893614D01*
X168277286Y-132998961D01*
X168261049Y-132977571D01*
X168043193Y-132784504D01*
X167791858Y-132637648D01*
X167528890Y-132545524D01*
X167299000Y-132666845D01*
X167045000Y-132666845D01*
X166815110Y-132545524D01*
X166552142Y-132637648D01*
X166300807Y-132784504D01*
X166082951Y-132977571D01*
X165926462Y-133183722D01*
X165912706Y-133157986D01*
X165727134Y-132931866D01*
X165501014Y-132746294D01*
X165243034Y-132608401D01*
X164963111Y-132523487D01*
X164672000Y-132494815D01*
X164380890Y-132523487D01*
X164100967Y-132608401D01*
X163842987Y-132746294D01*
X163616866Y-132931866D01*
X163431294Y-133157986D01*
X163422000Y-133175374D01*
X163412706Y-133157986D01*
X163227134Y-132931866D01*
X163001014Y-132746294D01*
X162743034Y-132608401D01*
X162463111Y-132523487D01*
X162172000Y-132494815D01*
X161880890Y-132523487D01*
X161600967Y-132608401D01*
X161342987Y-132746294D01*
X161116866Y-132931866D01*
X160931294Y-133157986D01*
X160793401Y-133415966D01*
X160708487Y-133695889D01*
X160687000Y-133914050D01*
X159516343Y-133914050D01*
X159512559Y-133895029D01*
X159193919Y-133125765D01*
X158731326Y-132433444D01*
X158142556Y-131844674D01*
X157450235Y-131382081D01*
X156680971Y-131063441D01*
X155864323Y-130901000D01*
X155031677Y-130901000D01*
X154215029Y-131063441D01*
X153445765Y-131382081D01*
X152753444Y-131844674D01*
X152164674Y-132433444D01*
X151702081Y-133125765D01*
X151383441Y-133895029D01*
X151221000Y-134711677D01*
X132740000Y-134711677D01*
X132740000Y-132429039D01*
X141356096Y-132429039D01*
X141396754Y-132563087D01*
X141516963Y-132817420D01*
X141684481Y-133043414D01*
X141892869Y-133232385D01*
X142134119Y-133377070D01*
X142398960Y-133471909D01*
X142621000Y-133350624D01*
X142621000Y-132207000D01*
X142875000Y-132207000D01*
X142875000Y-133350624D01*
X143097040Y-133471909D01*
X143361881Y-133377070D01*
X143603131Y-133232385D01*
X143811519Y-133043414D01*
X143979037Y-132817420D01*
X144099246Y-132563087D01*
X144139904Y-132429039D01*
X144017915Y-132207000D01*
X142875000Y-132207000D01*
X142621000Y-132207000D01*
X141478085Y-132207000D01*
X141356096Y-132429039D01*
X132740000Y-132429039D01*
X132740000Y-128740000D01*
X141309928Y-128740000D01*
X141309928Y-130340000D01*
X141322188Y-130464482D01*
X141358498Y-130584180D01*
X141417463Y-130694494D01*
X141496815Y-130791185D01*
X141593506Y-130870537D01*
X141703820Y-130929502D01*
X141823518Y-130965812D01*
X141848080Y-130968231D01*
X141684481Y-131116586D01*
X141516963Y-131342580D01*
X141396754Y-131596913D01*
X141356096Y-131730961D01*
X141478085Y-131953000D01*
X142621000Y-131953000D01*
X142621000Y-131933000D01*
X142875000Y-131933000D01*
X142875000Y-131953000D01*
X144017915Y-131953000D01*
X144139904Y-131730961D01*
X144099246Y-131596913D01*
X143979037Y-131342580D01*
X143811519Y-131116586D01*
X143647920Y-130968231D01*
X143672482Y-130965812D01*
X143792180Y-130929502D01*
X143902494Y-130870537D01*
X143999185Y-130791185D01*
X144078537Y-130694494D01*
X144137502Y-130584180D01*
X144173812Y-130464482D01*
X144186072Y-130340000D01*
X144186072Y-129398665D01*
X148933000Y-129398665D01*
X148933000Y-129681335D01*
X148988147Y-129958574D01*
X149096320Y-130219727D01*
X149253363Y-130454759D01*
X149453241Y-130654637D01*
X149685759Y-130810000D01*
X149453241Y-130965363D01*
X149253363Y-131165241D01*
X149096320Y-131400273D01*
X148988147Y-131661426D01*
X148933000Y-131938665D01*
X148933000Y-132221335D01*
X148988147Y-132498574D01*
X149096320Y-132759727D01*
X149253363Y-132994759D01*
X149453241Y-133194637D01*
X149688273Y-133351680D01*
X149949426Y-133459853D01*
X150226665Y-133515000D01*
X150509335Y-133515000D01*
X150786574Y-133459853D01*
X151047727Y-133351680D01*
X151282759Y-133194637D01*
X151482637Y-132994759D01*
X151639680Y-132759727D01*
X151747853Y-132498574D01*
X151803000Y-132221335D01*
X151803000Y-131938665D01*
X151747853Y-131661426D01*
X151639680Y-131400273D01*
X151482637Y-131165241D01*
X151282759Y-130965363D01*
X151050241Y-130810000D01*
X151282759Y-130654637D01*
X151482637Y-130454759D01*
X151639680Y-130219727D01*
X151747853Y-129958574D01*
X151803000Y-129681335D01*
X151803000Y-129398665D01*
X151747853Y-129121426D01*
X151639680Y-128860273D01*
X151482637Y-128625241D01*
X151381396Y-128524000D01*
X155581388Y-128524000D01*
X155603785Y-128751400D01*
X155670115Y-128970060D01*
X155777829Y-129171579D01*
X155922788Y-129348212D01*
X156099421Y-129493171D01*
X156300940Y-129600885D01*
X156519600Y-129667215D01*
X156690021Y-129684000D01*
X157253979Y-129684000D01*
X157424400Y-129667215D01*
X157643060Y-129600885D01*
X157844579Y-129493171D01*
X158021212Y-129348212D01*
X158166171Y-129171579D01*
X158273885Y-128970060D01*
X158340215Y-128751400D01*
X158362612Y-128524000D01*
X158340215Y-128296600D01*
X158273885Y-128077940D01*
X158173071Y-127889331D01*
X158214275Y-127830882D01*
X158307272Y-127621337D01*
X158315964Y-127559810D01*
X158190163Y-127381000D01*
X157425109Y-127381000D01*
X157424400Y-127380785D01*
X157253979Y-127364000D01*
X156690021Y-127364000D01*
X156519600Y-127380785D01*
X156518891Y-127381000D01*
X155753837Y-127381000D01*
X155628036Y-127559810D01*
X155636728Y-127621337D01*
X155729725Y-127830882D01*
X155770929Y-127889331D01*
X155670115Y-128077940D01*
X155603785Y-128296600D01*
X155581388Y-128524000D01*
X151381396Y-128524000D01*
X151282759Y-128425363D01*
X151047727Y-128268320D01*
X150786574Y-128160147D01*
X150509335Y-128105000D01*
X150226665Y-128105000D01*
X149949426Y-128160147D01*
X149688273Y-128268320D01*
X149453241Y-128425363D01*
X149253363Y-128625241D01*
X149096320Y-128860273D01*
X148988147Y-129121426D01*
X148933000Y-129398665D01*
X144186072Y-129398665D01*
X144186072Y-128740000D01*
X144173812Y-128615518D01*
X144137502Y-128495820D01*
X144078537Y-128385506D01*
X143999185Y-128288815D01*
X143902494Y-128209463D01*
X143792180Y-128150498D01*
X143672482Y-128114188D01*
X143548000Y-128101928D01*
X141948000Y-128101928D01*
X141823518Y-128114188D01*
X141703820Y-128150498D01*
X141593506Y-128209463D01*
X141496815Y-128288815D01*
X141417463Y-128385506D01*
X141358498Y-128495820D01*
X141322188Y-128615518D01*
X141309928Y-128740000D01*
X132740000Y-128740000D01*
X132740000Y-106532401D01*
X133121400Y-106532401D01*
X133121400Y-106827599D01*
X133178990Y-107117125D01*
X133291958Y-107389853D01*
X133455961Y-107635302D01*
X133664698Y-107844039D01*
X133823281Y-107950000D01*
X133664698Y-108055961D01*
X133455961Y-108264698D01*
X133291958Y-108510147D01*
X133178990Y-108782875D01*
X133121400Y-109072401D01*
X133121400Y-109367599D01*
X133178990Y-109657125D01*
X133291958Y-109929853D01*
X133455961Y-110175302D01*
X133664698Y-110384039D01*
X133823281Y-110490000D01*
X133664698Y-110595961D01*
X133455961Y-110804698D01*
X133291958Y-111050147D01*
X133178990Y-111322875D01*
X133121400Y-111612401D01*
X133121400Y-111907599D01*
X133178990Y-112197125D01*
X133291958Y-112469853D01*
X133455961Y-112715302D01*
X133664698Y-112924039D01*
X133823281Y-113030000D01*
X133664698Y-113135961D01*
X133455961Y-113344698D01*
X133291958Y-113590147D01*
X133178990Y-113862875D01*
X133121400Y-114152401D01*
X133121400Y-114447599D01*
X133178990Y-114737125D01*
X133291958Y-115009853D01*
X133455961Y-115255302D01*
X133664698Y-115464039D01*
X133823281Y-115570000D01*
X133664698Y-115675961D01*
X133455961Y-115884698D01*
X133291958Y-116130147D01*
X133178990Y-116402875D01*
X133121400Y-116692401D01*
X133121400Y-116987599D01*
X133178990Y-117277125D01*
X133291958Y-117549853D01*
X133455961Y-117795302D01*
X133664698Y-118004039D01*
X133823281Y-118110000D01*
X133664698Y-118215961D01*
X133455961Y-118424698D01*
X133291958Y-118670147D01*
X133178990Y-118942875D01*
X133121400Y-119232401D01*
X133121400Y-119527599D01*
X133178990Y-119817125D01*
X133291958Y-120089853D01*
X133455961Y-120335302D01*
X133664698Y-120544039D01*
X133823281Y-120650000D01*
X133664698Y-120755961D01*
X133455961Y-120964698D01*
X133291958Y-121210147D01*
X133178990Y-121482875D01*
X133121400Y-121772401D01*
X133121400Y-122067599D01*
X133178990Y-122357125D01*
X133291958Y-122629853D01*
X133455961Y-122875302D01*
X133664698Y-123084039D01*
X133823281Y-123190000D01*
X133664698Y-123295961D01*
X133455961Y-123504698D01*
X133291958Y-123750147D01*
X133178990Y-124022875D01*
X133121400Y-124312401D01*
X133121400Y-124607599D01*
X133178990Y-124897125D01*
X133291958Y-125169853D01*
X133455961Y-125415302D01*
X133664698Y-125624039D01*
X133910147Y-125788042D01*
X134182875Y-125901010D01*
X134472401Y-125958600D01*
X134767599Y-125958600D01*
X135057125Y-125901010D01*
X135329853Y-125788042D01*
X135575302Y-125624039D01*
X135784039Y-125415302D01*
X135948042Y-125169853D01*
X136061010Y-124897125D01*
X136118600Y-124607599D01*
X136118600Y-124312401D01*
X136061010Y-124022875D01*
X135948042Y-123750147D01*
X135784039Y-123504698D01*
X135575302Y-123295961D01*
X135416719Y-123190000D01*
X135575302Y-123084039D01*
X135784039Y-122875302D01*
X135948042Y-122629853D01*
X136061010Y-122357125D01*
X136118600Y-122067599D01*
X136118600Y-121772401D01*
X136061010Y-121482875D01*
X135948042Y-121210147D01*
X135784039Y-120964698D01*
X135575302Y-120755961D01*
X135416719Y-120650000D01*
X135575302Y-120544039D01*
X135784039Y-120335302D01*
X135948042Y-120089853D01*
X136061010Y-119817125D01*
X136118600Y-119527599D01*
X136118600Y-119413401D01*
X144216201Y-127511003D01*
X144239999Y-127540001D01*
X144355724Y-127634974D01*
X144487753Y-127705546D01*
X144631014Y-127749003D01*
X144742667Y-127760000D01*
X144742675Y-127760000D01*
X144780000Y-127763676D01*
X144817325Y-127760000D01*
X151854678Y-127760000D01*
X151892000Y-127763676D01*
X151929322Y-127760000D01*
X151929333Y-127760000D01*
X152040986Y-127749003D01*
X152184247Y-127705546D01*
X152316276Y-127634974D01*
X152432001Y-127540001D01*
X152455804Y-127510998D01*
X153419003Y-126547799D01*
X153448001Y-126524001D01*
X153500526Y-126459999D01*
X153542974Y-126408277D01*
X153613546Y-126276247D01*
X153624541Y-126240000D01*
X153657003Y-126132986D01*
X153668000Y-126021333D01*
X153668000Y-126021323D01*
X153671676Y-125984000D01*
X153668000Y-125946678D01*
X153668000Y-125459000D01*
X155583928Y-125459000D01*
X155583928Y-126509000D01*
X155596188Y-126633482D01*
X155632498Y-126753180D01*
X155667176Y-126818057D01*
X155636728Y-126886663D01*
X155628036Y-126948190D01*
X155753837Y-127127000D01*
X156071765Y-127127000D01*
X156097518Y-127134812D01*
X156222000Y-127147072D01*
X157722000Y-127147072D01*
X157846482Y-127134812D01*
X157872235Y-127127000D01*
X158190163Y-127127000D01*
X158315964Y-126948190D01*
X158307272Y-126886663D01*
X158276824Y-126818057D01*
X158311502Y-126753180D01*
X158347812Y-126633482D01*
X158360072Y-126509000D01*
X158360072Y-125459000D01*
X158347812Y-125334518D01*
X158311502Y-125214820D01*
X158252537Y-125104506D01*
X158173185Y-125007815D01*
X158076494Y-124928463D01*
X157966180Y-124869498D01*
X157846482Y-124833188D01*
X157722000Y-124820928D01*
X156222000Y-124820928D01*
X156097518Y-124833188D01*
X155977820Y-124869498D01*
X155867506Y-124928463D01*
X155770815Y-125007815D01*
X155691463Y-125104506D01*
X155632498Y-125214820D01*
X155596188Y-125334518D01*
X155583928Y-125459000D01*
X153668000Y-125459000D01*
X153668000Y-123250801D01*
X155000802Y-121918000D01*
X155704292Y-121918000D01*
X155670115Y-121981940D01*
X155603785Y-122200600D01*
X155581388Y-122428000D01*
X155603785Y-122655400D01*
X155670115Y-122874060D01*
X155777829Y-123075579D01*
X155922788Y-123252212D01*
X156099421Y-123397171D01*
X156300940Y-123504885D01*
X156519600Y-123571215D01*
X156690021Y-123588000D01*
X157253979Y-123588000D01*
X157424400Y-123571215D01*
X157643060Y-123504885D01*
X157844579Y-123397171D01*
X158021212Y-123252212D01*
X158166171Y-123075579D01*
X158273885Y-122874060D01*
X158340215Y-122655400D01*
X158362612Y-122428000D01*
X158340215Y-122200600D01*
X158273885Y-121981940D01*
X158172895Y-121793000D01*
X158273885Y-121604060D01*
X158340215Y-121385400D01*
X158362612Y-121158000D01*
X158340215Y-120930600D01*
X158276907Y-120721902D01*
X158311502Y-120657180D01*
X158347812Y-120537482D01*
X158360072Y-120413000D01*
X158357000Y-120173750D01*
X158198250Y-120015000D01*
X157425109Y-120015000D01*
X157424400Y-120014785D01*
X157253979Y-119998000D01*
X156690021Y-119998000D01*
X156519600Y-120014785D01*
X156518891Y-120015000D01*
X155745750Y-120015000D01*
X155587000Y-120173750D01*
X155584121Y-120398000D01*
X154723325Y-120398000D01*
X154686000Y-120394324D01*
X154648675Y-120398000D01*
X154648667Y-120398000D01*
X154537014Y-120408997D01*
X154393753Y-120452454D01*
X154261724Y-120523026D01*
X154145999Y-120617999D01*
X154122201Y-120646997D01*
X152397003Y-122372196D01*
X152367999Y-122395999D01*
X152341737Y-122428000D01*
X152273026Y-122511724D01*
X152209884Y-122629853D01*
X152202454Y-122643754D01*
X152158997Y-122787015D01*
X152148000Y-122898668D01*
X152148000Y-122898678D01*
X152144324Y-122936000D01*
X152148000Y-122973323D01*
X152148001Y-125669197D01*
X151577199Y-126240000D01*
X145094802Y-126240000D01*
X136072776Y-117217975D01*
X136118600Y-116987599D01*
X136118600Y-116692401D01*
X136061010Y-116402875D01*
X135948042Y-116130147D01*
X135784039Y-115884698D01*
X135575302Y-115675961D01*
X135416719Y-115570000D01*
X135575302Y-115464039D01*
X135784039Y-115255302D01*
X135948042Y-115009853D01*
X136061010Y-114737125D01*
X136118600Y-114447599D01*
X136118600Y-114152401D01*
X136061010Y-113862875D01*
X135948042Y-113590147D01*
X135784039Y-113344698D01*
X135575302Y-113135961D01*
X135416719Y-113030000D01*
X135575302Y-112924039D01*
X135784039Y-112715302D01*
X135948042Y-112469853D01*
X136061010Y-112197125D01*
X136118600Y-111907599D01*
X136118600Y-111612401D01*
X136061010Y-111322875D01*
X135948042Y-111050147D01*
X135784039Y-110804698D01*
X135575302Y-110595961D01*
X135416719Y-110490000D01*
X135575302Y-110384039D01*
X135784039Y-110175302D01*
X135948042Y-109929853D01*
X136061010Y-109657125D01*
X136118600Y-109367599D01*
X136118600Y-109072401D01*
X136061010Y-108782875D01*
X135948042Y-108510147D01*
X135784039Y-108264698D01*
X135575302Y-108055961D01*
X135416719Y-107950000D01*
X135575302Y-107844039D01*
X135784039Y-107635302D01*
X135948042Y-107389853D01*
X136061010Y-107117125D01*
X136118600Y-106827599D01*
X136118600Y-106532401D01*
X136061010Y-106242875D01*
X135948042Y-105970147D01*
X135784039Y-105724698D01*
X135575302Y-105515961D01*
X135407125Y-105403589D01*
X135478499Y-105178104D01*
X134620000Y-104319605D01*
X133761501Y-105178104D01*
X133832875Y-105403589D01*
X133664698Y-105515961D01*
X133455961Y-105724698D01*
X133291958Y-105970147D01*
X133178990Y-106242875D01*
X133121400Y-106532401D01*
X132740000Y-106532401D01*
X132740000Y-104207993D01*
X133115685Y-104207993D01*
X133157855Y-104500164D01*
X133256214Y-104778493D01*
X133331433Y-104919218D01*
X133581896Y-104998499D01*
X134440395Y-104140000D01*
X134799605Y-104140000D01*
X135658104Y-104998499D01*
X135908567Y-104919218D01*
X136035826Y-104652859D01*
X136108675Y-104366790D01*
X136124315Y-104072007D01*
X136082145Y-103779836D01*
X135983786Y-103501507D01*
X135908567Y-103360782D01*
X135658104Y-103281501D01*
X134799605Y-104140000D01*
X134440395Y-104140000D01*
X133581896Y-103281501D01*
X133331433Y-103360782D01*
X133204174Y-103627141D01*
X133131325Y-103913210D01*
X133115685Y-104207993D01*
X132740000Y-104207993D01*
X132740000Y-96372401D01*
X133121400Y-96372401D01*
X133121400Y-96667599D01*
X133178990Y-96957125D01*
X133291958Y-97229853D01*
X133455961Y-97475302D01*
X133664698Y-97684039D01*
X133823281Y-97790000D01*
X133664698Y-97895961D01*
X133455961Y-98104698D01*
X133291958Y-98350147D01*
X133178990Y-98622875D01*
X133121400Y-98912401D01*
X133121400Y-99207599D01*
X133178990Y-99497125D01*
X133291958Y-99769853D01*
X133455961Y-100015302D01*
X133664698Y-100224039D01*
X133823281Y-100330000D01*
X133664698Y-100435961D01*
X133455961Y-100644698D01*
X133291958Y-100890147D01*
X133178990Y-101162875D01*
X133121400Y-101452401D01*
X133121400Y-101747599D01*
X133178990Y-102037125D01*
X133291958Y-102309853D01*
X133455961Y-102555302D01*
X133664698Y-102764039D01*
X133832875Y-102876411D01*
X133761501Y-103101896D01*
X134620000Y-103960395D01*
X135478499Y-103101896D01*
X135407125Y-102876411D01*
X135575302Y-102764039D01*
X135784039Y-102555302D01*
X135948042Y-102309853D01*
X136061010Y-102037125D01*
X136118600Y-101747599D01*
X136118600Y-101452401D01*
X136061010Y-101162875D01*
X135948042Y-100890147D01*
X135784039Y-100644698D01*
X135575302Y-100435961D01*
X135416719Y-100330000D01*
X135575302Y-100224039D01*
X135784039Y-100015302D01*
X135948042Y-99769853D01*
X136061010Y-99497125D01*
X136118600Y-99207599D01*
X136118600Y-98912401D01*
X136061010Y-98622875D01*
X135948042Y-98350147D01*
X135784039Y-98104698D01*
X135575302Y-97895961D01*
X135416719Y-97790000D01*
X135575302Y-97684039D01*
X135784039Y-97475302D01*
X135948042Y-97229853D01*
X136061010Y-96957125D01*
X136118600Y-96667599D01*
X136118600Y-96372401D01*
X136061010Y-96082875D01*
X135948042Y-95810147D01*
X135784039Y-95564698D01*
X135575302Y-95355961D01*
X135329853Y-95191958D01*
X135057125Y-95078990D01*
X134767599Y-95021400D01*
X134472401Y-95021400D01*
X134182875Y-95078990D01*
X133910147Y-95191958D01*
X133664698Y-95355961D01*
X133455961Y-95564698D01*
X133291958Y-95810147D01*
X133178990Y-96082875D01*
X133121400Y-96372401D01*
X132740000Y-96372401D01*
X132740000Y-92100000D01*
X164114878Y-92100000D01*
X164091059Y-92135647D01*
G37*
X164091059Y-92135647D02*
X163918811Y-92551490D01*
X163831000Y-92992947D01*
X163831000Y-93443053D01*
X163918811Y-93884510D01*
X164091059Y-94300353D01*
X164341125Y-94674603D01*
X164659397Y-94992875D01*
X165033647Y-95242941D01*
X165449490Y-95415189D01*
X165890947Y-95503000D01*
X166341053Y-95503000D01*
X166782510Y-95415189D01*
X167198353Y-95242941D01*
X167572603Y-94992875D01*
X167890875Y-94674603D01*
X168140941Y-94300353D01*
X168313189Y-93884510D01*
X168401000Y-93443053D01*
X168401000Y-92992947D01*
X168313189Y-92551490D01*
X168140941Y-92135647D01*
X168117122Y-92100000D01*
X174600000Y-92100000D01*
X174600000Y-110504492D01*
X174530001Y-110419197D01*
X174501003Y-110395399D01*
X160114606Y-96009003D01*
X160090803Y-95979999D01*
X159975078Y-95885026D01*
X159843049Y-95814454D01*
X159699788Y-95770997D01*
X159588135Y-95760000D01*
X159588124Y-95760000D01*
X159550802Y-95756324D01*
X159513480Y-95760000D01*
X151361672Y-95760000D01*
X151361672Y-95656400D01*
X151349412Y-95531918D01*
X151313102Y-95412220D01*
X151254137Y-95301906D01*
X151174785Y-95205215D01*
X151078094Y-95125863D01*
X150967780Y-95066898D01*
X150848082Y-95030588D01*
X150723600Y-95018328D01*
X148996400Y-95018328D01*
X148871918Y-95030588D01*
X148752220Y-95066898D01*
X148641906Y-95125863D01*
X148545215Y-95205215D01*
X148465863Y-95301906D01*
X148406898Y-95412220D01*
X148370588Y-95531918D01*
X148358328Y-95656400D01*
X148358328Y-97383600D01*
X148370588Y-97508082D01*
X148406898Y-97627780D01*
X148465863Y-97738094D01*
X148545215Y-97834785D01*
X148641906Y-97914137D01*
X148752220Y-97973102D01*
X148871918Y-98009412D01*
X148996400Y-98021672D01*
X149001572Y-98021672D01*
X149001501Y-98021896D01*
X149860000Y-98880395D01*
X150718499Y-98021896D01*
X150718428Y-98021672D01*
X150723600Y-98021672D01*
X150848082Y-98009412D01*
X150967780Y-97973102D01*
X151078094Y-97914137D01*
X151174785Y-97834785D01*
X151254137Y-97738094D01*
X151313102Y-97627780D01*
X151349412Y-97508082D01*
X151361672Y-97383600D01*
X151361672Y-97280000D01*
X159236001Y-97280000D01*
X171552248Y-109596248D01*
X171498429Y-109618541D01*
X171290422Y-109757527D01*
X171113527Y-109934422D01*
X171100000Y-109954667D01*
X171086473Y-109934422D01*
X170909578Y-109757527D01*
X170701571Y-109618541D01*
X170470445Y-109522805D01*
X170225084Y-109474000D01*
X169974916Y-109474000D01*
X169729555Y-109522805D01*
X169498429Y-109618541D01*
X169290422Y-109757527D01*
X169113527Y-109934422D01*
X169100000Y-109954667D01*
X169086473Y-109934422D01*
X168909578Y-109757527D01*
X168701571Y-109618541D01*
X168470445Y-109522805D01*
X168225084Y-109474000D01*
X167974916Y-109474000D01*
X167729555Y-109522805D01*
X167498429Y-109618541D01*
X167290422Y-109757527D01*
X167113527Y-109934422D01*
X167100000Y-109954667D01*
X167086473Y-109934422D01*
X166909578Y-109757527D01*
X166701571Y-109618541D01*
X166470445Y-109522805D01*
X166225084Y-109474000D01*
X165974916Y-109474000D01*
X165729555Y-109522805D01*
X165498429Y-109618541D01*
X165290422Y-109757527D01*
X165113527Y-109934422D01*
X165100000Y-109954667D01*
X165086473Y-109934422D01*
X164909578Y-109757527D01*
X164701571Y-109618541D01*
X164470445Y-109522805D01*
X164225084Y-109474000D01*
X163974916Y-109474000D01*
X163729555Y-109522805D01*
X163498429Y-109618541D01*
X163290422Y-109757527D01*
X163113527Y-109934422D01*
X163100000Y-109954667D01*
X163086473Y-109934422D01*
X162909578Y-109757527D01*
X162701571Y-109618541D01*
X162470445Y-109522805D01*
X162225084Y-109474000D01*
X161974916Y-109474000D01*
X161729555Y-109522805D01*
X161498429Y-109618541D01*
X161290422Y-109757527D01*
X161113527Y-109934422D01*
X161094677Y-109962632D01*
X161051018Y-109902288D01*
X160868535Y-109732927D01*
X160656517Y-109602421D01*
X160423113Y-109515785D01*
X160227000Y-109639110D01*
X160227000Y-110617000D01*
X160247000Y-110617000D01*
X160247000Y-110871000D01*
X160227000Y-110871000D01*
X160227000Y-111848890D01*
X160423113Y-111972215D01*
X160656517Y-111885579D01*
X160868535Y-111755073D01*
X161051018Y-111585712D01*
X161094677Y-111525368D01*
X161113527Y-111553578D01*
X161290422Y-111730473D01*
X161498429Y-111869459D01*
X161729555Y-111965195D01*
X161974916Y-112014000D01*
X162225084Y-112014000D01*
X162470445Y-111965195D01*
X162701571Y-111869459D01*
X162909578Y-111730473D01*
X163086473Y-111553578D01*
X163100000Y-111533333D01*
X163113527Y-111553578D01*
X163290422Y-111730473D01*
X163340001Y-111763600D01*
X163340001Y-112445197D01*
X159705199Y-116080000D01*
X151154535Y-116080000D01*
X151024039Y-115884698D01*
X150815302Y-115675961D01*
X150656719Y-115570000D01*
X150815302Y-115464039D01*
X151024039Y-115255302D01*
X151188042Y-115009853D01*
X151301010Y-114737125D01*
X151358600Y-114447599D01*
X151358600Y-114152401D01*
X151301010Y-113862875D01*
X151188042Y-113590147D01*
X151024039Y-113344698D01*
X150815302Y-113135961D01*
X150656719Y-113030000D01*
X150815302Y-112924039D01*
X151024039Y-112715302D01*
X151188042Y-112469853D01*
X151301010Y-112197125D01*
X151358600Y-111907599D01*
X151358600Y-111612401D01*
X151301010Y-111322875D01*
X151188042Y-111050147D01*
X151024039Y-110804698D01*
X150838257Y-110618916D01*
X156830000Y-110618916D01*
X156830000Y-110869084D01*
X156878805Y-111114445D01*
X156974541Y-111345571D01*
X157113527Y-111553578D01*
X157290422Y-111730473D01*
X157498429Y-111869459D01*
X157729555Y-111965195D01*
X157974916Y-112014000D01*
X158225084Y-112014000D01*
X158470445Y-111965195D01*
X158701571Y-111869459D01*
X158909578Y-111730473D01*
X159086473Y-111553578D01*
X159105323Y-111525368D01*
X159148982Y-111585712D01*
X159331465Y-111755073D01*
X159543483Y-111885579D01*
X159776887Y-111972215D01*
X159973000Y-111848890D01*
X159973000Y-110871000D01*
X159953000Y-110871000D01*
X159953000Y-110617000D01*
X159973000Y-110617000D01*
X159973000Y-109639110D01*
X159776887Y-109515785D01*
X159543483Y-109602421D01*
X159331465Y-109732927D01*
X159148982Y-109902288D01*
X159105323Y-109962632D01*
X159086473Y-109934422D01*
X158909578Y-109757527D01*
X158701571Y-109618541D01*
X158470445Y-109522805D01*
X158225084Y-109474000D01*
X157974916Y-109474000D01*
X157729555Y-109522805D01*
X157498429Y-109618541D01*
X157290422Y-109757527D01*
X157113527Y-109934422D01*
X156974541Y-110142429D01*
X156878805Y-110373555D01*
X156830000Y-110618916D01*
X150838257Y-110618916D01*
X150815302Y-110595961D01*
X150656719Y-110490000D01*
X150815302Y-110384039D01*
X151024039Y-110175302D01*
X151188042Y-109929853D01*
X151301010Y-109657125D01*
X151358600Y-109367599D01*
X151358600Y-109072401D01*
X151301010Y-108782875D01*
X151188042Y-108510147D01*
X151024039Y-108264698D01*
X150815302Y-108055961D01*
X150656719Y-107950000D01*
X150815302Y-107844039D01*
X151024039Y-107635302D01*
X151188042Y-107389853D01*
X151301010Y-107117125D01*
X151358600Y-106827599D01*
X151358600Y-106532401D01*
X151301010Y-106242875D01*
X151188042Y-105970147D01*
X151024039Y-105724698D01*
X150909977Y-105610636D01*
X150967780Y-105593102D01*
X151078094Y-105534137D01*
X151174785Y-105454785D01*
X151254137Y-105358094D01*
X151313102Y-105247780D01*
X151349412Y-105128082D01*
X151361672Y-105003600D01*
X151361672Y-103276400D01*
X151349412Y-103151918D01*
X151313102Y-103032220D01*
X151254137Y-102921906D01*
X151174785Y-102825215D01*
X151078094Y-102745863D01*
X150967780Y-102686898D01*
X150909977Y-102669364D01*
X151024039Y-102555302D01*
X151188042Y-102309853D01*
X151301010Y-102037125D01*
X151358600Y-101747599D01*
X151358600Y-101452401D01*
X151301010Y-101162875D01*
X151188042Y-100890147D01*
X151024039Y-100644698D01*
X150815302Y-100435961D01*
X150647125Y-100323589D01*
X150718499Y-100098104D01*
X149860000Y-99239605D01*
X149001501Y-100098104D01*
X149072875Y-100323589D01*
X148904698Y-100435961D01*
X148695961Y-100644698D01*
X148565465Y-100840000D01*
X146722322Y-100840000D01*
X146684999Y-100836324D01*
X146647676Y-100840000D01*
X146647667Y-100840000D01*
X146536014Y-100850997D01*
X146406952Y-100890147D01*
X146392753Y-100894454D01*
X146260723Y-100965026D01*
X146186348Y-101026065D01*
X146144999Y-101059999D01*
X146121201Y-101088997D01*
X144845000Y-102365198D01*
X144845000Y-102103514D01*
X144793696Y-101845595D01*
X144693061Y-101602641D01*
X144546962Y-101383987D01*
X144361013Y-101198038D01*
X144142359Y-101051939D01*
X143932470Y-100965000D01*
X144142359Y-100878061D01*
X144361013Y-100731962D01*
X144546962Y-100546013D01*
X144693061Y-100327359D01*
X144793696Y-100084405D01*
X144845000Y-99826486D01*
X144845000Y-99563514D01*
X144793696Y-99305595D01*
X144720131Y-99127993D01*
X148355685Y-99127993D01*
X148397855Y-99420164D01*
X148496214Y-99698493D01*
X148571433Y-99839218D01*
X148821896Y-99918499D01*
X149680395Y-99060000D01*
X150039605Y-99060000D01*
X150898104Y-99918499D01*
X151148567Y-99839218D01*
X151275826Y-99572859D01*
X151348675Y-99286790D01*
X151364315Y-98992007D01*
X151322145Y-98699836D01*
X151223786Y-98421507D01*
X151148567Y-98280782D01*
X150898104Y-98201501D01*
X150039605Y-99060000D01*
X149680395Y-99060000D01*
X148821896Y-98201501D01*
X148571433Y-98280782D01*
X148444174Y-98547141D01*
X148371325Y-98833210D01*
X148355685Y-99127993D01*
X144720131Y-99127993D01*
X144693061Y-99062641D01*
X144546962Y-98843987D01*
X144361013Y-98658038D01*
X144142359Y-98511939D01*
X143899405Y-98411304D01*
X143641486Y-98360000D01*
X143378514Y-98360000D01*
X143271157Y-98381355D01*
X142168804Y-97279003D01*
X142145001Y-97249999D01*
X142029276Y-97155026D01*
X141897247Y-97084454D01*
X141753986Y-97040997D01*
X141642333Y-97030000D01*
X141642322Y-97030000D01*
X141605000Y-97026324D01*
X141567678Y-97030000D01*
X140372323Y-97030000D01*
X140335000Y-97026324D01*
X140297677Y-97030000D01*
X140297667Y-97030000D01*
X140186014Y-97040997D01*
X140042753Y-97084454D01*
X139910724Y-97155026D01*
X139794999Y-97249999D01*
X139771201Y-97278997D01*
X137919003Y-99131196D01*
X137889999Y-99154999D01*
X137846832Y-99207599D01*
X137795026Y-99270724D01*
X137776387Y-99305595D01*
X137724454Y-99402754D01*
X137680997Y-99546015D01*
X137670000Y-99657668D01*
X137670000Y-99657678D01*
X137666324Y-99695000D01*
X137670000Y-99732322D01*
X137670001Y-110452667D01*
X137666324Y-110490000D01*
X137670001Y-110527333D01*
X137670749Y-110534922D01*
X137680998Y-110638985D01*
X137724454Y-110782246D01*
X137795026Y-110914276D01*
X137866201Y-111001002D01*
X137890000Y-111030001D01*
X137918998Y-111053799D01*
X148407224Y-121542026D01*
X148361400Y-121772401D01*
X148361400Y-122067599D01*
X148418990Y-122357125D01*
X148531958Y-122629853D01*
X148695961Y-122875302D01*
X148904698Y-123084039D01*
X149063281Y-123190000D01*
X148904698Y-123295961D01*
X148695961Y-123504698D01*
X148531958Y-123750147D01*
X148418990Y-124022875D01*
X148361400Y-124312401D01*
X148361400Y-124607599D01*
X148418990Y-124897125D01*
X148531958Y-125169853D01*
X148695961Y-125415302D01*
X148904698Y-125624039D01*
X149150147Y-125788042D01*
X149422875Y-125901010D01*
X149712401Y-125958600D01*
X150007599Y-125958600D01*
X150297125Y-125901010D01*
X150569853Y-125788042D01*
X150815302Y-125624039D01*
X151024039Y-125415302D01*
X151188042Y-125169853D01*
X151301010Y-124897125D01*
X151358600Y-124607599D01*
X151358600Y-124312401D01*
X151301010Y-124022875D01*
X151188042Y-123750147D01*
X151024039Y-123504698D01*
X150815302Y-123295961D01*
X150656719Y-123190000D01*
X150815302Y-123084039D01*
X151024039Y-122875302D01*
X151188042Y-122629853D01*
X151301010Y-122357125D01*
X151358600Y-122067599D01*
X151358600Y-121772401D01*
X151301010Y-121482875D01*
X151188042Y-121210147D01*
X151024039Y-120964698D01*
X150815302Y-120755961D01*
X150656719Y-120650000D01*
X150815302Y-120544039D01*
X151024039Y-120335302D01*
X151154535Y-120140000D01*
X151346678Y-120140000D01*
X151384000Y-120143676D01*
X151421322Y-120140000D01*
X151421333Y-120140000D01*
X151532986Y-120129003D01*
X151676247Y-120085546D01*
X151808276Y-120014974D01*
X151924001Y-119920001D01*
X151947803Y-119890998D01*
X152475801Y-119363000D01*
X155583928Y-119363000D01*
X155587000Y-119602250D01*
X155745750Y-119761000D01*
X156845000Y-119761000D01*
X156845000Y-118886750D01*
X157099000Y-118886750D01*
X157099000Y-119761000D01*
X158198250Y-119761000D01*
X158357000Y-119602250D01*
X158360072Y-119363000D01*
X158347812Y-119238518D01*
X158311502Y-119118820D01*
X158252537Y-119008506D01*
X158173185Y-118911815D01*
X158076494Y-118832463D01*
X157966180Y-118773498D01*
X157846482Y-118737188D01*
X157722000Y-118724928D01*
X157257750Y-118728000D01*
X157099000Y-118886750D01*
X156845000Y-118886750D01*
X156686250Y-118728000D01*
X156222000Y-118724928D01*
X156097518Y-118737188D01*
X155977820Y-118773498D01*
X155867506Y-118832463D01*
X155770815Y-118911815D01*
X155691463Y-119008506D01*
X155632498Y-119118820D01*
X155596188Y-119238518D01*
X155583928Y-119363000D01*
X152475801Y-119363000D01*
X153222803Y-118616000D01*
X161506678Y-118616000D01*
X161544000Y-118619676D01*
X161581322Y-118616000D01*
X161581333Y-118616000D01*
X161692986Y-118605003D01*
X161836247Y-118561546D01*
X161968276Y-118490974D01*
X162084001Y-118396001D01*
X162107804Y-118366997D01*
X166611004Y-113863798D01*
X166640001Y-113840001D01*
X166690061Y-113779003D01*
X166734974Y-113724277D01*
X166805546Y-113592247D01*
X166812294Y-113570001D01*
X166849003Y-113448986D01*
X166860000Y-113337333D01*
X166860000Y-113337323D01*
X166863676Y-113300000D01*
X166860000Y-113262678D01*
X166860000Y-111763600D01*
X166909578Y-111730473D01*
X167086473Y-111553578D01*
X167100000Y-111533333D01*
X167113527Y-111553578D01*
X167290422Y-111730473D01*
X167498429Y-111869459D01*
X167729555Y-111965195D01*
X167974916Y-112014000D01*
X168225084Y-112014000D01*
X168470445Y-111965195D01*
X168701571Y-111869459D01*
X168909578Y-111730473D01*
X169086473Y-111553578D01*
X169100000Y-111533333D01*
X169113527Y-111553578D01*
X169290422Y-111730473D01*
X169498429Y-111869459D01*
X169729555Y-111965195D01*
X169974916Y-112014000D01*
X170225084Y-112014000D01*
X170470445Y-111965195D01*
X170701571Y-111869459D01*
X170909578Y-111730473D01*
X171086473Y-111553578D01*
X171100000Y-111533333D01*
X171113527Y-111553578D01*
X171290422Y-111730473D01*
X171498429Y-111869459D01*
X171729555Y-111965195D01*
X171974916Y-112014000D01*
X172225084Y-112014000D01*
X172470445Y-111965195D01*
X172701571Y-111869459D01*
X172909578Y-111730473D01*
X173086473Y-111553578D01*
X173225459Y-111345571D01*
X173230001Y-111334606D01*
X173230000Y-115435198D01*
X167505199Y-121160000D01*
X167192072Y-121160000D01*
X167192072Y-120720000D01*
X167179812Y-120595518D01*
X167143502Y-120475820D01*
X167084537Y-120365506D01*
X167005185Y-120268815D01*
X166908494Y-120189463D01*
X166798180Y-120130498D01*
X166678482Y-120094188D01*
X166554000Y-120081928D01*
X164154000Y-120081928D01*
X164029518Y-120094188D01*
X163909820Y-120130498D01*
X163799506Y-120189463D01*
X163702815Y-120268815D01*
X163623463Y-120365506D01*
X163564498Y-120475820D01*
X163528188Y-120595518D01*
X163515928Y-120720000D01*
X163515928Y-123120000D01*
X163528188Y-123244482D01*
X163564498Y-123364180D01*
X163623463Y-123474494D01*
X163702815Y-123571185D01*
X163799506Y-123650537D01*
X163909820Y-123709502D01*
X164029518Y-123745812D01*
X164154000Y-123758072D01*
X166554000Y-123758072D01*
X166678482Y-123745812D01*
X166798180Y-123709502D01*
X166908494Y-123650537D01*
X167005185Y-123571185D01*
X167084537Y-123474494D01*
X167143502Y-123364180D01*
X167179812Y-123244482D01*
X167184391Y-123197980D01*
X169255626Y-123197980D01*
X169375514Y-123482836D01*
X169699210Y-123643699D01*
X170048069Y-123738322D01*
X170408684Y-123763067D01*
X170767198Y-123716985D01*
X171109833Y-123601846D01*
X171332486Y-123482836D01*
X171452374Y-123197980D01*
X170354000Y-122099605D01*
X169255626Y-123197980D01*
X167184391Y-123197980D01*
X167192072Y-123120000D01*
X167192072Y-122680000D01*
X167782678Y-122680000D01*
X167820000Y-122683676D01*
X167857322Y-122680000D01*
X167857333Y-122680000D01*
X167968986Y-122669003D01*
X168112247Y-122625546D01*
X168244276Y-122554974D01*
X168360001Y-122460001D01*
X168383804Y-122430997D01*
X168548426Y-122266375D01*
X168557015Y-122333198D01*
X168672154Y-122675833D01*
X168791164Y-122898486D01*
X169076020Y-123018374D01*
X170174395Y-121920000D01*
X170533605Y-121920000D01*
X171631980Y-123018374D01*
X171916836Y-122898486D01*
X172077699Y-122574790D01*
X172172322Y-122225931D01*
X172197067Y-121865316D01*
X172150985Y-121506802D01*
X172035846Y-121164167D01*
X171916836Y-120941514D01*
X171631980Y-120821626D01*
X170533605Y-121920000D01*
X170174395Y-121920000D01*
X170160253Y-121905858D01*
X170339858Y-121726253D01*
X170354000Y-121740395D01*
X171452374Y-120642020D01*
X171332486Y-120357164D01*
X171008790Y-120196301D01*
X170701774Y-120113027D01*
X174501004Y-116313798D01*
X174530001Y-116290001D01*
X174600001Y-116204706D01*
X174600001Y-139548000D01*
X132740000Y-139548000D01*
X132740000Y-134711677D01*
X151221000Y-134711677D01*
X151221000Y-135544323D01*
X151383441Y-136360971D01*
X151702081Y-137130235D01*
X152164674Y-137822556D01*
X152753444Y-138411326D01*
X153445765Y-138873919D01*
X154215029Y-139192559D01*
X155031677Y-139355000D01*
X155864323Y-139355000D01*
X156680971Y-139192559D01*
X157450235Y-138873919D01*
X158142556Y-138411326D01*
X158731326Y-137822556D01*
X159193919Y-137130235D01*
X159512559Y-136360971D01*
X159675000Y-135544323D01*
X159675000Y-134711677D01*
X159516343Y-133914050D01*
X160687000Y-133914050D01*
X160687000Y-134309949D01*
X160708487Y-134528110D01*
X160793401Y-134808033D01*
X160931294Y-135066013D01*
X161116866Y-135292134D01*
X161342986Y-135477706D01*
X161600966Y-135615599D01*
X161880889Y-135700513D01*
X162172000Y-135729185D01*
X162463110Y-135700513D01*
X162743033Y-135615599D01*
X163001013Y-135477706D01*
X163227134Y-135292134D01*
X163412706Y-135066014D01*
X163422000Y-135048626D01*
X163431294Y-135066013D01*
X163616866Y-135292134D01*
X163842986Y-135477706D01*
X164100966Y-135615599D01*
X164380889Y-135700513D01*
X164672000Y-135729185D01*
X164963110Y-135700513D01*
X165243033Y-135615599D01*
X165501013Y-135477706D01*
X165727134Y-135292134D01*
X165912706Y-135066014D01*
X165926462Y-135040278D01*
X166082951Y-135246429D01*
X166300807Y-135439496D01*
X166552142Y-135586352D01*
X166815110Y-135678476D01*
X167045000Y-135557155D01*
X167045000Y-134239000D01*
X167025000Y-134239000D01*
X167025000Y-133985000D01*
X167045000Y-133985000D01*
X167045000Y-132666845D01*
X167299000Y-132666845D01*
X167299000Y-133985000D01*
X167319000Y-133985000D01*
X167319000Y-134239000D01*
X167299000Y-134239000D01*
X167299000Y-135557155D01*
X167528890Y-135678476D01*
X167791858Y-135586352D01*
X168043193Y-135439496D01*
X168261049Y-135246429D01*
X168277286Y-135225039D01*
X168333595Y-135330386D01*
X168444038Y-135464962D01*
X168578614Y-135575405D01*
X168732150Y-135657472D01*
X168898746Y-135708008D01*
X169072000Y-135725072D01*
X170272000Y-135725072D01*
X170445254Y-135708008D01*
X170611850Y-135657472D01*
X170765386Y-135575405D01*
X170899962Y-135464962D01*
X171010405Y-135330386D01*
X171092472Y-135176850D01*
X171143008Y-135010254D01*
X171160072Y-134837000D01*
X171160072Y-133387000D01*
X171143008Y-133213746D01*
X171092472Y-133047150D01*
X171010405Y-132893614D01*
X170899962Y-132759038D01*
X170765386Y-132648595D01*
X170611850Y-132566528D01*
X170445254Y-132515992D01*
X170272000Y-132498928D01*
X169072000Y-132498928D01*
X168898746Y-132515992D01*
X168732150Y-132566528D01*
X168578614Y-132648595D01*
X168444038Y-132759038D01*
X168333595Y-132893614D01*
X168277286Y-132998961D01*
X168261049Y-132977571D01*
X168043193Y-132784504D01*
X167791858Y-132637648D01*
X167528890Y-132545524D01*
X167299000Y-132666845D01*
X167045000Y-132666845D01*
X166815110Y-132545524D01*
X166552142Y-132637648D01*
X166300807Y-132784504D01*
X166082951Y-132977571D01*
X165926462Y-133183722D01*
X165912706Y-133157986D01*
X165727134Y-132931866D01*
X165501014Y-132746294D01*
X165243034Y-132608401D01*
X164963111Y-132523487D01*
X164672000Y-132494815D01*
X164380890Y-132523487D01*
X164100967Y-132608401D01*
X163842987Y-132746294D01*
X163616866Y-132931866D01*
X163431294Y-133157986D01*
X163422000Y-133175374D01*
X163412706Y-133157986D01*
X163227134Y-132931866D01*
X163001014Y-132746294D01*
X162743034Y-132608401D01*
X162463111Y-132523487D01*
X162172000Y-132494815D01*
X161880890Y-132523487D01*
X161600967Y-132608401D01*
X161342987Y-132746294D01*
X161116866Y-132931866D01*
X160931294Y-133157986D01*
X160793401Y-133415966D01*
X160708487Y-133695889D01*
X160687000Y-133914050D01*
X159516343Y-133914050D01*
X159512559Y-133895029D01*
X159193919Y-133125765D01*
X158731326Y-132433444D01*
X158142556Y-131844674D01*
X157450235Y-131382081D01*
X156680971Y-131063441D01*
X155864323Y-130901000D01*
X155031677Y-130901000D01*
X154215029Y-131063441D01*
X153445765Y-131382081D01*
X152753444Y-131844674D01*
X152164674Y-132433444D01*
X151702081Y-133125765D01*
X151383441Y-133895029D01*
X151221000Y-134711677D01*
X132740000Y-134711677D01*
X132740000Y-132429039D01*
X141356096Y-132429039D01*
X141396754Y-132563087D01*
X141516963Y-132817420D01*
X141684481Y-133043414D01*
X141892869Y-133232385D01*
X142134119Y-133377070D01*
X142398960Y-133471909D01*
X142621000Y-133350624D01*
X142621000Y-132207000D01*
X142875000Y-132207000D01*
X142875000Y-133350624D01*
X143097040Y-133471909D01*
X143361881Y-133377070D01*
X143603131Y-133232385D01*
X143811519Y-133043414D01*
X143979037Y-132817420D01*
X144099246Y-132563087D01*
X144139904Y-132429039D01*
X144017915Y-132207000D01*
X142875000Y-132207000D01*
X142621000Y-132207000D01*
X141478085Y-132207000D01*
X141356096Y-132429039D01*
X132740000Y-132429039D01*
X132740000Y-128740000D01*
X141309928Y-128740000D01*
X141309928Y-130340000D01*
X141322188Y-130464482D01*
X141358498Y-130584180D01*
X141417463Y-130694494D01*
X141496815Y-130791185D01*
X141593506Y-130870537D01*
X141703820Y-130929502D01*
X141823518Y-130965812D01*
X141848080Y-130968231D01*
X141684481Y-131116586D01*
X141516963Y-131342580D01*
X141396754Y-131596913D01*
X141356096Y-131730961D01*
X141478085Y-131953000D01*
X142621000Y-131953000D01*
X142621000Y-131933000D01*
X142875000Y-131933000D01*
X142875000Y-131953000D01*
X144017915Y-131953000D01*
X144139904Y-131730961D01*
X144099246Y-131596913D01*
X143979037Y-131342580D01*
X143811519Y-131116586D01*
X143647920Y-130968231D01*
X143672482Y-130965812D01*
X143792180Y-130929502D01*
X143902494Y-130870537D01*
X143999185Y-130791185D01*
X144078537Y-130694494D01*
X144137502Y-130584180D01*
X144173812Y-130464482D01*
X144186072Y-130340000D01*
X144186072Y-129398665D01*
X148933000Y-129398665D01*
X148933000Y-129681335D01*
X148988147Y-129958574D01*
X149096320Y-130219727D01*
X149253363Y-130454759D01*
X149453241Y-130654637D01*
X149685759Y-130810000D01*
X149453241Y-130965363D01*
X149253363Y-131165241D01*
X149096320Y-131400273D01*
X148988147Y-131661426D01*
X148933000Y-131938665D01*
X148933000Y-132221335D01*
X148988147Y-132498574D01*
X149096320Y-132759727D01*
X149253363Y-132994759D01*
X149453241Y-133194637D01*
X149688273Y-133351680D01*
X149949426Y-133459853D01*
X150226665Y-133515000D01*
X150509335Y-133515000D01*
X150786574Y-133459853D01*
X151047727Y-133351680D01*
X151282759Y-133194637D01*
X151482637Y-132994759D01*
X151639680Y-132759727D01*
X151747853Y-132498574D01*
X151803000Y-132221335D01*
X151803000Y-131938665D01*
X151747853Y-131661426D01*
X151639680Y-131400273D01*
X151482637Y-131165241D01*
X151282759Y-130965363D01*
X151050241Y-130810000D01*
X151282759Y-130654637D01*
X151482637Y-130454759D01*
X151639680Y-130219727D01*
X151747853Y-129958574D01*
X151803000Y-129681335D01*
X151803000Y-129398665D01*
X151747853Y-129121426D01*
X151639680Y-128860273D01*
X151482637Y-128625241D01*
X151381396Y-128524000D01*
X155581388Y-128524000D01*
X155603785Y-128751400D01*
X155670115Y-128970060D01*
X155777829Y-129171579D01*
X155922788Y-129348212D01*
X156099421Y-129493171D01*
X156300940Y-129600885D01*
X156519600Y-129667215D01*
X156690021Y-129684000D01*
X157253979Y-129684000D01*
X157424400Y-129667215D01*
X157643060Y-129600885D01*
X157844579Y-129493171D01*
X158021212Y-129348212D01*
X158166171Y-129171579D01*
X158273885Y-128970060D01*
X158340215Y-128751400D01*
X158362612Y-128524000D01*
X158340215Y-128296600D01*
X158273885Y-128077940D01*
X158173071Y-127889331D01*
X158214275Y-127830882D01*
X158307272Y-127621337D01*
X158315964Y-127559810D01*
X158190163Y-127381000D01*
X157425109Y-127381000D01*
X157424400Y-127380785D01*
X157253979Y-127364000D01*
X156690021Y-127364000D01*
X156519600Y-127380785D01*
X156518891Y-127381000D01*
X155753837Y-127381000D01*
X155628036Y-127559810D01*
X155636728Y-127621337D01*
X155729725Y-127830882D01*
X155770929Y-127889331D01*
X155670115Y-128077940D01*
X155603785Y-128296600D01*
X155581388Y-128524000D01*
X151381396Y-128524000D01*
X151282759Y-128425363D01*
X151047727Y-128268320D01*
X150786574Y-128160147D01*
X150509335Y-128105000D01*
X150226665Y-128105000D01*
X149949426Y-128160147D01*
X149688273Y-128268320D01*
X149453241Y-128425363D01*
X149253363Y-128625241D01*
X149096320Y-128860273D01*
X148988147Y-129121426D01*
X148933000Y-129398665D01*
X144186072Y-129398665D01*
X144186072Y-128740000D01*
X144173812Y-128615518D01*
X144137502Y-128495820D01*
X144078537Y-128385506D01*
X143999185Y-128288815D01*
X143902494Y-128209463D01*
X143792180Y-128150498D01*
X143672482Y-128114188D01*
X143548000Y-128101928D01*
X141948000Y-128101928D01*
X141823518Y-128114188D01*
X141703820Y-128150498D01*
X141593506Y-128209463D01*
X141496815Y-128288815D01*
X141417463Y-128385506D01*
X141358498Y-128495820D01*
X141322188Y-128615518D01*
X141309928Y-128740000D01*
X132740000Y-128740000D01*
X132740000Y-106532401D01*
X133121400Y-106532401D01*
X133121400Y-106827599D01*
X133178990Y-107117125D01*
X133291958Y-107389853D01*
X133455961Y-107635302D01*
X133664698Y-107844039D01*
X133823281Y-107950000D01*
X133664698Y-108055961D01*
X133455961Y-108264698D01*
X133291958Y-108510147D01*
X133178990Y-108782875D01*
X133121400Y-109072401D01*
X133121400Y-109367599D01*
X133178990Y-109657125D01*
X133291958Y-109929853D01*
X133455961Y-110175302D01*
X133664698Y-110384039D01*
X133823281Y-110490000D01*
X133664698Y-110595961D01*
X133455961Y-110804698D01*
X133291958Y-111050147D01*
X133178990Y-111322875D01*
X133121400Y-111612401D01*
X133121400Y-111907599D01*
X133178990Y-112197125D01*
X133291958Y-112469853D01*
X133455961Y-112715302D01*
X133664698Y-112924039D01*
X133823281Y-113030000D01*
X133664698Y-113135961D01*
X133455961Y-113344698D01*
X133291958Y-113590147D01*
X133178990Y-113862875D01*
X133121400Y-114152401D01*
X133121400Y-114447599D01*
X133178990Y-114737125D01*
X133291958Y-115009853D01*
X133455961Y-115255302D01*
X133664698Y-115464039D01*
X133823281Y-115570000D01*
X133664698Y-115675961D01*
X133455961Y-115884698D01*
X133291958Y-116130147D01*
X133178990Y-116402875D01*
X133121400Y-116692401D01*
X133121400Y-116987599D01*
X133178990Y-117277125D01*
X133291958Y-117549853D01*
X133455961Y-117795302D01*
X133664698Y-118004039D01*
X133823281Y-118110000D01*
X133664698Y-118215961D01*
X133455961Y-118424698D01*
X133291958Y-118670147D01*
X133178990Y-118942875D01*
X133121400Y-119232401D01*
X133121400Y-119527599D01*
X133178990Y-119817125D01*
X133291958Y-120089853D01*
X133455961Y-120335302D01*
X133664698Y-120544039D01*
X133823281Y-120650000D01*
X133664698Y-120755961D01*
X133455961Y-120964698D01*
X133291958Y-121210147D01*
X133178990Y-121482875D01*
X133121400Y-121772401D01*
X133121400Y-122067599D01*
X133178990Y-122357125D01*
X133291958Y-122629853D01*
X133455961Y-122875302D01*
X133664698Y-123084039D01*
X133823281Y-123190000D01*
X133664698Y-123295961D01*
X133455961Y-123504698D01*
X133291958Y-123750147D01*
X133178990Y-124022875D01*
X133121400Y-124312401D01*
X133121400Y-124607599D01*
X133178990Y-124897125D01*
X133291958Y-125169853D01*
X133455961Y-125415302D01*
X133664698Y-125624039D01*
X133910147Y-125788042D01*
X134182875Y-125901010D01*
X134472401Y-125958600D01*
X134767599Y-125958600D01*
X135057125Y-125901010D01*
X135329853Y-125788042D01*
X135575302Y-125624039D01*
X135784039Y-125415302D01*
X135948042Y-125169853D01*
X136061010Y-124897125D01*
X136118600Y-124607599D01*
X136118600Y-124312401D01*
X136061010Y-124022875D01*
X135948042Y-123750147D01*
X135784039Y-123504698D01*
X135575302Y-123295961D01*
X135416719Y-123190000D01*
X135575302Y-123084039D01*
X135784039Y-122875302D01*
X135948042Y-122629853D01*
X136061010Y-122357125D01*
X136118600Y-122067599D01*
X136118600Y-121772401D01*
X136061010Y-121482875D01*
X135948042Y-121210147D01*
X135784039Y-120964698D01*
X135575302Y-120755961D01*
X135416719Y-120650000D01*
X135575302Y-120544039D01*
X135784039Y-120335302D01*
X135948042Y-120089853D01*
X136061010Y-119817125D01*
X136118600Y-119527599D01*
X136118600Y-119413401D01*
X144216201Y-127511003D01*
X144239999Y-127540001D01*
X144355724Y-127634974D01*
X144487753Y-127705546D01*
X144631014Y-127749003D01*
X144742667Y-127760000D01*
X144742675Y-127760000D01*
X144780000Y-127763676D01*
X144817325Y-127760000D01*
X151854678Y-127760000D01*
X151892000Y-127763676D01*
X151929322Y-127760000D01*
X151929333Y-127760000D01*
X152040986Y-127749003D01*
X152184247Y-127705546D01*
X152316276Y-127634974D01*
X152432001Y-127540001D01*
X152455804Y-127510998D01*
X153419003Y-126547799D01*
X153448001Y-126524001D01*
X153500526Y-126459999D01*
X153542974Y-126408277D01*
X153613546Y-126276247D01*
X153624541Y-126240000D01*
X153657003Y-126132986D01*
X153668000Y-126021333D01*
X153668000Y-126021323D01*
X153671676Y-125984000D01*
X153668000Y-125946678D01*
X153668000Y-125459000D01*
X155583928Y-125459000D01*
X155583928Y-126509000D01*
X155596188Y-126633482D01*
X155632498Y-126753180D01*
X155667176Y-126818057D01*
X155636728Y-126886663D01*
X155628036Y-126948190D01*
X155753837Y-127127000D01*
X156071765Y-127127000D01*
X156097518Y-127134812D01*
X156222000Y-127147072D01*
X157722000Y-127147072D01*
X157846482Y-127134812D01*
X157872235Y-127127000D01*
X158190163Y-127127000D01*
X158315964Y-126948190D01*
X158307272Y-126886663D01*
X158276824Y-126818057D01*
X158311502Y-126753180D01*
X158347812Y-126633482D01*
X158360072Y-126509000D01*
X158360072Y-125459000D01*
X158347812Y-125334518D01*
X158311502Y-125214820D01*
X158252537Y-125104506D01*
X158173185Y-125007815D01*
X158076494Y-124928463D01*
X157966180Y-124869498D01*
X157846482Y-124833188D01*
X157722000Y-124820928D01*
X156222000Y-124820928D01*
X156097518Y-124833188D01*
X155977820Y-124869498D01*
X155867506Y-124928463D01*
X155770815Y-125007815D01*
X155691463Y-125104506D01*
X155632498Y-125214820D01*
X155596188Y-125334518D01*
X155583928Y-125459000D01*
X153668000Y-125459000D01*
X153668000Y-123250801D01*
X155000802Y-121918000D01*
X155704292Y-121918000D01*
X155670115Y-121981940D01*
X155603785Y-122200600D01*
X155581388Y-122428000D01*
X155603785Y-122655400D01*
X155670115Y-122874060D01*
X155777829Y-123075579D01*
X155922788Y-123252212D01*
X156099421Y-123397171D01*
X156300940Y-123504885D01*
X156519600Y-123571215D01*
X156690021Y-123588000D01*
X157253979Y-123588000D01*
X157424400Y-123571215D01*
X157643060Y-123504885D01*
X157844579Y-123397171D01*
X158021212Y-123252212D01*
X158166171Y-123075579D01*
X158273885Y-122874060D01*
X158340215Y-122655400D01*
X158362612Y-122428000D01*
X158340215Y-122200600D01*
X158273885Y-121981940D01*
X158172895Y-121793000D01*
X158273885Y-121604060D01*
X158340215Y-121385400D01*
X158362612Y-121158000D01*
X158340215Y-120930600D01*
X158276907Y-120721902D01*
X158311502Y-120657180D01*
X158347812Y-120537482D01*
X158360072Y-120413000D01*
X158357000Y-120173750D01*
X158198250Y-120015000D01*
X157425109Y-120015000D01*
X157424400Y-120014785D01*
X157253979Y-119998000D01*
X156690021Y-119998000D01*
X156519600Y-120014785D01*
X156518891Y-120015000D01*
X155745750Y-120015000D01*
X155587000Y-120173750D01*
X155584121Y-120398000D01*
X154723325Y-120398000D01*
X154686000Y-120394324D01*
X154648675Y-120398000D01*
X154648667Y-120398000D01*
X154537014Y-120408997D01*
X154393753Y-120452454D01*
X154261724Y-120523026D01*
X154145999Y-120617999D01*
X154122201Y-120646997D01*
X152397003Y-122372196D01*
X152367999Y-122395999D01*
X152341737Y-122428000D01*
X152273026Y-122511724D01*
X152209884Y-122629853D01*
X152202454Y-122643754D01*
X152158997Y-122787015D01*
X152148000Y-122898668D01*
X152148000Y-122898678D01*
X152144324Y-122936000D01*
X152148000Y-122973323D01*
X152148001Y-125669197D01*
X151577199Y-126240000D01*
X145094802Y-126240000D01*
X136072776Y-117217975D01*
X136118600Y-116987599D01*
X136118600Y-116692401D01*
X136061010Y-116402875D01*
X135948042Y-116130147D01*
X135784039Y-115884698D01*
X135575302Y-115675961D01*
X135416719Y-115570000D01*
X135575302Y-115464039D01*
X135784039Y-115255302D01*
X135948042Y-115009853D01*
X136061010Y-114737125D01*
X136118600Y-114447599D01*
X136118600Y-114152401D01*
X136061010Y-113862875D01*
X135948042Y-113590147D01*
X135784039Y-113344698D01*
X135575302Y-113135961D01*
X135416719Y-113030000D01*
X135575302Y-112924039D01*
X135784039Y-112715302D01*
X135948042Y-112469853D01*
X136061010Y-112197125D01*
X136118600Y-111907599D01*
X136118600Y-111612401D01*
X136061010Y-111322875D01*
X135948042Y-111050147D01*
X135784039Y-110804698D01*
X135575302Y-110595961D01*
X135416719Y-110490000D01*
X135575302Y-110384039D01*
X135784039Y-110175302D01*
X135948042Y-109929853D01*
X136061010Y-109657125D01*
X136118600Y-109367599D01*
X136118600Y-109072401D01*
X136061010Y-108782875D01*
X135948042Y-108510147D01*
X135784039Y-108264698D01*
X135575302Y-108055961D01*
X135416719Y-107950000D01*
X135575302Y-107844039D01*
X135784039Y-107635302D01*
X135948042Y-107389853D01*
X136061010Y-107117125D01*
X136118600Y-106827599D01*
X136118600Y-106532401D01*
X136061010Y-106242875D01*
X135948042Y-105970147D01*
X135784039Y-105724698D01*
X135575302Y-105515961D01*
X135407125Y-105403589D01*
X135478499Y-105178104D01*
X134620000Y-104319605D01*
X133761501Y-105178104D01*
X133832875Y-105403589D01*
X133664698Y-105515961D01*
X133455961Y-105724698D01*
X133291958Y-105970147D01*
X133178990Y-106242875D01*
X133121400Y-106532401D01*
X132740000Y-106532401D01*
X132740000Y-104207993D01*
X133115685Y-104207993D01*
X133157855Y-104500164D01*
X133256214Y-104778493D01*
X133331433Y-104919218D01*
X133581896Y-104998499D01*
X134440395Y-104140000D01*
X134799605Y-104140000D01*
X135658104Y-104998499D01*
X135908567Y-104919218D01*
X136035826Y-104652859D01*
X136108675Y-104366790D01*
X136124315Y-104072007D01*
X136082145Y-103779836D01*
X135983786Y-103501507D01*
X135908567Y-103360782D01*
X135658104Y-103281501D01*
X134799605Y-104140000D01*
X134440395Y-104140000D01*
X133581896Y-103281501D01*
X133331433Y-103360782D01*
X133204174Y-103627141D01*
X133131325Y-103913210D01*
X133115685Y-104207993D01*
X132740000Y-104207993D01*
X132740000Y-96372401D01*
X133121400Y-96372401D01*
X133121400Y-96667599D01*
X133178990Y-96957125D01*
X133291958Y-97229853D01*
X133455961Y-97475302D01*
X133664698Y-97684039D01*
X133823281Y-97790000D01*
X133664698Y-97895961D01*
X133455961Y-98104698D01*
X133291958Y-98350147D01*
X133178990Y-98622875D01*
X133121400Y-98912401D01*
X133121400Y-99207599D01*
X133178990Y-99497125D01*
X133291958Y-99769853D01*
X133455961Y-100015302D01*
X133664698Y-100224039D01*
X133823281Y-100330000D01*
X133664698Y-100435961D01*
X133455961Y-100644698D01*
X133291958Y-100890147D01*
X133178990Y-101162875D01*
X133121400Y-101452401D01*
X133121400Y-101747599D01*
X133178990Y-102037125D01*
X133291958Y-102309853D01*
X133455961Y-102555302D01*
X133664698Y-102764039D01*
X133832875Y-102876411D01*
X133761501Y-103101896D01*
X134620000Y-103960395D01*
X135478499Y-103101896D01*
X135407125Y-102876411D01*
X135575302Y-102764039D01*
X135784039Y-102555302D01*
X135948042Y-102309853D01*
X136061010Y-102037125D01*
X136118600Y-101747599D01*
X136118600Y-101452401D01*
X136061010Y-101162875D01*
X135948042Y-100890147D01*
X135784039Y-100644698D01*
X135575302Y-100435961D01*
X135416719Y-100330000D01*
X135575302Y-100224039D01*
X135784039Y-100015302D01*
X135948042Y-99769853D01*
X136061010Y-99497125D01*
X136118600Y-99207599D01*
X136118600Y-98912401D01*
X136061010Y-98622875D01*
X135948042Y-98350147D01*
X135784039Y-98104698D01*
X135575302Y-97895961D01*
X135416719Y-97790000D01*
X135575302Y-97684039D01*
X135784039Y-97475302D01*
X135948042Y-97229853D01*
X136061010Y-96957125D01*
X136118600Y-96667599D01*
X136118600Y-96372401D01*
X136061010Y-96082875D01*
X135948042Y-95810147D01*
X135784039Y-95564698D01*
X135575302Y-95355961D01*
X135329853Y-95191958D01*
X135057125Y-95078990D01*
X134767599Y-95021400D01*
X134472401Y-95021400D01*
X134182875Y-95078990D01*
X133910147Y-95191958D01*
X133664698Y-95355961D01*
X133455961Y-95564698D01*
X133291958Y-95810147D01*
X133178990Y-96082875D01*
X133121400Y-96372401D01*
X132740000Y-96372401D01*
X132740000Y-92100000D01*
X164114878Y-92100000D01*
X164091059Y-92135647D01*
G36*
X139635000Y-99826486D02*
G01*
X139686304Y-100084405D01*
X139786939Y-100327359D01*
X139933038Y-100546013D01*
X140118987Y-100731962D01*
X140337641Y-100878061D01*
X140551444Y-100966621D01*
X140388634Y-101026065D01*
X140287797Y-101079963D01*
X140228336Y-101313731D01*
X140970000Y-102055395D01*
X141711664Y-101313731D01*
X141652203Y-101079963D01*
X141413758Y-100969066D01*
X141394173Y-100964294D01*
X141602359Y-100878061D01*
X141821013Y-100731962D01*
X142006962Y-100546013D01*
X142153061Y-100327359D01*
X142240000Y-100117470D01*
X142326939Y-100327359D01*
X142473038Y-100546013D01*
X142658987Y-100731962D01*
X142877641Y-100878061D01*
X143087530Y-100965000D01*
X142877641Y-101051939D01*
X142658987Y-101198038D01*
X142473038Y-101383987D01*
X142326939Y-101602641D01*
X142238379Y-101816444D01*
X142178935Y-101653634D01*
X142125037Y-101552797D01*
X141891269Y-101493336D01*
X141149605Y-102235000D01*
X141891269Y-102976664D01*
X142125037Y-102917203D01*
X142235934Y-102678758D01*
X142240706Y-102659173D01*
X142326939Y-102867359D01*
X142473038Y-103086013D01*
X142658987Y-103271962D01*
X142877641Y-103418061D01*
X143087530Y-103505000D01*
X142877641Y-103591939D01*
X142658987Y-103738038D01*
X142473038Y-103923987D01*
X142326939Y-104142641D01*
X142238379Y-104356444D01*
X142178935Y-104193634D01*
X142125037Y-104092797D01*
X141891269Y-104033336D01*
X141149605Y-104775000D01*
X141891269Y-105516664D01*
X142125037Y-105457203D01*
X142235934Y-105218758D01*
X142240706Y-105199173D01*
X142326939Y-105407359D01*
X142473038Y-105626013D01*
X142658987Y-105811962D01*
X142877641Y-105958061D01*
X143087530Y-106045000D01*
X142877641Y-106131939D01*
X142658987Y-106278038D01*
X142473038Y-106463987D01*
X142326939Y-106682641D01*
X142238379Y-106896444D01*
X142178935Y-106733634D01*
X142125037Y-106632797D01*
X141891269Y-106573336D01*
X141149605Y-107315000D01*
X141891269Y-108056664D01*
X142125037Y-107997203D01*
X142235934Y-107758758D01*
X142240706Y-107739173D01*
X142326939Y-107947359D01*
X142473038Y-108166013D01*
X142658987Y-108351962D01*
X142877641Y-108498061D01*
X143087530Y-108585000D01*
X142877641Y-108671939D01*
X142658987Y-108818038D01*
X142473038Y-109003987D01*
X142326939Y-109222641D01*
X142238379Y-109436444D01*
X142178935Y-109273634D01*
X142125037Y-109172797D01*
X141891269Y-109113336D01*
X141149605Y-109855000D01*
X141891269Y-110596664D01*
X142125037Y-110537203D01*
X142235934Y-110298758D01*
X142240706Y-110279173D01*
X142326939Y-110487359D01*
X142473038Y-110706013D01*
X142658987Y-110891962D01*
X142750001Y-110952775D01*
X142750000Y-112992677D01*
X142746324Y-113030000D01*
X142750000Y-113067322D01*
X142750000Y-113067332D01*
X142760997Y-113178985D01*
X142785148Y-113258600D01*
X142804454Y-113322246D01*
X142875026Y-113454276D01*
X142914871Y-113502826D01*
X142969999Y-113570001D01*
X142999003Y-113593804D01*
X148407224Y-119002026D01*
X148361400Y-119232401D01*
X148361400Y-119346598D01*
X139791071Y-110776269D01*
X140228336Y-110776269D01*
X140287797Y-111010037D01*
X140526242Y-111120934D01*
X140781740Y-111183183D01*
X141044473Y-111194390D01*
X141304344Y-111154125D01*
X141551366Y-111063935D01*
X141652203Y-111010037D01*
X141711664Y-110776269D01*
X140970000Y-110034605D01*
X140228336Y-110776269D01*
X139791071Y-110776269D01*
X139190000Y-110175199D01*
X139190000Y-109929473D01*
X139630610Y-109929473D01*
X139670875Y-110189344D01*
X139761065Y-110436366D01*
X139814963Y-110537203D01*
X140048731Y-110596664D01*
X140790395Y-109855000D01*
X140048731Y-109113336D01*
X139814963Y-109172797D01*
X139704066Y-109411242D01*
X139641817Y-109666740D01*
X139630610Y-109929473D01*
X139190000Y-109929473D01*
X139190000Y-108236269D01*
X140228336Y-108236269D01*
X140287797Y-108470037D01*
X140526242Y-108580934D01*
X140550701Y-108586893D01*
X140388634Y-108646065D01*
X140287797Y-108699963D01*
X140228336Y-108933731D01*
X140970000Y-109675395D01*
X141711664Y-108933731D01*
X141652203Y-108699963D01*
X141413758Y-108589066D01*
X141389299Y-108583107D01*
X141551366Y-108523935D01*
X141652203Y-108470037D01*
X141711664Y-108236269D01*
X140970000Y-107494605D01*
X140228336Y-108236269D01*
X139190000Y-108236269D01*
X139190000Y-107389473D01*
X139630610Y-107389473D01*
X139670875Y-107649344D01*
X139761065Y-107896366D01*
X139814963Y-107997203D01*
X140048731Y-108056664D01*
X140790395Y-107315000D01*
X140048731Y-106573336D01*
X139814963Y-106632797D01*
X139704066Y-106871242D01*
X139641817Y-107126740D01*
X139630610Y-107389473D01*
X139190000Y-107389473D01*
X139190000Y-105696269D01*
X140228336Y-105696269D01*
X140287797Y-105930037D01*
X140526242Y-106040934D01*
X140550701Y-106046893D01*
X140388634Y-106106065D01*
X140287797Y-106159963D01*
X140228336Y-106393731D01*
X140970000Y-107135395D01*
X141711664Y-106393731D01*
X141652203Y-106159963D01*
X141413758Y-106049066D01*
X141389299Y-106043107D01*
X141551366Y-105983935D01*
X141652203Y-105930037D01*
X141711664Y-105696269D01*
X140970000Y-104954605D01*
X140228336Y-105696269D01*
X139190000Y-105696269D01*
X139190000Y-104849473D01*
X139630610Y-104849473D01*
X139670875Y-105109344D01*
X139761065Y-105356366D01*
X139814963Y-105457203D01*
X140048731Y-105516664D01*
X140790395Y-104775000D01*
X140048731Y-104033336D01*
X139814963Y-104092797D01*
X139704066Y-104331242D01*
X139641817Y-104586740D01*
X139630610Y-104849473D01*
X139190000Y-104849473D01*
X139190000Y-103156269D01*
X140228336Y-103156269D01*
X140287797Y-103390037D01*
X140526242Y-103500934D01*
X140550701Y-103506893D01*
X140388634Y-103566065D01*
X140287797Y-103619963D01*
X140228336Y-103853731D01*
X140970000Y-104595395D01*
X141711664Y-103853731D01*
X141652203Y-103619963D01*
X141413758Y-103509066D01*
X141389299Y-103503107D01*
X141551366Y-103443935D01*
X141652203Y-103390037D01*
X141711664Y-103156269D01*
X140970000Y-102414605D01*
X140228336Y-103156269D01*
X139190000Y-103156269D01*
X139190000Y-102309473D01*
X139630610Y-102309473D01*
X139670875Y-102569344D01*
X139761065Y-102816366D01*
X139814963Y-102917203D01*
X140048731Y-102976664D01*
X140790395Y-102235000D01*
X140048731Y-101493336D01*
X139814963Y-101552797D01*
X139704066Y-101791242D01*
X139641817Y-102046740D01*
X139630610Y-102309473D01*
X139190000Y-102309473D01*
X139190000Y-100009801D01*
X139635000Y-99564801D01*
X139635000Y-99826486D01*
G37*
X139635000Y-99826486D02*
X139686304Y-100084405D01*
X139786939Y-100327359D01*
X139933038Y-100546013D01*
X140118987Y-100731962D01*
X140337641Y-100878061D01*
X140551444Y-100966621D01*
X140388634Y-101026065D01*
X140287797Y-101079963D01*
X140228336Y-101313731D01*
X140970000Y-102055395D01*
X141711664Y-101313731D01*
X141652203Y-101079963D01*
X141413758Y-100969066D01*
X141394173Y-100964294D01*
X141602359Y-100878061D01*
X141821013Y-100731962D01*
X142006962Y-100546013D01*
X142153061Y-100327359D01*
X142240000Y-100117470D01*
X142326939Y-100327359D01*
X142473038Y-100546013D01*
X142658987Y-100731962D01*
X142877641Y-100878061D01*
X143087530Y-100965000D01*
X142877641Y-101051939D01*
X142658987Y-101198038D01*
X142473038Y-101383987D01*
X142326939Y-101602641D01*
X142238379Y-101816444D01*
X142178935Y-101653634D01*
X142125037Y-101552797D01*
X141891269Y-101493336D01*
X141149605Y-102235000D01*
X141891269Y-102976664D01*
X142125037Y-102917203D01*
X142235934Y-102678758D01*
X142240706Y-102659173D01*
X142326939Y-102867359D01*
X142473038Y-103086013D01*
X142658987Y-103271962D01*
X142877641Y-103418061D01*
X143087530Y-103505000D01*
X142877641Y-103591939D01*
X142658987Y-103738038D01*
X142473038Y-103923987D01*
X142326939Y-104142641D01*
X142238379Y-104356444D01*
X142178935Y-104193634D01*
X142125037Y-104092797D01*
X141891269Y-104033336D01*
X141149605Y-104775000D01*
X141891269Y-105516664D01*
X142125037Y-105457203D01*
X142235934Y-105218758D01*
X142240706Y-105199173D01*
X142326939Y-105407359D01*
X142473038Y-105626013D01*
X142658987Y-105811962D01*
X142877641Y-105958061D01*
X143087530Y-106045000D01*
X142877641Y-106131939D01*
X142658987Y-106278038D01*
X142473038Y-106463987D01*
X142326939Y-106682641D01*
X142238379Y-106896444D01*
X142178935Y-106733634D01*
X142125037Y-106632797D01*
X141891269Y-106573336D01*
X141149605Y-107315000D01*
X141891269Y-108056664D01*
X142125037Y-107997203D01*
X142235934Y-107758758D01*
X142240706Y-107739173D01*
X142326939Y-107947359D01*
X142473038Y-108166013D01*
X142658987Y-108351962D01*
X142877641Y-108498061D01*
X143087530Y-108585000D01*
X142877641Y-108671939D01*
X142658987Y-108818038D01*
X142473038Y-109003987D01*
X142326939Y-109222641D01*
X142238379Y-109436444D01*
X142178935Y-109273634D01*
X142125037Y-109172797D01*
X141891269Y-109113336D01*
X141149605Y-109855000D01*
X141891269Y-110596664D01*
X142125037Y-110537203D01*
X142235934Y-110298758D01*
X142240706Y-110279173D01*
X142326939Y-110487359D01*
X142473038Y-110706013D01*
X142658987Y-110891962D01*
X142750001Y-110952775D01*
X142750000Y-112992677D01*
X142746324Y-113030000D01*
X142750000Y-113067322D01*
X142750000Y-113067332D01*
X142760997Y-113178985D01*
X142785148Y-113258600D01*
X142804454Y-113322246D01*
X142875026Y-113454276D01*
X142914871Y-113502826D01*
X142969999Y-113570001D01*
X142999003Y-113593804D01*
X148407224Y-119002026D01*
X148361400Y-119232401D01*
X148361400Y-119346598D01*
X139791071Y-110776269D01*
X140228336Y-110776269D01*
X140287797Y-111010037D01*
X140526242Y-111120934D01*
X140781740Y-111183183D01*
X141044473Y-111194390D01*
X141304344Y-111154125D01*
X141551366Y-111063935D01*
X141652203Y-111010037D01*
X141711664Y-110776269D01*
X140970000Y-110034605D01*
X140228336Y-110776269D01*
X139791071Y-110776269D01*
X139190000Y-110175199D01*
X139190000Y-109929473D01*
X139630610Y-109929473D01*
X139670875Y-110189344D01*
X139761065Y-110436366D01*
X139814963Y-110537203D01*
X140048731Y-110596664D01*
X140790395Y-109855000D01*
X140048731Y-109113336D01*
X139814963Y-109172797D01*
X139704066Y-109411242D01*
X139641817Y-109666740D01*
X139630610Y-109929473D01*
X139190000Y-109929473D01*
X139190000Y-108236269D01*
X140228336Y-108236269D01*
X140287797Y-108470037D01*
X140526242Y-108580934D01*
X140550701Y-108586893D01*
X140388634Y-108646065D01*
X140287797Y-108699963D01*
X140228336Y-108933731D01*
X140970000Y-109675395D01*
X141711664Y-108933731D01*
X141652203Y-108699963D01*
X141413758Y-108589066D01*
X141389299Y-108583107D01*
X141551366Y-108523935D01*
X141652203Y-108470037D01*
X141711664Y-108236269D01*
X140970000Y-107494605D01*
X140228336Y-108236269D01*
X139190000Y-108236269D01*
X139190000Y-107389473D01*
X139630610Y-107389473D01*
X139670875Y-107649344D01*
X139761065Y-107896366D01*
X139814963Y-107997203D01*
X140048731Y-108056664D01*
X140790395Y-107315000D01*
X140048731Y-106573336D01*
X139814963Y-106632797D01*
X139704066Y-106871242D01*
X139641817Y-107126740D01*
X139630610Y-107389473D01*
X139190000Y-107389473D01*
X139190000Y-105696269D01*
X140228336Y-105696269D01*
X140287797Y-105930037D01*
X140526242Y-106040934D01*
X140550701Y-106046893D01*
X140388634Y-106106065D01*
X140287797Y-106159963D01*
X140228336Y-106393731D01*
X140970000Y-107135395D01*
X141711664Y-106393731D01*
X141652203Y-106159963D01*
X141413758Y-106049066D01*
X141389299Y-106043107D01*
X141551366Y-105983935D01*
X141652203Y-105930037D01*
X141711664Y-105696269D01*
X140970000Y-104954605D01*
X140228336Y-105696269D01*
X139190000Y-105696269D01*
X139190000Y-104849473D01*
X139630610Y-104849473D01*
X139670875Y-105109344D01*
X139761065Y-105356366D01*
X139814963Y-105457203D01*
X140048731Y-105516664D01*
X140790395Y-104775000D01*
X140048731Y-104033336D01*
X139814963Y-104092797D01*
X139704066Y-104331242D01*
X139641817Y-104586740D01*
X139630610Y-104849473D01*
X139190000Y-104849473D01*
X139190000Y-103156269D01*
X140228336Y-103156269D01*
X140287797Y-103390037D01*
X140526242Y-103500934D01*
X140550701Y-103506893D01*
X140388634Y-103566065D01*
X140287797Y-103619963D01*
X140228336Y-103853731D01*
X140970000Y-104595395D01*
X141711664Y-103853731D01*
X141652203Y-103619963D01*
X141413758Y-103509066D01*
X141389299Y-103503107D01*
X141551366Y-103443935D01*
X141652203Y-103390037D01*
X141711664Y-103156269D01*
X140970000Y-102414605D01*
X140228336Y-103156269D01*
X139190000Y-103156269D01*
X139190000Y-102309473D01*
X139630610Y-102309473D01*
X139670875Y-102569344D01*
X139761065Y-102816366D01*
X139814963Y-102917203D01*
X140048731Y-102976664D01*
X140790395Y-102235000D01*
X140048731Y-101493336D01*
X139814963Y-101552797D01*
X139704066Y-101791242D01*
X139641817Y-102046740D01*
X139630610Y-102309473D01*
X139190000Y-102309473D01*
X139190000Y-100009801D01*
X139635000Y-99564801D01*
X139635000Y-99826486D01*
M02*
