M48
; DRILL file {KiCad 5.1.5} date Fr 24 Jan 2020 16:15:17 CET
; FORMAT={-:-/ absolute / inch / decimal}
; #@! TF.CreationDate,2020-01-24T16:15:17+01:00
; #@! TF.GenerationSoftware,Kicad,Pcbnew,5.1.5
; #@! TF.FileFunction,Plated,1,2,PTH
FMAT,2
INCH
T1C0.0157
T2C0.0276
T3C0.0300
T4C0.0315
T5C0.0374
T6C0.0400
T7C0.0472
%
G90
G05
T1
X5.7Y-5.38
X5.9Y-5.44
T2
X6.18Y-4.96
X6.18Y-5.01
X6.18Y-5.06
X6.18Y-4.72
X6.18Y-4.77
X6.18Y-4.82
T3
X6.2244Y-4.36
X6.3031Y-4.36
X6.3819Y-4.36
X6.4606Y-4.36
X6.5394Y-4.36
X6.6181Y-4.36
X6.6969Y-4.36
X6.7756Y-4.36
T4
X5.62Y-5.1
X5.62Y-5.2
X5.92Y-5.1
X5.92Y-5.2
X5.55Y-3.925
X5.55Y-4.025
X5.55Y-4.125
X5.55Y-4.225
X5.55Y-4.325
X5.65Y-3.925
X5.65Y-4.025
X5.65Y-4.125
X5.65Y-4.225
X5.65Y-4.325
T5
X6.3847Y-5.28
X6.4831Y-5.28
X6.5816Y-5.28
X6.68Y-5.28
T6
X5.3Y-3.8
X5.3Y-3.9
X5.3Y-4.0
X5.3Y-4.1
X5.3Y-4.2
X5.3Y-4.3
X5.3Y-4.4
X5.3Y-4.5
X5.3Y-4.6
X5.3Y-4.7
X5.3Y-4.8
X5.3Y-4.9
X5.9Y-3.8
X5.9Y-3.9
X5.9Y-4.0
X5.9Y-4.1
X5.9Y-4.2
X5.9Y-4.3
X5.9Y-4.4
X5.9Y-4.5
X5.9Y-4.6
X5.9Y-4.7
X5.9Y-4.8
X5.9Y-4.9
T7
X6.51Y-4.8
X6.7069Y-4.8
T0
M30
